Inter-Myanmar.glyphspackage
{
glyphname = slash;
kernLeft = slash;
kernRight = slash;
layers = (
{
layerId = "F0604DE4-03AC-4980-9DDA-35F40FDF1E6E";
shapes = (
{
closed = 1;
nodes = (
(526,1560,l),
(46,-224,l),
(212,-224,l),
(692,1560,l)
);
}
);
width = 738;
},
{
guides = (
{
pos = (12,1240);
},
{
pos = (12,764);
}
);
layerId = m003;
shapes = (
{
closed = 1;
nodes = (
(492,1560,l),
(12,-224,l),
(352,-224,l),
(832,1560,l)
);
}
);
width = 844;
},
{
layerId = "78B30572-30A3-488A-B9E2-AAE684162724";
shapes = (
{
closed = 1;
nodes = (
(546,1560,l),
(66,-224,l),
(116,-224,l),
(596,1560,l)
);
}
);
width = 662;
}
);
unicode = 47;
userData = {
"interface.width-adjustments" = (
-16
);
};
}
{
glyphname = "kha-myanmar";
layers = (
{
anchors = (
{
name = bottom;
pos = (649,0);
},
{
name = bottomright;
pos = (653,0);
},
{
name = top;
pos = (669,1118);
}
);
layerId = "78B30572-30A3-488A-B9E2-AAE684162724";
shapes = (
{
closed = 1;
nodes = (
(979,-24,o),
(1170,186,o),
(1170,561,cs),
(1170,918,o),
(962,1142,o),
(631,1142,cs),
(412,1142,o),
(238,1027,o),
(176,870,c),
(214,854,l),
(278,1005,o),
(440,1097,o),
(631,1097,cs),
(934,1097,o),
(1124,890,o),
(1124,561,cs),
(1124,215,o),
(950,21,o),
(638,21,cs),
(390,21,o),
(218,206,o),
(194,363,c),
(178,326,l),
(260,403,o),
(389,446,o),
(526,446,cs),
(713,446,o),
(918,347,o),
(1022,172,c),
(1048,214,l),
(938,382,o),
(735,488,o),
(538,488,cs),
(351,488,o),
(196,413,o),
(150,352,c),
(202,130,o),
(407,-24,o),
(638,-24,cs)
);
}
);
userData = {
assembly = "NPUSHB[ ]	/* 58 values pushed */
19 1 2 1 43 6 2 5 6 2 76 0 2 1 0 1 2 0 128 0 0 0 6 5 0 6 105 0 1 1 3 97 0 3 3 37 77 0 5 5 4 97 0 4 4 38 4 78 36 40 36 38 36 39 33 7 8 29 
CALL[ ]	/* CallFunction */";
};
width = 1320;
},
{
anchors = (
{
name = bottom;
pos = (675,0);
},
{
name = bottomright;
pos = (675,0);
},
{
name = top;
pos = (703,1118);
}
);
layerId = m003;
shapes = (
{
closed = 1;
nodes = (
(1057,-24,o),
(1302,201,o),
(1302,559,cs),
(1302,917,o),
(1055,1142,o),
(668,1142,cs),
(363,1142,o),
(138,996,o),
(86,764,c),
(410,685,l),
(442,788,o),
(541,852,o),
(668,852,cs),
(829,852,o),
(936,739,o),
(936,559,cs),
(936,362,o),
(810,228,o),
(635,228,cs),
(503,228,o),
(401,299,o),
(372,412,c),
(354,341,l),
(411,377,o),
(497,400,o),
(590,400,cs),
(711,400,o),
(847,361,o),
(941,262,c),
(1062,371,l),
(959,495,o),
(756,573,o),
(541,573,cs),
(344,573,o),
(177,496,o),
(92,427,c),
(128,165,o),
(345,-24,o),
(672,-24,cs)
);
}
);
userData = {
assembly = "NPUSHB[ ]	/* 58 values pushed */
19 1 2 1 43 6 2 5 6 2 76 0 2 1 0 1 2 0 128 0 0 0 6 5 0 6 105 0 1 1 3 97 0 3 3 37 77 0 5 5 4 97 0 4 4 38 4 78 36 40 36 38 36 39 33 7 8 29 
CALL[ ]	/* CallFunction */";
};
width = 1388;
},
{
anchors = (
{
name = bottom;
pos = (653,0);
},
{
name = bottomright;
pos = (653,0);
},
{
name = top;
pos = (680,1118);
}
);
hints = (
{
horizontal = 1;
origin = (0,38);
target = (0,18);
type = Stem;
},
{
horizontal = 1;
origin = (0,25);
target = (0,32);
type = Stem;
},
{
horizontal = 1;
origin = (0,5);
target = (0,12);
type = Stem;
},
{
origin = (0,15);
target = (0,2);
type = Stem;
}
);
layerId = "F0604DE4-03AC-4980-9DDA-35F40FDF1E6E";
shapes = (
{
closed = 1;
nodes = (
(986,-24,o),
(1224,214,o),
(1224,560,cs),
(1224,908,o),
(986,1142,o),
(648,1142,cs),
(397,1142,o),
(198,1015,o),
(141,828,c),
(293,786,l),
(343,918,o),
(484,992,o),
(648,992,cs),
(881,992,o),
(1050,822,o),
(1050,560,cs),
(1050,292,o),
(874,120,o),
(638,120,cs),
(469,120,o),
(324,232,o),
(284,390,c),
(252,313,l),
(323,373,o),
(437,410,o),
(549,410,cs),
(724,410,o),
(889,328,o),
(978,198,c),
(1069,304,l),
(963,454,o),
(758,548,o),
(546,548,cs),
(369,548,o),
(205,489,o),
(125,408,c),
(171,152,o),
(383,-24,o),
(653,-24,cs)
);
}
);
userData = {
assembly = "NPUSHB[ ]	/* 58 values pushed */
19 1 2 1 43 6 2 5 6 2 76 0 2 1 0 1 2 0 128 0 0 0 6 5 0 6 105 0 1 1 3 97 0 3 3 37 77 0 5 5 4 97 0 4 4 38 4 78 36 40 36 38 36 39 33 7 8 29 
CALL[ ]	/* CallFunction */";
};
width = 1350;
}
);
note = uni1001;
unicode = 4097;
}
{
glyphname = "ga-myanmar";
layers = (
{
anchors = (
{
name = bottom;
pos = (660,0);
},
{
name = bottomright;
pos = (653,0);
},
{
name = top;
pos = (660,1118);
}
);
layerId = "78B30572-30A3-488A-B9E2-AAE684162724";
shapes = (
{
closed = 1;
nodes = (
(448,7,l),
(293,142,o),
(196,348,o),
(196,541,cs),
(196,883,o),
(376,1097,o),
(660,1097,cs),
(944,1097,o),
(1124,883,o),
(1124,541,cs),
(1124,348,o),
(1027,142,o),
(872,7,c),
(906,-24,l),
(1068,119,o),
(1170,337,o),
(1170,541,cs),
(1170,911,o),
(972,1142,o),
(660,1142,cs),
(348,1142,o),
(150,911,o),
(150,541,cs),
(150,337,o),
(252,119,o),
(414,-24,c)
);
}
);
userData = {
assembly = "NPUSHB[ ]	/* 30 values pushed */
6 1 0 1 1 76 0 1 1 3 97 0 3 3 37 77 2 1 0 0 38 0 78 38 41 39 20 4 8 26 
CALL[ ]	/* CallFunction */";
};
width = 1320;
},
{
anchors = (
{
name = bottom;
pos = (696,0);
},
{
name = bottomright;
pos = (696,0);
},
{
name = top;
pos = (694,1118);
}
);
layerId = m003;
shapes = (
{
closed = 1;
nodes = (
(602,186,l),
(509,244,o),
(452,376,o),
(452,527,cs),
(452,708,o),
(545,822,o),
(694,822,cs),
(843,822,o),
(936,708,o),
(936,527,cs),
(936,376,o),
(879,244,o),
(786,186,c),
(1013,-24,l),
(1191,74,o),
(1302,291,o),
(1302,538,cs),
(1302,909,o),
(1067,1142,o),
(694,1142,cs),
(321,1142,o),
(86,909,o),
(86,538,cs),
(86,291,o),
(197,74,o),
(375,-24,c)
);
}
);
userData = {
assembly = "NPUSHB[ ]	/* 30 values pushed */
6 1 0 1 1 76 0 1 1 3 97 0 3 3 37 77 2 1 0 0 38 0 78 38 41 39 20 4 8 26 
CALL[ ]	/* CallFunction */";
};
width = 1388;
},
{
anchors = (
{
name = bottom;
pos = (675,0);
},
{
name = bottomright;
pos = (677,0);
},
{
name = top;
pos = (675,1118);
}
);
hints = (
{
horizontal = 1;
origin = (0,25);
target = up;
type = BottomGhost;
},
{
horizontal = 1;
origin = (0,19);
target = (0,6);
type = Stem;
},
{
origin = (0,22);
target = (0,3);
type = Stem;
},
{
origin = (0,9);
target = (0,16);
type = Stem;
}
);
layerId = "F0604DE4-03AC-4980-9DDA-35F40FDF1E6E";
shapes = (
{
closed = 1;
nodes = (
(521,87,l),
(375,204,o),
(300,358,o),
(300,539,cs),
(300,814,o),
(445,982,o),
(675,982,cs),
(905,982,o),
(1050,814,o),
(1050,539,cs),
(1050,358,o),
(975,204,o),
(829,87,c),
(950,-24,l),
(1126,107,o),
(1224,309,o),
(1224,540,cs),
(1224,910,o),
(1012,1142,o),
(675,1142,cs),
(338,1142,o),
(126,910,o),
(126,540,cs),
(126,309,o),
(224,107,o),
(400,-24,c)
);
}
);
userData = {
assembly = "NPUSHB[ ]	/* 30 values pushed */
6 1 0 1 1 76 0 1 1 3 97 0 3 3 37 77 2 1 0 0 38 0 78 38 41 39 20 4 8 26 
CALL[ ]	/* CallFunction */";
};
width = 1350;
}
);
note = uni1002;
unicode = 4098;
}
{
glyphname = "gha-myanmar";
layers = (
{
anchors = (
{
name = bottom;
pos = (1138,0);
},
{
name = bottomright;
pos = (1616,0);
},
{
name = top;
pos = (1616,1118);
}
);
layerId = "78B30572-30A3-488A-B9E2-AAE684162724";
shapes = (
{
closed = 1;
nodes = (
(897,-24,o),
(1088,96,o),
(1163,309,c),
(1136,309,l),
(1215,102,o),
(1393,-24,o),
(1608,-24,cs),
(1929,-24,o),
(2126,201,o),
(2126,560,cs),
(2126,917,o),
(1918,1142,o),
(1587,1142,cs),
(1527,1142,o),
(1468,1132,o),
(1413,1113,c),
(1427,1070,l),
(1478,1088,o),
(1532,1097,o),
(1587,1097,cs),
(1889,1097,o),
(2080,889,o),
(2080,559,cs),
(2080,223,o),
(1900,21,o),
(1608,21,cs),
(1394,21,o),
(1224,160,o),
(1160,373,c),
(1162,312,l),
(1190,392,o),
(1204,496,o),
(1204,579,cs),
(1204,811,o),
(1098,1014,o),
(929,1142,c),
(896,1111,l),
(1059,985,o),
(1158,814,o),
(1158,579,cs),
(1158,214,o),
(964,21,o),
(634,21,cs),
(388,21,o),
(222,152,o),
(222,347,cs),
(222,609,o),
(534,763,o),
(534,973,cs),
(534,1091,o),
(454,1142,o),
(342,1142,cs),
(285,1142,o),
(215,1130,o),
(150,1102,c),
(162,1057,l),
(222,1083,o),
(283,1097,o),
(334,1097,cs),
(441,1097,o),
(488,1052,o),
(488,970,cs),
(488,776,o),
(176,626,o),
(176,345,cs),
(176,118,o),
(353,-24,o),
(634,-24,cs)
);
}
);
userData = {
assembly = "NPUSHB[ ]	/* 13 values pushed */
32 27 2 3 2 61 45 7 3 5 3 2 76 
MPPEM[ ]	/* MeasurePixelPerEm */
PUSHB[ ]	/* 1 value pushed */
23 
LT[ ]	/* LessThan */
IF[ ]	/* If */
NPUSHB[ ]	/* 31 values pushed */
0 3 2 5 2 3 114 7 1 2 2 4 97 0 4 4 37 77 6 1 5 5 0 97 1 1 0 0 38 0 78 
ELSE[ ]	/* Else */
NPUSHB[ ]	/* 32 values pushed */
0 3 2 5 2 3 5 128 7 1 2 2 4 97 0 4 4 37 77 6 1 5 5 0 97 1 1 0 0 38 0 78 
EIF[ ]	/* EndIf */
NPUSHB[ ]	/* 13 values pushed */
78 77 67 65 44 34 35 30 37 34 8 8 28 
CALL[ ]	/* CallFunction */";
};
width = 2276;
},
{
anchors = (
{
name = bottom;
pos = (1129,0);
},
{
name = bottomright;
pos = (1542,0);
},
{
name = top;
pos = (1542,1118);
}
);
layerId = m003;
shapes = (
{
closed = 1;
nodes = (
(942,-24,o),
(1175,106,o),
(1262,317,c),
(1058,317,l),
(1131,105,o),
(1335,-24,o),
(1605,-24,cs),
(1954,-24,o),
(2172,213,o),
(2172,570,cs),
(2172,921,o),
(1964,1142,o),
(1634,1142,cs),
(1538,1142,o),
(1447,1126,o),
(1385,1100,c),
(1455,834,l),
(1489,846,o),
(1533,853,o),
(1567,853,cs),
(1748,853,o),
(1806,710,o),
(1806,576,cs),
(1806,404,o),
(1710,296,o),
(1556,296,cs),
(1422,296,o),
(1321,373,o),
(1278,495,c),
(1297,426,l),
(1307,474,o),
(1312,526,o),
(1312,580,cs),
(1312,827,o),
(1200,1044,o),
(1022,1142,c),
(795,932,l),
(888,873,o),
(946,738,o),
(946,581,cs),
(946,406,o),
(846,296,o),
(680,296,cs),
(522,296,o),
(454,366,o),
(454,481,cs),
(454,654,o),
(616,743,o),
(616,926,cs),
(616,1093,o),
(475,1142,o),
(319,1142,cs),
(232,1142,o),
(144,1127,o),
(80,1102,c),
(132,860,l),
(153,870,o),
(183,876,o),
(204,876,cs),
(243,876,o),
(264,853,o),
(264,823,cs),
(264,740,o),
(105,664,o),
(105,424,cs),
(105,135,o),
(309,-24,o),
(640,-24,cs)
);
}
);
userData = {
assembly = "NPUSHB[ ]	/* 13 values pushed */
32 27 2 3 2 61 45 7 3 5 3 2 76 
MPPEM[ ]	/* MeasurePixelPerEm */
PUSHB[ ]	/* 1 value pushed */
23 
LT[ ]	/* LessThan */
IF[ ]	/* If */
NPUSHB[ ]	/* 31 values pushed */
0 3 2 5 2 3 114 7 1 2 2 4 97 0 4 4 37 77 6 1 5 5 0 97 1 1 0 0 38 0 78 
ELSE[ ]	/* Else */
NPUSHB[ ]	/* 32 values pushed */
0 3 2 5 2 3 5 128 7 1 2 2 4 97 0 4 4 37 77 6 1 5 5 0 97 1 1 0 0 38 0 78 
EIF[ ]	/* EndIf */
NPUSHB[ ]	/* 13 values pushed */
78 77 67 65 44 34 35 30 37 34 8 8 28 
CALL[ ]	/* CallFunction */";
};
width = 2258;
},
{
anchors = (
{
name = bottom;
pos = (1138,0);
},
{
name = bottomright;
pos = (1582,0);
},
{
name = top;
pos = (1582,1118);
}
);
hints = (
{
horizontal = 1;
origin = (0,67);
target = (0,42);
type = Stem;
},
{
horizontal = 1;
origin = (0,51);
target = (0,19);
type = Stem;
},
{
origin = (0,64);
target = (0,45);
type = Stem;
},
{
origin = (0,61);
target = (0,48);
type = Stem;
},
{
origin = (0,39);
target = (0,32);
type = Stem;
},
{
origin = (0,22);
target = (0,9);
type = Stem;
}
);
layerId = "F0604DE4-03AC-4980-9DDA-35F40FDF1E6E";
shapes = (
{
closed = 1;
nodes = (
(916,-24,o),
(1120,100,o),
(1200,312,c),
(1102,312,l),
(1179,103,o),
(1371,-24,o),
(1608,-24,cs),
(1941,-24,o),
(2146,206,o),
(2146,564,cs),
(2146,919,o),
(1938,1142,o),
(1607,1142,cs),
(1533,1142,o),
(1461,1130,o),
(1403,1108,c),
(1440,973,l),
(1484,988,o),
(1534,996,o),
(1581,996,cs),
(1834,996,o),
(1972,817,o),
(1972,566,cs),
(1972,295,o),
(1826,136,o),
(1589,136,cs),
(1407,136,o),
(1260,245,o),
(1205,422,c),
(1214,358,l),
(1234,425,o),
(1245,508,o),
(1245,579,cs),
(1245,817,o),
(1136,1026,o),
(964,1142,c),
(853,1039,l),
(988,940,o),
(1071,784,o),
(1071,580,cs),
(1071,291,o),
(917,136,o),
(653,136,cs),
(439,136,o),
(315,232,o),
(315,391,cs),
(315,593,o),
(556,732,o),
(556,944,cs),
(556,1082,o),
(450,1142,o),
(323,1142,cs),
(255,1142,o),
(179,1129,o),
(117,1102,c),
(145,975,l),
(186,994,o),
(235,1006,o),
(272,1006,cs),
(340,1006,o),
(382,969,o),
(382,911,cs),
(382,762,o),
(141,640,o),
(141,377,cs),
(141,126,o),
(325,-24,o),
(637,-24,cs)
);
}
);
userData = {
assembly = "NPUSHB[ ]	/* 13 values pushed */
32 27 2 3 2 61 45 7 3 5 3 2 76 
MPPEM[ ]	/* MeasurePixelPerEm */
PUSHB[ ]	/* 1 value pushed */
23 
LT[ ]	/* LessThan */
IF[ ]	/* If */
NPUSHB[ ]	/* 31 values pushed */
0 3 2 5 2 3 114 7 1 2 2 4 97 0 4 4 37 77 6 1 5 5 0 97 1 1 0 0 38 0 78 
ELSE[ ]	/* Else */
NPUSHB[ ]	/* 32 values pushed */
0 3 2 5 2 3 5 128 7 1 2 2 4 97 0 4 4 37 77 6 1 5 5 0 97 1 1 0 0 38 0 78 
EIF[ ]	/* EndIf */
NPUSHB[ ]	/* 13 values pushed */
78 77 67 65 44 34 35 30 37 34 8 8 28 
CALL[ ]	/* CallFunction */";
};
width = 2272;
}
);
note = uni1003;
unicode = 4099;
}
{
glyphname = "nga-myanmar";
layers = (
{
anchors = (
{
name = bottom;
pos = (684,0);
},
{
name = bottomright;
pos = (673,0);
},
{
name = top;
pos = (684,1118);
}
);
layerId = "78B30572-30A3-488A-B9E2-AAE684162724";
shapes = (
{
closed = 1;
nodes = (
(912,-24,o),
(1089,95,o),
(1170,309,c),
(1128,326,l),
(1056,130,o),
(894,21,o),
(678,21,cs),
(363,21,o),
(196,229,o),
(196,559,cs),
(196,889,o),
(363,1097,o),
(678,1097,cs),
(894,1097,o),
(1056,988,o),
(1128,792,c),
(1170,809,l),
(1089,1023,o),
(912,1142,o),
(678,1142,cs),
(335,1142,o),
(150,917,o),
(150,559,cs),
(150,201,o),
(335,-24,o),
(678,-24,cs)
);
}
);
userData = {
assembly = "NPUSHB[ ]	/* 37 values pushed */
0 2 3 4 3 2 4 128 0 3 3 1 97 0 1 1 37 77 0 4 4 0 97 0 0 0 38 0 78 36 34 21 36 33 5 8 27 
CALL[ ]	/* CallFunction */";
};
width = 1300;
},
{
anchors = (
{
name = bottom;
pos = (696,0);
},
{
name = bottomright;
pos = (696,0);
},
{
name = top;
pos = (703,1118);
}
);
layerId = m003;
shapes = (
{
closed = 1;
nodes = (
(1053,-24,o),
(1277,136,o),
(1302,390,c),
(986,472,l),
(966,364,o),
(865,296,o),
(723,296,cs),
(557,296,o),
(452,397,o),
(452,559,cs),
(452,721,o),
(557,822,o),
(723,822,cs),
(865,822,o),
(966,754,o),
(986,646,c),
(1302,728,l),
(1277,982,o),
(1053,1142,o),
(723,1142,cs),
(332,1142,o),
(86,917,o),
(86,559,cs),
(86,201,o),
(332,-24,o),
(723,-24,cs)
);
}
);
userData = {
assembly = "NPUSHB[ ]	/* 37 values pushed */
0 2 3 4 3 2 4 128 0 3 3 1 97 0 1 1 37 77 0 4 4 0 97 0 0 0 38 0 78 36 34 21 36 33 5 8 27 
CALL[ ]	/* CallFunction */";
};
width = 1368;
},
{
anchors = (
{
name = bottom;
pos = (713,0);
},
{
name = bottomright;
pos = (715,0);
},
{
name = top;
pos = (718,1118);
}
);
hints = (
{
horizontal = 1;
origin = (0,25);
target = (0,6);
type = Stem;
},
{
horizontal = 1;
origin = (0,19);
target = (0,12);
type = Stem;
},
{
origin = (0,22);
target = (0,9);
type = Stem;
}
);
layerId = "F0604DE4-03AC-4980-9DDA-35F40FDF1E6E";
shapes = (
{
closed = 1;
nodes = (
(962,-24,o),
(1150,103,o),
(1218,305,c),
(1067,348,l),
(1007,215,o),
(878,136,o),
(718,136,cs),
(463,136,o),
(302,296,o),
(302,559,cs),
(302,822,o),
(463,982,o),
(718,982,cs),
(878,982,o),
(1007,903,o),
(1067,770,c),
(1218,813,l),
(1150,1015,o),
(962,1142,o),
(718,1142,cs),
(356,1142,o),
(128,917,o),
(128,559,cs),
(128,201,o),
(356,-24,o),
(718,-24,cs)
);
}
);
userData = {
assembly = "NPUSHB[ ]	/* 37 values pushed */
0 2 3 4 3 2 4 128 0 3 3 1 97 0 1 1 37 77 0 4 4 0 97 0 0 0 38 0 78 36 34 21 36 33 5 8 27 
CALL[ ]	/* CallFunction */";
};
width = 1326;
}
);
note = uni1004;
unicode = 4100;
}
{
glyphname = "ca-myanmar";
layers = (
{
anchors = (
{
name = bottom;
pos = (660,0);
},
{
name = bottomright;
pos = (653,0);
},
{
name = top;
pos = (660,1118);
}
);
layerId = "78B30572-30A3-488A-B9E2-AAE684162724";
shapes = (
{
closed = 1;
nodes = (
(972,-24,o),
(1170,201,o),
(1170,559,cs),
(1170,917,o),
(972,1142,o),
(660,1142,cs),
(348,1142,o),
(150,917,o),
(150,559,cs),
(150,201,o),
(348,-24,o),
(660,-24,cs)
);
},
{
closed = 1;
nodes = (
(457,211,o),
(539,375,o),
(539,559,cs),
(539,743,o),
(457,907,o),
(327,983,c),
(297,954,l),
(416,882,o),
(492,732,o),
(492,559,cs),
(492,386,o),
(416,235,o),
(297,164,c),
(327,134,l)
);
},
{
closed = 1;
nodes = (
(376,21,o),
(196,229,o),
(196,559,cs),
(196,889,o),
(376,1097,o),
(660,1097,cs),
(944,1097,o),
(1124,889,o),
(1124,559,cs),
(1124,229,o),
(944,21,o),
(660,21,cs)
);
}
);
userData = {
assembly = "NPUSHB[ ]	/* 37 values pushed */
36 32 23 18 4 3 2 1 76 0 2 2 1 97 0 1 1 37 77 0 3 3 0 97 0 0 0 38 0 78 39 36 37 34 4 8 26 
CALL[ ]	/* CallFunction */";
};
width = 1320;
},
{
anchors = (
{
name = bottom;
pos = (694,0);
},
{
name = bottomright;
pos = (694,0);
},
{
name = top;
pos = (694,1118);
}
);
layerId = m003;
shapes = (
{
closed = 1;
nodes = (
(1067,-24,o),
(1302,201,o),
(1302,559,cs),
(1302,917,o),
(1067,1142,o),
(694,1142,cs),
(321,1142,o),
(86,917,o),
(86,559,cs),
(86,201,o),
(321,-24,o),
(694,-24,cs)
);
},
{
closed = 1;
nodes = (
(659,225,o),
(752,378,o),
(752,559,cs),
(752,741,o),
(659,893,o),
(493,981,c),
(350,863,l),
(485,796,o),
(560,687,o),
(560,559,cs),
(560,430,o),
(485,320,o),
(350,251,c),
(493,133,l)
);
},
{
closed = 1;
nodes = (
(520,269,o),
(410,381,o),
(410,559,cs),
(410,737,o),
(520,849,o),
(694,849,cs),
(856,849,o),
(958,737,o),
(958,559,cs),
(958,381,o),
(856,269,o),
(694,269,cs)
);
}
);
userData = {
assembly = "NPUSHB[ ]	/* 37 values pushed */
36 32 23 18 4 3 2 1 76 0 2 2 1 97 0 1 1 37 77 0 3 3 0 97 0 0 0 38 0 78 39 36 37 34 4 8 26 
CALL[ ]	/* CallFunction */";
};
width = 1388;
},
{
anchors = (
{
name = bottom;
pos = (675,0);
},
{
name = bottomright;
pos = (677,0);
},
{
name = top;
pos = (674,1118);
}
);
hints = (
{
horizontal = 1;
origin = (0,11);
target = (2,11);
type = Stem;
},
{
horizontal = 1;
origin = (0,5);
target = (2,5);
type = Stem;
},
{
origin = (0,8);
target = (2,2);
type = Stem;
},
{
origin = (1,9);
target = (1,2);
type = Stem;
},
{
origin = (2,8);
target = (0,2);
type = Stem;
}
);
layerId = "F0604DE4-03AC-4980-9DDA-35F40FDF1E6E";
shapes = (
{
closed = 1;
nodes = (
(1011,-24,o),
(1224,201,o),
(1224,559,cs),
(1224,917,o),
(1011,1142,o),
(674,1142,cs),
(338,1142,o),
(126,917,o),
(126,559,cs),
(126,201,o),
(338,-24,o),
(674,-24,cs)
);
},
{
closed = 1;
nodes = (
(582,193,o),
(671,359,o),
(671,559,cs),
(671,759,o),
(582,925,o),
(434,999,c),
(320,918,l),
(444,850,o),
(521,711,o),
(521,559,cs),
(521,407,o),
(444,268,o),
(320,200,c),
(434,119,l)
);
},
{
closed = 1;
nodes = (
(440,134,o),
(298,295,o),
(298,559,cs),
(298,823,o),
(440,984,o),
(672,984,cs),
(908,984,o),
(1052,823,o),
(1052,559,cs),
(1052,295,o),
(908,134,o),
(672,134,cs)
);
}
);
userData = {
assembly = "NPUSHB[ ]	/* 37 values pushed */
36 32 23 18 4 3 2 1 76 0 2 2 1 97 0 1 1 37 77 0 3 3 0 97 0 0 0 38 0 78 39 36 37 34 4 8 26 
CALL[ ]	/* CallFunction */";
};
width = 1350;
}
);
note = uni1005;
unicode = 4101;
}
{
glyphname = "cha-myanmar";
layers = (
{
anchors = (
{
name = bottom;
pos = (1138,0);
},
{
name = bottomright;
pos = (1616,0);
},
{
name = top;
pos = (1616,1118);
}
);
layerId = "78B30572-30A3-488A-B9E2-AAE684162724";
shapes = (
{
closed = 1;
nodes = (
(895,-24,o),
(1085,146,o),
(1142,396,c),
(1127,398,l),
(1175,134,o),
(1347,-24,o),
(1620,-24,cs),
(1945,-24,o),
(2126,201,o),
(2126,558,cs),
(2126,915,o),
(1945,1142,o),
(1620,1142,cs),
(1348,1142,o),
(1176,983,o),
(1128,721,c),
(1143,723,l),
(1086,975,o),
(895,1142,o),
(626,1142,cs),
(396,1142,o),
(240,1024,o),
(176,869,c),
(216,853,l),
(282,1005,o),
(428,1097,o),
(626,1097,cs),
(925,1097,o),
(1114,876,o),
(1114,560,cs),
(1114,257,o),
(931,21,o),
(632,21,cs),
(372,21,o),
(218,210,o),
(195,366,c),
(178,326,l),
(266,404,o),
(399,446,o),
(540,446,cs),
(716,446,o),
(912,362,o),
(1027,210,c),
(1051,252,l),
(935,396,o),
(740,488,o),
(552,488,cs),
(356,488,o),
(196,412,o),
(149,352,c),
(203,131,o),
(392,-24,o),
(632,-24,cs)
);
},
{
closed = 1;
nodes = (
(1326,21,o),
(1160,228,o),
(1160,558,cs),
(1160,888,o),
(1326,1097,o),
(1620,1097,cs),
(1915,1097,o),
(2080,888,o),
(2080,558,cs),
(2080,228,o),
(1915,21,o),
(1620,21,cs)
);
}
);
userData = {
assembly = "NPUSHB[ ]	/* 78 values pushed */
42 1 4 3 53 1 2 4 55 1 9 2 68 22 14 5 4 8 9 4 76 0 4 3 2 3 4 2 128 0 2 0 9 8 2 9 105 7 1 3 3 5 97 6 1 5 5 37 77 10 1 8 8 0 97 1 1 0 0 38 0 78 72 70 66 64 38 36 34 38 34 40 40 35 34 11 8 31 
CALL[ ]	/* CallFunction */";
};
width = 2276;
},
{
anchors = (
{
name = bottom;
pos = (1129,0);
},
{
name = bottomright;
pos = (1542,0);
},
{
name = top;
pos = (1542,1118);
}
);
layerId = m003;
shapes = (
{
closed = 1;
nodes = (
(910,-24,o),
(1067,77,o),
(1161,223,c),
(1064,223,l),
(1182,54,o),
(1375,-24,o),
(1568,-24,cs),
(1923,-24,o),
(2172,217,o),
(2172,559,cs),
(2172,901,o),
(1923,1142,o),
(1568,1142,cs),
(1375,1142,o),
(1182,1064,o),
(1064,895,c),
(1161,895,l),
(1068,1052,o),
(917,1142,o),
(672,1142,cs),
(367,1142,o),
(142,996,o),
(90,764,c),
(414,685,l),
(446,788,o),
(545,852,o),
(672,852,cs),
(833,852,o),
(934,739,o),
(934,559,cs),
(934,362,o),
(814,228,o),
(639,228,cs),
(507,228,o),
(405,299,o),
(376,412,c),
(358,341,l),
(415,377,o),
(501,400,o),
(594,400,cs),
(715,400,o),
(847,361,o),
(941,262,c),
(1062,371,l),
(959,495,o),
(760,573,o),
(545,573,cs),
(348,573,o),
(181,496,o),
(96,427,c),
(132,165,o),
(349,-24,o),
(676,-24,cs)
);
},
{
closed = 1;
nodes = (
(1400,296,o),
(1300,397,o),
(1300,559,cs),
(1300,721,o),
(1400,822,o),
(1553,822,cs),
(1706,822,o),
(1806,721,o),
(1806,559,cs),
(1806,397,o),
(1706,296,o),
(1553,296,cs)
);
}
);
userData = {
assembly = "NPUSHB[ ]	/* 78 values pushed */
42 1 4 3 53 1 2 4 55 1 9 2 68 22 14 5 4 8 9 4 76 0 4 3 2 3 4 2 128 0 2 0 9 8 2 9 105 7 1 3 3 5 97 6 1 5 5 37 77 10 1 8 8 0 97 1 1 0 0 38 0 78 72 70 66 64 38 36 34 38 34 40 40 35 34 11 8 31 
CALL[ ]	/* CallFunction */";
};
width = 2258;
},
{
anchors = (
{
name = bottom;
pos = (1138,0);
},
{
name = bottomright;
pos = (1582,0);
},
{
name = top;
pos = (1582,1118);
}
);
hints = (
{
horizontal = 1;
origin = (0,52);
target = (1,11);
type = Stem;
},
{
horizontal = 1;
origin = (0,39);
target = (0,46);
type = Stem;
},
{
horizontal = 1;
origin = (0,19);
target = (1,5);
type = Stem;
},
{
horizontal = 1;
origin = (0,19);
target = (0,26);
type = Stem;
},
{
horizontal = 1;
origin = (0,52);
target = (0,32);
type = Stem;
},
{
origin = (0,29);
target = (1,2);
type = Stem;
},
{
origin = (1,8);
target = (0,9);
type = Stem;
}
);
layerId = "F0604DE4-03AC-4980-9DDA-35F40FDF1E6E";
shapes = (
{
closed = 1;
nodes = (
(905,-24,o),
(1081,111,o),
(1152,328,c),
(1099,328,l),
(1175,102,o),
(1360,-24,o),
(1601,-24,cs),
(1938,-24,o),
(2146,207,o),
(2146,558,cs),
(2146,909,o),
(1938,1142,o),
(1601,1142,cs),
(1360,1142,o),
(1176,1015,o),
(1100,791,c),
(1153,791,l),
(1083,1009,o),
(905,1142,o),
(648,1142,cs),
(397,1142,o),
(198,1015,o),
(141,828,c),
(293,786,l),
(343,918,o),
(484,992,o),
(648,992,cs),
(881,992,o),
(1044,822,o),
(1044,560,cs),
(1044,292,o),
(874,120,o),
(638,120,cs),
(469,120,o),
(324,232,o),
(284,390,c),
(252,313,l),
(323,373,o),
(437,410,o),
(549,410,cs),
(724,410,o),
(889,328,o),
(978,198,c),
(1069,304,l),
(963,454,o),
(758,548,o),
(546,548,cs),
(369,548,o),
(205,489,o),
(125,408,c),
(171,152,o),
(383,-24,o),
(653,-24,cs)
);
},
{
closed = 1;
nodes = (
(1357,136,o),
(1218,296,o),
(1218,558,cs),
(1218,821,o),
(1357,982,o),
(1595,982,cs),
(1833,982,o),
(1972,821,o),
(1972,558,cs),
(1972,296,o),
(1833,136,o),
(1595,136,cs)
);
}
);
userData = {
assembly = "NPUSHB[ ]	/* 78 values pushed */
42 1 4 3 53 1 2 4 55 1 9 2 68 22 14 5 4 8 9 4 76 0 4 3 2 3 4 2 128 0 2 0 9 8 2 9 105 7 1 3 3 5 97 6 1 5 5 37 77 10 1 8 8 0 97 1 1 0 0 38 0 78 72 70 66 64 38 36 34 38 34 40 40 35 34 11 8 31 
CALL[ ]	/* CallFunction */";
};
width = 2272;
}
);
note = uni1006;
unicode = 4102;
}
{
glyphname = "ja-myanmar";
layers = (
{
anchors = (
{
name = bottom;
pos = (663,0);
},
{
name = bottomright;
pos = (663,0);
},
{
name = top;
pos = (698,1118);
}
);
layerId = "78B30572-30A3-488A-B9E2-AAE684162724";
shapes = (
{
closed = 1;
nodes = (
(910,-24,o),
(1096,89,o),
(1170,269,c),
(1128,286,l),
(1063,123,o),
(894,21,o),
(688,21,cs),
(386,21,o),
(196,228,o),
(196,557,cs),
(196,943,o),
(467,1097,o),
(717,1097,cs),
(933,1097,o),
(1102,981,o),
(1102,793,cs),
(1102,675,o),
(983,583,o),
(834,583,cs),
(693,583,o),
(625,653,o),
(625,724,cs),
(625,801,o),
(692,855,o),
(785,855,cs),
(974,855,o),
(1134,727,o),
(1265,470,c),
(1300,498,l),
(1160,765,o),
(987,897,o),
(782,897,cs),
(663,897,o),
(579,828,o),
(579,726,cs),
(579,632,o),
(662,539,o),
(833,539,cs),
(1007,539,o),
(1144,652,o),
(1144,796,cs),
(1144,1012,o),
(954,1142,o),
(715,1142,cs),
(443,1142,o),
(150,975,o),
(150,558,cs),
(150,200,o),
(358,-24,o),
(688,-24,cs)
);
}
);
userData = {
assembly = "NPUSHB[ ]	/* 19 values pushed */
18 1 8 2 68 64 55 11 5 0 6 1 8 39 1 6 4 3 76 
MPPEM[ ]	/* MeasurePixelPerEm */
PUSHB[ ]	/* 1 value pushed */
9 
LT[ ]	/* LessThan */
IF[ ]	/* If */
NPUSHB[ ]	/* 50 values pushed */
0 1 8 0 8 1 114 0 0 5 8 0 5 126 0 5 4 8 5 4 126 0 2 0 8 1 2 8 105 0 3 3 7 97 0 7 7 37 77 0 4 4 6 97 0 6 6 38 6 78 
ELSE[ ]	/* Else */
NPUSHB[ ]	/* 51 values pushed */
0 1 8 0 8 1 0 128 0 0 5 8 0 5 126 0 5 4 8 5 4 126 0 2 0 8 1 2 8 105 0 3 3 7 97 0 7 7 37 77 0 4 4 6 97 0 6 6 38 6 78 
EIF[ ]	/* EndIf */
NPUSHB[ ]	/* 12 values pushed */
43 36 37 19 38 40 38 19 33 9 8 31 
CALL[ ]	/* CallFunction */";
};
width = 1320;
},
{
anchors = (
{
name = bottom;
pos = (710,0);
},
{
name = bottomright;
pos = (710,0);
},
{
name = top;
pos = (718,1118);
}
);
layerId = m003;
shapes = (
{
closed = 1;
nodes = (
(865,-24,o),
(1021,4,o),
(1107,74,c),
(946,332,l),
(890,300,o),
(813,286,o),
(743,286,cs),
(551,286,o),
(452,434,o),
(452,585,cs),
(452,809,o),
(639,898,o),
(780,898,cs),
(956,898,o),
(1023,808,o),
(1023,722,cs),
(1023,641,o),
(965,559,o),
(867,559,cs),
(811,559,o),
(776,580,o),
(776,614,cs),
(776,648,o),
(806,669,o),
(853,669,cs),
(991,669,o),
(1096,521,o),
(1207,335,c),
(1382,466,l),
(1238,696,o),
(1029,840,o),
(840,840,cs),
(685,840,o),
(591,756,o),
(591,619,cs),
(591,491,o),
(696,400,o),
(874,400,cs),
(1124,400,o),
(1240,606,o),
(1240,736,cs),
(1240,978,o),
(1033,1142,o),
(710,1142,cs),
(351,1142,o),
(86,905,o),
(86,559,cs),
(86,208,o),
(339,-24,o),
(743,-24,cs)
);
}
);
width = 1388;
},
{
anchors = (
{
name = bottom;
pos = (715,0);
},
{
name = bottomright;
pos = (717,0);
},
{
name = top;
pos = (700,1118);
}
);
hints = (
{
horizontal = 1;
origin = (0,49);
target = (0,6);
type = Stem;
},
{
horizontal = 1;
origin = (0,37);
target = (0,18);
type = Stem;
},
{
horizontal = 1;
origin = (0,24);
target = (0,31);
type = Stem;
},
{
horizontal = 1;
origin = (0,43);
target = (0,12);
type = Stem;
},
{
origin = (0,46);
target = (0,9);
type = Stem;
}
);
layerId = "F0604DE4-03AC-4980-9DDA-35F40FDF1E6E";
shapes = (
{
closed = 1;
nodes = (
(933,-24,o),
(1070,54,o),
(1158,179,c),
(1068,292,l),
(998,194,o),
(882,136,o),
(730,136,cs),
(473,136,o),
(300,307,o),
(300,568,cs),
(300,822,o),
(479,1000,o),
(734,1000,cs),
(919,1000,o),
(1049,903,o),
(1049,765,cs),
(1049,661,o),
(958,585,o),
(849,585,cs),
(762,585,o),
(707,622,o),
(707,680,cs),
(707,736,o),
(751,771,o),
(822,771,cs),
(990,771,o),
(1120,645,o),
(1243,416,c),
(1347,495,l),
(1206,747,o),
(1030,884,o),
(815,884,cs),
(672,884,o),
(573,809,o),
(573,683,cs),
(573,560,o),
(681,469,o),
(851,469,cs),
(1059,469,o),
(1184,634,o),
(1184,772,cs),
(1184,998,o),
(984,1142,o),
(705,1142,cs),
(354,1142,o),
(126,913,o),
(126,558,cs),
(126,205,o),
(364,-24,o),
(730,-24,cs)
);
}
);
userData = {
assembly = "NPUSHB[ ]	/* 19 values pushed */
18 1 8 2 68 64 55 11 5 0 6 1 8 39 1 6 4 3 76 
MPPEM[ ]	/* MeasurePixelPerEm */
PUSHB[ ]	/* 1 value pushed */
9 
LT[ ]	/* LessThan */
IF[ ]	/* If */
NPUSHB[ ]	/* 50 values pushed */
0 1 8 0 8 1 114 0 0 5 8 0 5 126 0 5 4 8 5 4 126 0 2 0 8 1 2 8 105 0 3 3 7 97 0 7 7 37 77 0 4 4 6 97 0 6 6 38 6 78 
ELSE[ ]	/* Else */
NPUSHB[ ]	/* 51 values pushed */
0 1 8 0 8 1 0 128 0 0 5 8 0 5 126 0 5 4 8 5 4 126 0 2 0 8 1 2 8 105 0 3 3 7 97 0 7 7 37 77 0 4 4 6 97 0 6 6 38 6 78 
EIF[ ]	/* EndIf */
NPUSHB[ ]	/* 12 values pushed */
43 36 37 19 38 40 38 19 33 9 8 31 
CALL[ ]	/* CallFunction */";
};
width = 1350;
}
);
note = uni1007;
unicode = 4103;
}
{
glyphname = "jha-myanmar";
layers = (
{
anchors = (
{
name = bottom;
pos = (505,0);
},
{
name = bottomright;
pos = (510,0);
},
{
name = hamedial;
pos = (592,0);
},
{
name = hamedial_sh;
pos = (543,0);
},
{
name = top;
pos = (1086,1118);
},
{
name = wamedial;
pos = (512,0);
}
);
layerId = "78B30572-30A3-488A-B9E2-AAE684162724";
shapes = (
{
closed = 1;
nodes = (
(1542,-888,o),
(1672,-773,o),
(1672,-566,cs),
(1672,1118,l),
(1626,1118,l),
(1626,-565,ls),
(1626,-743,o),
(1512,-843,o),
(1309,-843,cs),
(1106,-843,o),
(992,-743,o),
(992,-565,cs),
(992,100,l),
(946,100,l),
(946,-566,ls),
(946,-773,o),
(1076,-888,o),
(1309,-888,cs)
);
},
{
closed = 1;
nodes = (
(972,-24,o),
(1170,201,o),
(1170,559,cs),
(1170,917,o),
(972,1142,o),
(660,1142,cs),
(348,1142,o),
(150,917,o),
(150,559,cs),
(150,201,o),
(348,-24,o),
(660,-24,cs)
);
},
{
closed = 1;
nodes = (
(457,211,o),
(539,375,o),
(539,559,cs),
(539,743,o),
(457,907,o),
(327,983,c),
(297,954,l),
(416,882,o),
(492,732,o),
(492,559,cs),
(492,386,o),
(416,235,o),
(297,164,c),
(327,134,l)
);
},
{
closed = 1;
nodes = (
(376,21,o),
(196,229,o),
(196,559,cs),
(196,889,o),
(376,1097,o),
(660,1097,cs),
(944,1097,o),
(1124,889,o),
(1124,559,cs),
(1124,229,o),
(944,21,o),
(660,21,cs)
);
}
);
userData = {
assembly = "NPUSHB[ ]	/* 18 values pushed */
62 58 49 44 4 6 5 25 9 2 1 6 26 1 3 1 3 76 
MPPEM[ ]	/* MeasurePixelPerEm */
PUSHB[ ]	/* 1 value pushed */
11 
LT[ ]	/* LessThan */
IF[ ]	/* If */
NPUSHB[ ]	/* 36 values pushed */
0 4 4 37 77 0 5 5 2 97 0 2 2 37 77 0 6 6 1 97 0 1 1 38 77 0 3 3 0 97 0 0 0 40 0 78 
ELSE[ ]	/* Else */
MPPEM[ ]	/* MeasurePixelPerEm */
PUSHB[ ]	/* 1 value pushed */
17 
LT[ ]	/* LessThan */
IF[ ]	/* If */
NPUSHB[ ]	/* 32 values pushed */
0 5 5 2 97 4 1 2 2 37 77 0 6 6 1 97 0 1 1 38 77 0 3 3 0 97 0 0 0 40 0 78 
ELSE[ ]	/* Else */
MPPEM[ ]	/* MeasurePixelPerEm */
PUSHB[ ]	/* 1 value pushed */
43 
LT[ ]	/* LessThan */
IF[ ]	/* If */
NPUSHB[ ]	/* 36 values pushed */
0 4 4 37 77 0 5 5 2 97 0 2 2 37 77 0 6 6 1 97 0 1 1 38 77 0 3 3 0 97 0 0 0 40 0 78 
ELSE[ ]	/* Else */
MPPEM[ ]	/* MeasurePixelPerEm */
PUSHB[ ]	/* 1 value pushed */
49 
LT[ ]	/* LessThan */
IF[ ]	/* If */
NPUSHB[ ]	/* 36 values pushed */
0 4 2 4 133 0 5 5 2 97 0 2 2 37 77 0 6 6 1 97 0 1 1 38 77 0 3 3 0 97 0 0 0 40 0 78 
ELSE[ ]	/* Else */
NPUSHB[ ]	/* 33 values pushed */
0 4 2 4 133 0 3 0 0 3 0 101 0 5 5 2 97 0 2 2 37 77 0 6 6 1 97 0 1 1 38 1 78 
EIF[ ]	/* EndIf */
EIF[ ]	/* EndIf */
EIF[ ]	/* EndIf */
EIF[ ]	/* EndIf */
NPUSHB[ ]	/* 10 values pushed */
39 36 36 42 37 37 35 7 8 29 
CALL[ ]	/* CallFunction */";
};
width = 1842;
},
{
anchors = (
{
name = bottom;
pos = (470,0);
},
{
name = bottomright;
pos = (479,0);
},
{
name = hamedial;
pos = (557,0);
},
{
name = hamedial_sh;
pos = (507,0);
},
{
name = top;
pos = (1232,1118);
},
{
name = wamedial;
pos = (467,0);
}
);
layerId = m003;
shapes = (
{
closed = 1;
nodes = (
(1714,-888,o),
(1914,-725,o),
(1914,-482,cs),
(1914,1118,l),
(1574,1118,l),
(1574,-447,ls),
(1574,-555,o),
(1505,-623,o),
(1396,-623,cs),
(1287,-623,o),
(1218,-555,o),
(1218,-447,cs),
(1218,298,l),
(888,298,l),
(888,-482,ls),
(888,-725,o),
(1084,-888,o),
(1396,-888,cs)
);
},
{
closed = 1;
nodes = (
(1066,-24,o),
(1302,201,o),
(1302,559,cs),
(1302,917,o),
(1066,1142,o),
(691,1142,cs),
(319,1142,o),
(86,917,o),
(86,559,cs),
(86,201,o),
(319,-24,o),
(691,-24,cs)
);
},
{
closed = 1;
nodes = (
(659,225,o),
(752,378,o),
(752,559,cs),
(752,741,o),
(659,893,o),
(493,981,c),
(350,863,l),
(485,796,o),
(560,687,o),
(560,559,cs),
(560,430,o),
(485,320,o),
(350,251,c),
(493,133,l)
);
},
{
closed = 1;
nodes = (
(517,269,o),
(410,381,o),
(410,559,cs),
(410,737,o),
(517,849,o),
(687,849,cs),
(854,849,o),
(958,737,o),
(958,559,cs),
(958,381,o),
(854,269,o),
(687,269,cs)
);
}
);
userData = {
assembly = "NPUSHB[ ]	/* 18 values pushed */
62 58 49 44 4 6 5 25 9 2 1 6 26 1 3 1 3 76 
MPPEM[ ]	/* MeasurePixelPerEm */
PUSHB[ ]	/* 1 value pushed */
11 
LT[ ]	/* LessThan */
IF[ ]	/* If */
NPUSHB[ ]	/* 36 values pushed */
0 4 4 37 77 0 5 5 2 97 0 2 2 37 77 0 6 6 1 97 0 1 1 38 77 0 3 3 0 97 0 0 0 40 0 78 
ELSE[ ]	/* Else */
MPPEM[ ]	/* MeasurePixelPerEm */
PUSHB[ ]	/* 1 value pushed */
17 
LT[ ]	/* LessThan */
IF[ ]	/* If */
NPUSHB[ ]	/* 32 values pushed */
0 5 5 2 97 4 1 2 2 37 77 0 6 6 1 97 0 1 1 38 77 0 3 3 0 97 0 0 0 40 0 78 
ELSE[ ]	/* Else */
MPPEM[ ]	/* MeasurePixelPerEm */
PUSHB[ ]	/* 1 value pushed */
43 
LT[ ]	/* LessThan */
IF[ ]	/* If */
NPUSHB[ ]	/* 36 values pushed */
0 4 4 37 77 0 5 5 2 97 0 2 2 37 77 0 6 6 1 97 0 1 1 38 77 0 3 3 0 97 0 0 0 40 0 78 
ELSE[ ]	/* Else */
MPPEM[ ]	/* MeasurePixelPerEm */
PUSHB[ ]	/* 1 value pushed */
49 
LT[ ]	/* LessThan */
IF[ ]	/* If */
NPUSHB[ ]	/* 36 values pushed */
0 4 2 4 133 0 5 5 2 97 0 2 2 37 77 0 6 6 1 97 0 1 1 38 77 0 3 3 0 97 0 0 0 40 0 78 
ELSE[ ]	/* Else */
NPUSHB[ ]	/* 33 values pushed */
0 4 2 4 133 0 3 0 0 3 0 101 0 5 5 2 97 0 2 2 37 77 0 6 6 1 97 0 1 1 38 1 78 
EIF[ ]	/* EndIf */
EIF[ ]	/* EndIf */
EIF[ ]	/* EndIf */
EIF[ ]	/* EndIf */
NPUSHB[ ]	/* 10 values pushed */
39 36 36 42 37 37 35 7 8 29 
CALL[ ]	/* CallFunction */";
};
width = 2030;
},
{
anchors = (
{
name = bottom;
pos = (503,0);
},
{
name = bottomright;
pos = (510,0);
},
{
name = hamedial;
pos = (591,0);
},
{
name = hamedial_sh;
pos = (541,0);
},
{
name = top;
pos = (1170,1118);
},
{
name = wamedial;
pos = (494,0);
}
);
hints = (
{
horizontal = 1;
origin = (0,17);
target = (0,8);
type = Stem;
},
{
horizontal = 1;
origin = (1,11);
target = (3,11);
type = Stem;
},
{
horizontal = 1;
origin = (1,5);
target = (3,5);
type = Stem;
},
{
horizontal = 1;
origin = (0,4);
target = down;
type = TopGhost;
},
{
origin = (1,8);
target = (3,2);
type = Stem;
},
{
origin = (2,9);
target = (2,2);
type = Stem;
},
{
origin = (0,14);
target = (0,12);
type = Stem;
},
{
origin = (0,3);
target = (0,5);
type = Stem;
},
{
origin = (3,8);
target = (1,2);
type = Stem;
}
);
layerId = "F0604DE4-03AC-4980-9DDA-35F40FDF1E6E";
shapes = (
{
closed = 1;
nodes = (
(1659,-888,o),
(1800,-738,o),
(1800,-514,cs),
(1800,1118,l),
(1628,1118,l),
(1628,-496,ls),
(1628,-645,o),
(1552,-748,o),
(1368,-748,cs),
(1184,-748,o),
(1108,-645,o),
(1108,-496,cs),
(1108,201,l),
(944,201,l),
(944,-514,ls),
(944,-738,o),
(1085,-888,o),
(1372,-888,cs)
);
},
{
closed = 1;
nodes = (
(1011,-24,o),
(1224,201,o),
(1224,559,cs),
(1224,917,o),
(1011,1142,o),
(674,1142,cs),
(338,1142,o),
(126,917,o),
(126,559,cs),
(126,201,o),
(338,-24,o),
(674,-24,cs)
);
},
{
closed = 1;
nodes = (
(582,193,o),
(671,359,o),
(671,559,cs),
(671,759,o),
(582,925,o),
(434,999,c),
(320,918,l),
(444,850,o),
(521,711,o),
(521,559,cs),
(521,407,o),
(444,268,o),
(320,200,c),
(434,119,l)
);
},
{
closed = 1;
nodes = (
(440,134,o),
(298,295,o),
(298,559,cs),
(298,823,o),
(440,984,o),
(672,984,cs),
(908,984,o),
(1052,823,o),
(1052,559,cs),
(1052,295,o),
(908,134,o),
(672,134,cs)
);
}
);
userData = {
assembly = "NPUSHB[ ]	/* 18 values pushed */
62 58 49 44 4 6 5 25 9 2 1 6 26 1 3 1 3 76 
MPPEM[ ]	/* MeasurePixelPerEm */
PUSHB[ ]	/* 1 value pushed */
11 
LT[ ]	/* LessThan */
IF[ ]	/* If */
NPUSHB[ ]	/* 36 values pushed */
0 4 4 37 77 0 5 5 2 97 0 2 2 37 77 0 6 6 1 97 0 1 1 38 77 0 3 3 0 97 0 0 0 40 0 78 
ELSE[ ]	/* Else */
MPPEM[ ]	/* MeasurePixelPerEm */
PUSHB[ ]	/* 1 value pushed */
17 
LT[ ]	/* LessThan */
IF[ ]	/* If */
NPUSHB[ ]	/* 32 values pushed */
0 5 5 2 97 4 1 2 2 37 77 0 6 6 1 97 0 1 1 38 77 0 3 3 0 97 0 0 0 40 0 78 
ELSE[ ]	/* Else */
MPPEM[ ]	/* MeasurePixelPerEm */
PUSHB[ ]	/* 1 value pushed */
43 
LT[ ]	/* LessThan */
IF[ ]	/* If */
NPUSHB[ ]	/* 36 values pushed */
0 4 4 37 77 0 5 5 2 97 0 2 2 37 77 0 6 6 1 97 0 1 1 38 77 0 3 3 0 97 0 0 0 40 0 78 
ELSE[ ]	/* Else */
MPPEM[ ]	/* MeasurePixelPerEm */
PUSHB[ ]	/* 1 value pushed */
49 
LT[ ]	/* LessThan */
IF[ ]	/* If */
NPUSHB[ ]	/* 36 values pushed */
0 4 2 4 133 0 5 5 2 97 0 2 2 37 77 0 6 6 1 97 0 1 1 38 77 0 3 3 0 97 0 0 0 40 0 78 
ELSE[ ]	/* Else */
NPUSHB[ ]	/* 33 values pushed */
0 4 2 4 133 0 3 0 0 3 0 101 0 5 5 2 97 0 2 2 37 77 0 6 6 1 97 0 1 1 38 1 78 
EIF[ ]	/* EndIf */
EIF[ ]	/* EndIf */
EIF[ ]	/* EndIf */
EIF[ ]	/* EndIf */
NPUSHB[ ]	/* 10 values pushed */
39 36 36 42 37 37 35 7 8 29 
CALL[ ]	/* CallFunction */";
};
width = 1990;
}
);
note = uni1008;
unicode = 4104;
}
{
glyphname = "nya-myanmar";
kernLeft = "nya-myanmar";
layers = (
{
anchors = (
{
name = bottom;
pos = (750,0);
},
{
name = dotbelow;
pos = (736,0);
},
{
name = hamedial_sh;
pos = (1129,0);
},
{
name = top;
pos = (638,1118);
}
);
layerId = "78B30572-30A3-488A-B9E2-AAE684162724";
shapes = (
{
closed = 1;
nodes = (
(1823,-888,ls),
(1992,-888,o),
(2098,-784,o),
(2098,-618,cs),
(2098,-337,l),
(2053,-337,l),
(2053,-618,ls),
(2053,-756,o),
(1963,-843,o),
(1823,-843,cs),
(445,-843,ls),
(305,-843,o),
(216,-756,o),
(216,-618,cs),
(216,198,l),
(202,198,l),
(300,60,o),
(456,-24,o),
(641,-24,cs),
(957,-24,o),
(1190,222,o),
(1190,559,cs),
(1190,896,o),
(957,1142,o),
(641,1142,cs),
(434,1142,o),
(264,1037,o),
(170,869,c),
(212,852,l),
(298,1003,o),
(451,1097,o),
(641,1097,cs),
(935,1097,o),
(1144,873,o),
(1144,559,cs),
(1144,245,o),
(935,21,o),
(641,21,cs),
(451,21,o),
(298,115,o),
(212,266,c),
(170,249,l),
(170,-618,ls),
(170,-784,o),
(276,-888,o),
(445,-888,cs)
);
}
);
userData = {
assembly = "NPUSHB[ ]	/* 11 values pushed */
41 1 6 2 42 0 2 7 8 2 76 
MPPEM[ ]	/* MeasurePixelPerEm */
PUSHB[ ]	/* 1 value pushed */
15 
LT[ ]	/* LessThan */
IF[ ]	/* If */
NPUSHB[ ]	/* 53 values pushed */
0 4 3 1 3 4 1 128 0 1 2 3 1 2 126 0 8 6 7 7 8 114 0 3 3 5 97 0 5 5 37 77 0 2 2 6 97 0 6 6 38 77 0 7 7 0 96 0 0 0 40 0 78 
ELSE[ ]	/* Else */
NPUSHB[ ]	/* 54 values pushed */
0 4 3 1 3 4 1 128 0 1 2 3 1 2 126 0 8 6 7 6 8 7 128 0 3 3 5 97 0 5 5 37 77 0 2 2 6 97 0 6 6 38 77 0 7 7 0 96 0 0 0 40 0 78 
EIF[ ]	/* EndIf */
NPUSHB[ ]	/* 12 values pushed */
34 55 36 36 19 36 36 20 50 9 8 31 
CALL[ ]	/* CallFunction */";
};
width = 1340;
},
{
anchors = (
{
name = bottom;
pos = (920,0);
},
{
name = dotbelow;
pos = (890,0);
},
{
name = hamedial_sh;
pos = (1133,0);
},
{
name = top;
pos = (688,1118);
}
);
layerId = m003;
shapes = (
{
closed = 1;
nodes = (
(1721,-888,ls),
(2042,-888,o),
(2221,-709,o),
(2221,-388,cs),
(2221,-327,l),
(1931,-327,l),
(1931,-383,ls),
(1931,-534,o),
(1852,-618,o),
(1701,-618,cs),
(690,-618,ls),
(549,-618,o),
(470,-534,o),
(470,-383,cs),
(470,145,l),
(375,123,l),
(470,31,o),
(588,-24,o),
(729,-24,cs),
(1089,-24,o),
(1326,207,o),
(1326,559,cs),
(1326,919,o),
(1080,1142,o),
(689,1142,cs),
(364,1142,o),
(141,982,o),
(110,728,c),
(426,646,l),
(446,754,o),
(547,822,o),
(689,822,cs),
(855,822,o),
(960,721,o),
(960,559,cs),
(960,397,o),
(855,296,o),
(689,296,cs),
(577,296,o),
(476,354,o),
(456,442,c),
(140,360,l),
(140,-388,ls),
(140,-709,o),
(319,-888,o),
(640,-888,cs)
);
}
);
userData = {
assembly = "NPUSHB[ ]	/* 11 values pushed */
41 1 6 2 42 0 2 7 8 2 76 
MPPEM[ ]	/* MeasurePixelPerEm */
PUSHB[ ]	/* 1 value pushed */
15 
LT[ ]	/* LessThan */
IF[ ]	/* If */
NPUSHB[ ]	/* 53 values pushed */
0 4 3 1 3 4 1 128 0 1 2 3 1 2 126 0 8 6 7 7 8 114 0 3 3 5 97 0 5 5 37 77 0 2 2 6 97 0 6 6 38 77 0 7 7 0 96 0 0 0 40 0 78 
ELSE[ ]	/* Else */
NPUSHB[ ]	/* 54 values pushed */
0 4 3 1 3 4 1 128 0 1 2 3 1 2 126 0 8 6 7 6 8 7 128 0 3 3 5 97 0 5 5 37 77 0 2 2 6 97 0 6 6 38 77 0 7 7 0 96 0 0 0 40 0 78 
EIF[ ]	/* EndIf */
NPUSHB[ ]	/* 12 values pushed */
34 55 36 36 19 36 36 20 50 9 8 31 
CALL[ ]	/* CallFunction */";
};
width = 1412;
},
{
anchors = (
{
name = bottom;
pos = (820,0);
},
{
name = dotbelow;
pos = (815,0);
},
{
name = hamedial_sh;
pos = (1133,0);
},
{
name = top;
pos = (662,1118);
}
);
hints = (
{
horizontal = 1;
origin = (0,45);
target = (0,10);
type = Stem;
},
{
horizontal = 1;
origin = (0,18);
target = (0,37);
type = Stem;
},
{
horizontal = 1;
origin = (0,24);
target = (0,31);
type = Stem;
},
{
origin = (0,42);
target = (0,14);
type = Stem;
},
{
origin = (0,34);
target = (0,21);
type = Stem;
},
{
origin = (0,6);
target = (0,4);
type = Stem;
}
);
layerId = "F0604DE4-03AC-4980-9DDA-35F40FDF1E6E";
shapes = (
{
closed = 1;
nodes = (
(1787,-888,ls),
(2017,-888,o),
(2152,-754,o),
(2152,-526,cs),
(2152,-333,l),
(1992,-333,l),
(1992,-520,ls),
(1992,-663,o),
(1919,-734,o),
(1779,-734,cs),
(547,-734,ls),
(407,-734,o),
(326,-663,o),
(326,-520,cs),
(326,177,l),
(275,168,l),
(372,48,o),
(513,-24,o),
(680,-24,cs),
(1014,-24,o),
(1248,216,o),
(1248,559,cs),
(1248,905,o),
(1010,1142,o),
(664,1142,cs),
(410,1142,o),
(219,1015,o),
(150,813,c),
(302,770,l),
(361,903,o),
(493,982,o),
(664,982,cs),
(907,982,o),
(1074,812,o),
(1074,559,cs),
(1074,306,o),
(907,136,o),
(664,136,cs),
(505,136,o),
(373,211,o),
(314,336,c),
(162,293,l),
(162,-526,ls),
(162,-754,o),
(297,-888,o),
(527,-888,cs)
);
}
);
userData = {
assembly = "NPUSHB[ ]	/* 11 values pushed */
41 1 6 2 42 0 2 7 8 2 76 
MPPEM[ ]	/* MeasurePixelPerEm */
PUSHB[ ]	/* 1 value pushed */
15 
LT[ ]	/* LessThan */
IF[ ]	/* If */
NPUSHB[ ]	/* 53 values pushed */
0 4 3 1 3 4 1 128 0 1 2 3 1 2 126 0 8 6 7 7 8 114 0 3 3 5 97 0 5 5 37 77 0 2 2 6 97 0 6 6 38 77 0 7 7 0 96 0 0 0 40 0 78 
ELSE[ ]	/* Else */
NPUSHB[ ]	/* 54 values pushed */
0 4 3 1 3 4 1 128 0 1 2 3 1 2 126 0 8 6 7 6 8 7 128 0 3 3 5 97 0 5 5 37 77 0 2 2 6 97 0 6 6 38 77 0 7 7 0 96 0 0 0 40 0 78 
EIF[ ]	/* EndIf */
NPUSHB[ ]	/* 12 values pushed */
34 55 36 36 19 36 36 20 50 9 8 31 
CALL[ ]	/* CallFunction */";
};
width = 1374;
}
);
note = uni1009;
unicode = 4105;
}
{
glyphname = "nnya-myanmar";
kernLeft = "nya-myanmar";
layers = (
{
anchors = (
{
name = hamedial_sh;
pos = (1617,0);
},
{
name = top;
pos = (1616,1118);
}
);
layerId = "78B30572-30A3-488A-B9E2-AAE684162724";
shapes = (
{
closed = 1;
nodes = (
(1871,-888,ls),
(2040,-888,o),
(2146,-784,o),
(2146,-618,cs),
(2146,-337,l),
(2100,-337,l),
(2100,-618,ls),
(2100,-756,o),
(2011,-843,o),
(1871,-843,cs),
(445,-843,ls),
(305,-843,o),
(216,-756,o),
(216,-618,cs),
(216,198,l),
(202,198,l),
(300,60,o),
(456,-24,o),
(641,-24,cs),
(957,-24,o),
(1190,222,o),
(1190,559,cs),
(1190,896,o),
(957,1142,o),
(641,1142,cs),
(434,1142,o),
(264,1037,o),
(170,869,c),
(212,852,l),
(298,1003,o),
(451,1097,o),
(641,1097,cs),
(935,1097,o),
(1144,873,o),
(1144,559,cs),
(1144,245,o),
(935,21,o),
(641,21,cs),
(451,21,o),
(298,115,o),
(212,266,c),
(170,249,l),
(170,-618,ls),
(170,-784,o),
(276,-888,o),
(445,-888,cs)
);
},
{
closed = 1;
nodes = (
(1935,-24,o),
(2146,206,o),
(2146,563,cs),
(2146,919,o),
(1948,1142,o),
(1632,1142,cs),
(1550,1142,o),
(1467,1129,o),
(1412,1105,c),
(1428,1063,l),
(1480,1084,o),
(1568,1096,o),
(1632,1096,cs),
(1918,1096,o),
(2100,892,o),
(2100,563,cs),
(2100,235,o),
(1906,21,o),
(1601,21,cs),
(1357,21,o),
(1204,176,o),
(1143,321,c),
(1111,283,l),
(1193,102,o),
(1381,-24,o),
(1601,-24,cs)
);
}
);
userData = {
assembly = "NPUSHB[ ]	/* 18 values pushed */
52 1 4 3 70 1 2 1 76 1 8 2 0 1 10 11 4 76 
MPPEM[ ]	/* MeasurePixelPerEm */
PUSHB[ ]	/* 1 value pushed */
15 
LT[ ]	/* LessThan */
IF[ ]	/* If */
NPUSHB[ ]	/* 56 values pushed */
0 4 3 1 3 4 1 128 0 1 2 3 1 2 126 0 11 8 10 10 11 114 0 3 3 5 97 7 1 5 5 37 77 6 1 2 2 8 98 9 1 8 8 38 77 0 10 10 0 96 0 0 0 40 0 78 
ELSE[ ]	/* Else */
NPUSHB[ ]	/* 57 values pushed */
0 4 3 1 3 4 1 128 0 1 2 3 1 2 126 0 11 8 10 8 11 10 128 0 3 3 5 97 7 1 5 5 37 77 6 1 2 2 8 98 9 1 8 8 38 77 0 10 10 0 96 0 0 0 40 0 78 
EIF[ ]	/* EndIf */
NPUSHB[ ]	/* 20 values pushed */
87 85 83 81 74 72 67 65 59 58 39 36 34 36 35 21 50 12 8 29 
CALL[ ]	/* CallFunction */";
};
width = 2296;
},
{
anchors = (
{
name = hamedial_sh;
pos = (1621,0);
},
{
name = top;
pos = (1542,1118);
}
);
layerId = m003;
shapes = (
{
closed = 1;
nodes = (
(1721,-888,ls),
(2042,-888,o),
(2221,-709,o),
(2221,-388,cs),
(2221,-327,l),
(1931,-327,l),
(1931,-383,ls),
(1931,-534,o),
(1852,-618,o),
(1701,-618,cs),
(690,-618,ls),
(549,-618,o),
(470,-534,o),
(470,-383,cs),
(470,145,l),
(375,123,l),
(470,31,o),
(588,-24,o),
(729,-24,cs),
(1089,-24,o),
(1326,207,o),
(1326,559,cs),
(1326,919,o),
(1080,1142,o),
(689,1142,cs),
(364,1142,o),
(141,982,o),
(110,728,c),
(426,646,l),
(446,754,o),
(547,822,o),
(689,822,cs),
(855,822,o),
(960,721,o),
(960,559,cs),
(960,397,o),
(855,296,o),
(689,296,cs),
(577,296,o),
(476,354,o),
(456,442,c),
(140,360,l),
(140,-388,ls),
(140,-709,o),
(319,-888,o),
(640,-888,cs)
);
},
{
closed = 1;
nodes = (
(1978,-24,o),
(2196,213,o),
(2196,570,cs),
(2196,921,o),
(1988,1142,o),
(1658,1142,cs),
(1562,1142,o),
(1471,1126,o),
(1409,1100,c),
(1479,834,l),
(1516,847,o),
(1553,853,o),
(1588,853,cs),
(1720,853,o),
(1830,763,o),
(1830,576,cs),
(1830,403,o),
(1734,296,o),
(1580,296,cs),
(1448,296,o),
(1335,373,o),
(1292,495,c),
(1072,317,l),
(1145,105,o),
(1359,-24,o),
(1629,-24,cs)
);
}
);
userData = {
assembly = "NPUSHB[ ]	/* 18 values pushed */
52 1 4 3 70 1 2 1 76 1 8 2 0 1 10 11 4 76 
MPPEM[ ]	/* MeasurePixelPerEm */
PUSHB[ ]	/* 1 value pushed */
15 
LT[ ]	/* LessThan */
IF[ ]	/* If */
NPUSHB[ ]	/* 56 values pushed */
0 4 3 1 3 4 1 128 0 1 2 3 1 2 126 0 11 8 10 10 11 114 0 3 3 5 97 7 1 5 5 37 77 6 1 2 2 8 98 9 1 8 8 38 77 0 10 10 0 96 0 0 0 40 0 78 
ELSE[ ]	/* Else */
NPUSHB[ ]	/* 57 values pushed */
0 4 3 1 3 4 1 128 0 1 2 3 1 2 126 0 11 8 10 8 11 10 128 0 3 3 5 97 7 1 5 5 37 77 6 1 2 2 8 98 9 1 8 8 38 77 0 10 10 0 96 0 0 0 40 0 78 
EIF[ ]	/* EndIf */
NPUSHB[ ]	/* 20 values pushed */
87 85 83 81 74 72 67 65 59 58 39 36 34 36 35 21 50 12 8 29 
CALL[ ]	/* CallFunction */";
};
width = 2282;
},
{
anchors = (
{
name = hamedial_sh;
pos = (1621,0);
},
{
name = top;
pos = (1582,1118);
}
);
hints = (
{
horizontal = 1;
origin = (0,45);
target = (0,10);
type = Stem;
},
{
horizontal = 1;
origin = (1,25);
target = (1,18);
type = Stem;
},
{
horizontal = 1;
origin = (1,5);
target = (0,31);
type = Stem;
},
{
origin = (0,42);
target = (0,14);
type = Stem;
},
{
origin = (0,34);
target = (0,21);
type = Stem;
},
{
origin = (0,6);
target = (0,4);
type = Stem;
},
{
origin = (1,15);
target = (1,2);
type = Stem;
}
);
layerId = "F0604DE4-03AC-4980-9DDA-35F40FDF1E6E";
shapes = (
{
closed = 1;
nodes = (
(1815,-888,ls),
(2045,-888,o),
(2180,-754,o),
(2180,-526,cs),
(2180,-333,l),
(2020,-333,l),
(2020,-520,ls),
(2020,-663,o),
(1947,-734,o),
(1807,-734,cs),
(547,-734,ls),
(407,-734,o),
(326,-663,o),
(326,-520,cs),
(326,177,l),
(275,168,l),
(372,48,o),
(513,-24,o),
(680,-24,cs),
(1014,-24,o),
(1248,216,o),
(1248,559,cs),
(1248,905,o),
(1010,1142,o),
(664,1142,cs),
(410,1142,o),
(219,1015,o),
(150,813,c),
(302,770,l),
(361,903,o),
(493,982,o),
(664,982,cs),
(907,982,o),
(1074,812,o),
(1074,559,cs),
(1074,306,o),
(907,136,o),
(664,136,cs),
(505,136,o),
(373,211,o),
(314,336,c),
(162,293,l),
(162,-526,ls),
(162,-754,o),
(297,-888,o),
(527,-888,cs)
);
},
{
closed = 1;
nodes = (
(1956,-24,o),
(2170,209,o),
(2170,566,cs),
(2170,920,o),
(1968,1142,o),
(1646,1142,cs),
(1559,1142,o),
(1473,1128,o),
(1415,1103,c),
(1452,968,l),
(1498,986,o),
(1566,996,o),
(1618,996,cs),
(1843,996,o),
(1996,840,o),
(1996,568,cs),
(1996,302,o),
(1841,136,o),
(1597,136,cs),
(1397,136,o),
(1260,255,o),
(1207,391,c),
(1099,297,l),
(1178,103,o),
(1376,-24,o),
(1616,-24,cs)
);
}
);
userData = {
assembly = "NPUSHB[ ]	/* 18 values pushed */
52 1 4 3 70 1 2 1 76 1 8 2 0 1 10 11 4 76 
MPPEM[ ]	/* MeasurePixelPerEm */
PUSHB[ ]	/* 1 value pushed */
15 
LT[ ]	/* LessThan */
IF[ ]	/* If */
NPUSHB[ ]	/* 56 values pushed */
0 4 3 1 3 4 1 128 0 1 2 3 1 2 126 0 11 8 10 10 11 114 0 3 3 5 97 7 1 5 5 37 77 6 1 2 2 8 98 9 1 8 8 38 77 0 10 10 0 96 0 0 0 40 0 78 
ELSE[ ]	/* Else */
NPUSHB[ ]	/* 57 values pushed */
0 4 3 1 3 4 1 128 0 1 2 3 1 2 126 0 11 8 10 8 11 10 128 0 3 3 5 97 7 1 5 5 37 77 6 1 2 2 8 98 9 1 8 8 38 77 0 10 10 0 96 0 0 0 40 0 78 
EIF[ ]	/* EndIf */
NPUSHB[ ]	/* 20 values pushed */
87 85 83 81 74 72 67 65 59 58 39 36 34 36 35 21 50 12 8 29 
CALL[ ]	/* CallFunction */";
};
width = 2296;
}
);
note = uni100A;
unicode = 4106;
}
{
glyphname = "tta-myanmar";
layers = (
{
anchors = (
{
name = bottom;
pos = (699,-561);
},
{
name = hamedial_sh;
pos = (665,-561);
},
{
name = top;
pos = (699,1118);
},
{
name = wamedial;
pos = (709,-561);
}
);
layerId = "78B30572-30A3-488A-B9E2-AAE684162724";
shapes = (
{
closed = 1;
nodes = (
(1390,-888,l),
(1390,-843,l),
(1170,-843,l),
(1170,-471,l),
(1124,-471,l),
(1002,-527,o),
(890,-553,o),
(728,-553,cs),
(528,-553,o),
(322,-514,o),
(212,-457,c),
(233,-504,l),
(233,-116,l),
(206,-140,l),
(307,-235,o),
(475,-287,o),
(688,-287,cs),
(897,-287,o),
(1081,-237,o),
(1170,-153,c),
(1170,249,l),
(1128,266,l),
(1042,115,o),
(888,21,o),
(699,21,cs),
(405,21,o),
(196,245,o),
(196,559,cs),
(196,873,o),
(405,1097,o),
(699,1097,cs),
(888,1097,o),
(1042,1003,o),
(1128,852,c),
(1170,869,l),
(1076,1037,o),
(906,1142,o),
(699,1142,cs),
(383,1142,o),
(150,896,o),
(150,559,cs),
(150,222,o),
(383,-24,o),
(699,-24,cs),
(887,-24,o),
(1043,63,o),
(1142,203,c),
(1125,203,l),
(1125,-155,l),
(1138,-121,l),
(1059,-195,o),
(889,-242,o),
(696,-242,cs),
(472,-242,o),
(292,-182,o),
(230,-89,c),
(188,-89,l),
(188,-497,l),
(312,-556,o),
(535,-598,o),
(724,-598,cs),
(881,-598,o),
(1019,-568,o),
(1125,-515,c),
(1125,-888,l)
);
}
);
userData = {
assembly = "NPUSHB[ ]	/* 125 values pushed */
34 1 8 6 52 1 7 8 23 1 2 7 22 1 4 2 60 1 11 3 61 1 10 9 6 1 1 10 0 1 0 12 8 76 0 8 6 7 6 8 7 128 0 2 7 4 7 2 4 128 0 11 3 9 3 11 9 128 0 3 0 9 10 3 9 105 0 10 0 1 12 10 1 105 0 6 6 5 97 0 5 5 37 77 0 7 7 4 97 0 4 4 38 77 0 12 12 0 96 0 0 0 40 0 78 74 72 70 69 66 64 59 57 19 36 38 37 36 34 37 35 49 13 8 31 
CALL[ ]	/* CallFunction */";
};
width = 1320;
},
{
anchors = (
{
name = bottom;
pos = (558,-581);
},
{
name = hamedial_sh;
pos = (526,-581);
},
{
name = top;
pos = (723,1118);
},
{
name = wamedial;
pos = (573,-581);
}
);
layerId = m003;
shapes = (
{
closed = 1;
nodes = (
(1456,-888,l),
(1456,-648,l),
(1236,-648,l),
(1236,-387,l),
(926,-387,l),
(805,-422,o),
(680,-429,o),
(573,-429,cs),
(518,-429,o),
(460,-425,o),
(414,-416,c),
(463,-466,l),
(463,-281,l),
(400,-297,l),
(489,-311,o),
(653,-323,o),
(789,-323,cs),
(996,-323,o),
(1182,-291,o),
(1272,-240,c),
(1272,360,l),
(956,442,l),
(936,354,o),
(835,296,o),
(723,296,cs),
(557,296,o),
(452,397,o),
(452,559,cs),
(452,721,o),
(557,822,o),
(723,822,cs),
(865,822,o),
(966,754,o),
(986,646,c),
(1302,728,l),
(1271,982,o),
(1048,1142,o),
(723,1142,cs),
(332,1142,o),
(86,919,o),
(86,559,cs),
(86,207,o),
(323,-24,o),
(683,-24,cs),
(824,-24,o),
(942,31,o),
(1037,123,c),
(942,145,l),
(942,-139,l),
(1000,-67,l),
(915,-93,o),
(826,-102,o),
(743,-102,cs),
(621,-102,o),
(476,-80,o),
(420,-44,c),
(133,-44,l),
(133,-620,l),
(274,-652,o),
(406,-668,o),
(539,-668,cs),
(666,-668,o),
(793,-654,o),
(926,-626,c),
(926,-888,l)
);
}
);
width = 1388;
},
{
anchors = (
{
name = bottom;
pos = (652,-567);
},
{
name = hamedial_sh;
pos = (633,-567);
},
{
name = top;
pos = (710,1118);
},
{
name = wamedial;
pos = (662,-567);
}
);
hints = (
{
horizontal = 1;
origin = (0,64);
target = (0,2);
type = Stem;
},
{
horizontal = 1;
origin = (0,60);
target = (0,7);
type = Stem;
},
{
horizontal = 1;
origin = (0,16);
target = (0,52);
type = Stem;
},
{
horizontal = 1;
origin = (0,43);
target = (0,24);
type = Stem;
},
{
horizontal = 1;
origin = (0,37);
target = (0,30);
type = Stem;
},
{
origin = (0,40);
target = (0,27);
type = Stem;
},
{
origin = (0,48);
target = (0,20);
type = Stem;
}
);
layerId = "F0604DE4-03AC-4980-9DDA-35F40FDF1E6E";
shapes = (
{
closed = 1;
nodes = (
(1408,-888,l),
(1408,-766,l),
(1198,-766,l),
(1198,-434,l),
(1046,-434,l),
(925,-482,o),
(808,-500,o),
(668,-500,cs),
(526,-500,o),
(379,-475,o),
(294,-438,c),
(328,-489,l),
(328,-182,l),
(285,-206,l),
(381,-268,o),
(548,-304,o),
(730,-304,cs),
(938,-304,o),
(1123,-262,o),
(1212,-191,c),
(1212,293,l),
(1061,336,l),
(1001,211,o),
(868,136,o),
(710,136,cs),
(467,136,o),
(300,306,o),
(300,559,cs),
(300,812,o),
(467,982,o),
(710,982,cs),
(880,982,o),
(1013,903,o),
(1073,770,c),
(1224,813,l),
(1156,1015,o),
(964,1142,o),
(710,1142,cs),
(364,1142,o),
(126,905,o),
(126,559,cs),
(126,216,o),
(361,-24,o),
(694,-24,cs),
(862,-24,o),
(1002,48,o),
(1099,168,c),
(1052,177,l),
(1052,-149,l),
(1084,-99,l),
(1003,-154,o),
(865,-186,o),
(716,-186,cs),
(533,-186,o),
(367,-141,o),
(308,-71,c),
(168,-71,l),
(168,-546,l),
(298,-594,o),
(485,-626,o),
(652,-626,cs),
(797,-626,o),
(927,-602,o),
(1044,-559,c),
(1044,-888,l)
);
}
);
userData = {
assembly = "NPUSHB[ ]	/* 125 values pushed */
34 1 8 6 52 1 7 8 23 1 2 7 22 1 4 2 60 1 11 3 61 1 10 9 6 1 1 10 0 1 0 12 8 76 0 8 6 7 6 8 7 128 0 2 7 4 7 2 4 128 0 11 3 9 3 11 9 128 0 3 0 9 10 3 9 105 0 10 0 1 12 10 1 105 0 6 6 5 97 0 5 5 37 77 0 7 7 4 97 0 4 4 38 77 0 12 12 0 96 0 0 0 40 0 78 74 72 70 69 66 64 59 57 19 36 38 37 36 34 37 35 49 13 8 31 
CALL[ ]	/* CallFunction */";
};
width = 1350;
}
);
note = uni100B;
unicode = 4107;
}
{
glyphname = "dda-myanmar";
layers = (
{
anchors = (
{
name = bottom;
pos = (616,-252);
},
{
name = bottomright;
pos = (617,-252);
},
{
name = hamedial_sh;
pos = (602,-302);
},
{
name = top;
pos = (621,1118);
},
{
name = wamedial;
pos = (594,-252);
}
);
layerId = "78B30572-30A3-488A-B9E2-AAE684162724";
shapes = (
{
closed = 1;
nodes = (
(1352,-888,l),
(1352,-843,l),
(1132,-843,l),
(1132,-89,l),
(1090,-89,l),
(1025,-188,o),
(832,-257,o),
(624,-257,cs),
(444,-257,o),
(270,-204,o),
(182,-121,c),
(196,-155,l),
(196,224,l),
(178,203,l),
(276,63,o),
(433,-24,o),
(621,-24,cs),
(937,-24,o),
(1170,222,o),
(1170,559,cs),
(1170,896,o),
(937,1142,o),
(621,1142,cs),
(414,1142,o),
(244,1037,o),
(150,869,c),
(192,852,l),
(278,1003,o),
(431,1097,o),
(621,1097,cs),
(915,1097,o),
(1124,873,o),
(1124,559,cs),
(1124,245,o),
(915,21,o),
(621,21,cs),
(431,21,o),
(278,115,o),
(192,266,c),
(150,249,l),
(150,-153,l),
(245,-243,o),
(437,-302,o),
(632,-302,cs),
(827,-302,o),
(1004,-243,o),
(1114,-140,c),
(1087,-116,l),
(1087,-888,l)
);
}
);
userData = {
assembly = "NPUSHB[ ]	/* 88 values pushed */
13 1 2 4 44 1 6 2 45 10 2 7 8 2 1 1 7 4 76 0 4 3 2 3 4 2 128 0 8 6 7 6 8 7 128 0 7 0 1 9 7 1 105 0 3 3 5 97 0 5 5 37 77 0 2 2 6 97 0 6 6 38 77 0 9 9 0 96 0 0 0 40 0 78 56 55 35 35 36 37 35 36 43 35 16 10 8 31 
CALL[ ]	/* CallFunction */";
};
width = 1320;
},
{
anchors = (
{
name = bottom;
pos = (589,-368);
},
{
name = bottomright;
pos = (569,-368);
},
{
name = hamedial_sh;
pos = (598,-368);
},
{
name = top;
pos = (665,1118);
},
{
name = wamedial;
pos = (471,-371);
}
);
layerId = m003;
shapes = (
{
closed = 1;
nodes = (
(1450,-888,l),
(1450,-648,l),
(1230,-648,l),
(1230,-126,l),
(914,-126,l),
(853,-155,o),
(768,-171,o),
(677,-171,cs),
(569,-171,o),
(482,-149,o),
(391,-97,c),
(446,-155,l),
(446,145,l),
(351,123,l),
(446,31,o),
(564,-24,o),
(705,-24,cs),
(1065,-24,o),
(1302,207,o),
(1302,559,cs),
(1302,919,o),
(1056,1142,o),
(665,1142,cs),
(340,1142,o),
(117,982,o),
(86,728,c),
(402,646,l),
(422,754,o),
(523,822,o),
(665,822,cs),
(831,822,o),
(936,721,o),
(936,559,cs),
(936,397,o),
(831,296,o),
(665,296,cs),
(553,296,o),
(452,354,o),
(432,442,c),
(126,361,l),
(126,-283,l),
(240,-374,o),
(442,-431,o),
(650,-431,cs),
(761,-431,o),
(881,-414,o),
(932,-392,c),
(910,-356,l),
(910,-888,l)
);
}
);
userData = {
assembly = "NPUSHB[ ]	/* 88 values pushed */
13 1 2 4 44 1 6 2 45 10 2 7 8 2 1 1 7 4 76 0 4 3 2 3 4 2 128 0 8 6 7 6 8 7 128 0 7 0 1 9 7 1 105 0 3 3 5 97 0 5 5 37 77 0 2 2 6 97 0 6 6 38 77 0 9 9 0 96 0 0 0 40 0 78 56 55 35 35 36 37 35 36 43 35 16 10 8 31 
CALL[ ]	/* CallFunction */";
};
width = 1388;
},
{
anchors = (
{
name = bottom;
pos = (596,-300);
},
{
name = bottomright;
pos = (596,-300);
},
{
name = hamedial_sh;
pos = (608,-323);
},
{
name = top;
pos = (680,1118);
},
{
name = wamedial;
pos = (580,-300);
}
);
hints = (
{
horizontal = 1;
origin = (0,48);
target = (0,2);
type = Stem;
},
{
horizontal = 1;
origin = (0,43);
target = (0,7);
type = Stem;
},
{
horizontal = 1;
origin = (0,16);
target = (0,35);
type = Stem;
},
{
horizontal = 1;
origin = (0,22);
target = (0,29);
type = Stem;
},
{
origin = (0,40);
target = (0,12);
type = Stem;
},
{
origin = (0,48);
target = (0,3);
type = Stem;
},
{
origin = (0,32);
target = (0,19);
type = Stem;
}
);
layerId = "F0604DE4-03AC-4980-9DDA-35F40FDF1E6E";
shapes = (
{
closed = 1;
nodes = (
(1383,-888,l),
(1383,-752,l),
(1173,-752,l),
(1173,-104,l),
(1021,-104,l),
(958,-175,o),
(808,-223,o),
(647,-223,cs),
(496,-223,o),
(356,-182,o),
(267,-111,c),
(302,-155,l),
(302,192,l),
(249,171,l),
(346,50,o),
(487,-24,o),
(656,-24,cs),
(990,-24,o),
(1224,216,o),
(1224,559,cs),
(1224,905,o),
(986,1142,o),
(640,1142,cs),
(386,1142,o),
(195,1015,o),
(126,813,c),
(278,770,l),
(337,903,o),
(469,982,o),
(640,982,cs),
(883,982,o),
(1050,812,o),
(1050,559,cs),
(1050,306,o),
(883,136,o),
(640,136,cs),
(481,136,o),
(349,211,o),
(290,336,c),
(142,294,l),
(142,-206,l),
(245,-296,o),
(441,-355,o),
(641,-355,cs),
(802,-355,o),
(956,-312,o),
(1043,-242,c),
(1009,-212,l),
(1009,-888,l)
);
}
);
userData = {
assembly = "NPUSHB[ ]	/* 88 values pushed */
13 1 2 4 44 1 6 2 45 10 2 7 8 2 1 1 7 4 76 0 4 3 2 3 4 2 128 0 8 6 7 6 8 7 128 0 7 0 1 9 7 1 105 0 3 3 5 97 0 5 5 37 77 0 2 2 6 97 0 6 6 38 77 0 9 9 0 96 0 0 0 40 0 78 56 55 35 35 36 37 35 36 43 35 16 10 8 31 
CALL[ ]	/* CallFunction */";
};
width = 1350;
}
);
note = uni100D;
unicode = 4109;
}
{
glyphname = "ddha-myanmar";
layers = (
{
anchors = (
{
name = bottom;
pos = (649,0);
},
{
name = bottomright;
pos = (653,0);
},
{
name = top;
pos = (682,1118);
}
);
layerId = "78B30572-30A3-488A-B9E2-AAE684162724";
shapes = (
{
closed = 1;
nodes = (
(922,-24,o),
(1170,117,o),
(1170,578,cs),
(1170,846,o),
(1068,1014,o),
(906,1142,c),
(872,1111,l),
(1028,985,o),
(1124,836,o),
(1124,578,cs),
(1124,147,o),
(898,21,o),
(642,21,cs),
(427,21,o),
(220,122,o),
(220,347,cs),
(220,600,o),
(519,763,o),
(519,973,cs),
(519,1091,o),
(443,1142,o),
(335,1142,cs),
(280,1142,o),
(212,1130,o),
(150,1102,c),
(162,1057,l),
(217,1082,o),
(275,1097,o),
(326,1097,cs),
(429,1097,o),
(474,1052,o),
(474,970,cs),
(474,776,o),
(174,637,o),
(174,345,cs),
(174,93,o),
(405,-24,o),
(645,-24,cs)
);
}
);
userData = {
assembly = "NPUSHB[ ]	/* 11 values pushed */
25 16 2 2 1 39 1 4 2 2 76 
MPPEM[ ]	/* MeasurePixelPerEm */
PUSHB[ ]	/* 1 value pushed */
23 
LT[ ]	/* LessThan */
IF[ ]	/* If */
NPUSHB[ ]	/* 28 values pushed */
0 2 1 4 1 2 114 0 1 1 3 97 0 3 3 37 77 0 4 4 0 97 0 0 0 38 0 78 
ELSE[ ]	/* Else */
NPUSHB[ ]	/* 29 values pushed */
0 2 1 4 1 2 4 128 0 1 1 3 97 0 3 3 37 77 0 4 4 0 97 0 0 0 38 0 78 
EIF[ ]	/* EndIf */
PUSHB[ ]	/* 8 values pushed */
45 35 34 31 34 5 8 27 
CALL[ ]	/* CallFunction */";
};
width = 1320;
},
{
anchors = (
{
name = bottom;
pos = (676,0);
},
{
name = bottomright;
pos = (676,0);
},
{
name = top;
pos = (683,1118);
}
);
layerId = m003;
shapes = (
{
closed = 1;
nodes = (
(1077,-24,o),
(1302,208,o),
(1302,578,cs),
(1302,789,o),
(1198,1007,o),
(1033,1142,c),
(785,943,l),
(888,867,o),
(952,723,o),
(952,594,cs),
(952,417,o),
(861,296,o),
(684,296,cs),
(526,296,o),
(444,366,o),
(444,481,cs),
(444,654,o),
(626,743,o),
(626,926,cs),
(626,1093,o),
(475,1142,o),
(319,1142,cs),
(232,1142,o),
(144,1127,o),
(80,1102,c),
(132,860,l),
(153,870,o),
(183,876,o),
(204,876,cs),
(243,876,o),
(264,853,o),
(264,823,cs),
(264,740,o),
(105,667,o),
(105,424,cs),
(105,138,o),
(342,-24,o),
(677,-24,cs)
);
}
);
userData = {
assembly = "NPUSHB[ ]	/* 11 values pushed */
25 16 2 2 1 39 1 4 2 2 76 
MPPEM[ ]	/* MeasurePixelPerEm */
PUSHB[ ]	/* 1 value pushed */
23 
LT[ ]	/* LessThan */
IF[ ]	/* If */
NPUSHB[ ]	/* 28 values pushed */
0 2 1 4 1 2 114 0 1 1 3 97 0 3 3 37 77 0 4 4 0 97 0 0 0 38 0 78 
ELSE[ ]	/* Else */
NPUSHB[ ]	/* 29 values pushed */
0 2 1 4 1 2 4 128 0 1 1 3 97 0 3 3 37 77 0 4 4 0 97 0 0 0 38 0 78 
EIF[ ]	/* EndIf */
PUSHB[ ]	/* 8 values pushed */
45 35 34 31 34 5 8 27 
CALL[ ]	/* CallFunction */";
};
width = 1388;
},
{
anchors = (
{
name = bottom;
pos = (675,0);
},
{
name = bottomright;
pos = (677,0);
},
{
name = top;
pos = (660,1118);
}
);
hints = (
{
horizontal = 1;
origin = (0,37);
target = (0,12);
type = Stem;
},
{
horizontal = 1;
origin = (0,21);
target = (0,28);
type = Stem;
},
{
origin = (0,34);
target = (0,15);
type = Stem;
},
{
origin = (0,31);
target = (0,18);
type = Stem;
},
{
origin = (0,9);
target = (0,2);
type = Stem;
}
);
layerId = "F0604DE4-03AC-4980-9DDA-35F40FDF1E6E";
shapes = (
{
closed = 1;
nodes = (
(1020,-24,o),
(1224,197,o),
(1224,578,cs),
(1224,794,o),
(1121,1012,o),
(958,1142,c),
(836,1034,l),
(967,928,o),
(1050,755,o),
(1050,584,cs),
(1050,293,o),
(915,136,o),
(671,136,cs),
(457,136,o),
(322,232,o),
(322,391,cs),
(322,593,o),
(563,732,o),
(563,944,cs),
(563,1082,o),
(457,1142,o),
(330,1142,cs),
(262,1142,o),
(186,1129,o),
(124,1102,c),
(152,975,l),
(193,994,o),
(242,1006,o),
(279,1006,cs),
(347,1006,o),
(389,969,o),
(389,911,cs),
(389,762,o),
(148,640,o),
(148,377,cs),
(148,126,o),
(356,-24,o),
(668,-24,cs)
);
}
);
userData = {
assembly = "NPUSHB[ ]	/* 11 values pushed */
25 16 2 2 1 39 1 4 2 2 76 
MPPEM[ ]	/* MeasurePixelPerEm */
PUSHB[ ]	/* 1 value pushed */
23 
LT[ ]	/* LessThan */
IF[ ]	/* If */
NPUSHB[ ]	/* 28 values pushed */
0 2 1 4 1 2 114 0 1 1 3 97 0 3 3 37 77 0 4 4 0 97 0 0 0 38 0 78 
ELSE[ ]	/* Else */
NPUSHB[ ]	/* 29 values pushed */
0 2 1 4 1 2 4 128 0 1 1 3 97 0 3 3 37 77 0 4 4 0 97 0 0 0 38 0 78 
EIF[ ]	/* EndIf */
PUSHB[ ]	/* 8 values pushed */
45 35 34 31 34 5 8 27 
CALL[ ]	/* CallFunction */";
};
width = 1350;
}
);
note = uni100E;
unicode = 4110;
}
{
glyphname = "nna-myanmar";
layers = (
{
anchors = (
{
name = bottom;
pos = (1222,0);
},
{
name = bottomright;
pos = (1784,0);
},
{
name = top;
pos = (1784,1118);
}
);
layerId = "78B30572-30A3-488A-B9E2-AAE684162724";
shapes = (
{
closed = 1;
nodes = (
(556,-24,o),
(594,-17,o),
(633,1,c),
(621,42,l),
(587,28,o),
(556,21,o),
(526,21,cs),
(323,21,o),
(196,223,o),
(196,545,cs),
(196,899,o),
(352,1097,o),
(632,1097,cs),
(867,1097,o),
(1042,890,o),
(1042,602,cs),
(1042,485,o),
(978,293,o),
(978,198,cs),
(978,62,o),
(1072,-24,o),
(1222,-24,cs),
(1372,-24,o),
(1466,62,o),
(1466,198,cs),
(1466,293,o),
(1402,485,o),
(1402,602,cs),
(1402,890,o),
(1577,1097,o),
(1812,1097,cs),
(2092,1097,o),
(2248,899,o),
(2248,545,cs),
(2248,209,o),
(2112,21,o),
(1868,21,cs),
(1838,21,o),
(1807,28,o),
(1773,42,c),
(1761,1,l),
(1800,-17,o),
(1838,-24,o),
(1873,-24,cs),
(2143,-24,o),
(2294,180,o),
(2294,545,cs),
(2294,928,o),
(2122,1142,o),
(1814,1142,cs),
(1567,1142,o),
(1358,943,o),
(1358,596,cs),
(1358,498,o),
(1421,291,o),
(1421,209,cs),
(1421,87,o),
(1352,21,o),
(1222,21,cs),
(1092,21,o),
(1023,87,o),
(1023,209,cs),
(1023,291,o),
(1086,498,o),
(1086,596,cs),
(1086,943,o),
(877,1142,o),
(630,1142,cs),
(322,1142,o),
(150,928,o),
(150,545,cs),
(150,195,o),
(293,-24,o),
(521,-24,cs)
);
},
{
closed = 1;
nodes = (
(1023,1056,o),
(1123,1102,o),
(1222,1102,cs),
(1321,1102,o),
(1421,1056,o),
(1475,936,c),
(1497,977,l),
(1440,1096,o),
(1333,1142,o),
(1222,1142,cs),
(1111,1142,o),
(1004,1096,o),
(947,977,c),
(969,936,l)
);
}
);
userData = {
assembly = "MPPEM[ ]	/* MeasurePixelPerEm */
PUSHB[ ]	/* 1 value pushed */
29 
LT[ ]	/* LessThan */
IF[ ]	/* If */
NPUSHB[ ]	/* 24 values pushed */
83 79 2 3 9 109 103 102 96 94 91 90 41 33 9 1 3 62 11 2 0 1 3 76 
ELSE[ ]	/* Else */
NPUSHB[ ]	/* 24 values pushed */
83 79 2 3 9 109 103 102 96 94 91 90 41 33 9 1 3 62 11 2 0 2 3 76 
EIF[ ]	/* EndIf */
MPPEM[ ]	/* MeasurePixelPerEm */
PUSHB[ ]	/* 1 value pushed */
29 
LT[ ]	/* LessThan */
IF[ ]	/* If */
NPUSHB[ ]	/* 31 values pushed */
12 5 2 3 3 9 97 11 10 2 9 9 37 77 13 7 6 2 4 1 1 0 97 8 4 2 0 0 38 0 78 
ELSE[ ]	/* Else */
NPUSHB[ ]	/* 38 values pushed */
7 1 1 3 2 3 1 2 128 12 5 2 3 3 9 97 11 10 2 9 9 37 77 13 6 2 2 2 0 97 8 4 2 0 0 38 0 78 
EIF[ ]	/* EndIf */
NPUSHB[ ]	/* 22 values pushed */
112 110 101 99 87 85 82 80 76 74 21 17 38 43 44 38 33 21 37 14 8 31 
CALL[ ]	/* CallFunction */";
};
width = 2444;
},
{
anchors = (
{
name = bottom;
pos = (1446,0);
},
{
name = bottomright;
pos = (2176,0);
},
{
name = top;
pos = (2176,1118);
}
);
layerId = m003;
shapes = (
{
closed = 1;
nodes = (
(720,-24,o),
(811,-8,o),
(873,18,c),
(801,294,l),
(767,282,o),
(725,275,o),
(691,275,cs),
(510,275,o),
(444,408,o),
(444,542,cs),
(444,722,o),
(550,822,o),
(741,822,cs),
(936,822,o),
(1073,704,o),
(1073,536,cs),
(1073,476,o),
(1061,402,o),
(1061,327,cs),
(1061,107,o),
(1222,-22,o),
(1446,-22,cs),
(1670,-22,o),
(1831,107,o),
(1831,327,cs),
(1831,402,o),
(1819,476,o),
(1819,536,cs),
(1819,704,o),
(1956,822,o),
(2151,822,cs),
(2342,822,o),
(2448,722,o),
(2448,542,cs),
(2448,408,o),
(2382,275,o),
(2201,275,cs),
(2167,275,o),
(2125,282,o),
(2091,294,c),
(2019,18,l),
(2081,-8,o),
(2172,-24,o),
(2268,-24,cs),
(2598,-24,o),
(2806,190,o),
(2806,548,cs),
(2806,913,o),
(2566,1142,o),
(2185,1142,cs),
(1832,1142,o),
(1534,995,o),
(1534,626,cs),
(1534,546,o),
(1544,417,o),
(1544,355,cs),
(1544,282,o),
(1502,247,o),
(1446,247,cs),
(1390,247,o),
(1348,282,o),
(1348,355,cs),
(1348,417,o),
(1358,546,o),
(1358,626,cs),
(1358,995,o),
(1060,1142,o),
(707,1142,cs),
(326,1142,o),
(86,913,o),
(86,548,cs),
(86,190,o),
(294,-24,o),
(624,-24,cs)
);
},
{
closed = 1;
nodes = (
(1293,852,o),
(1364,889,o),
(1446,889,cs),
(1528,889,o),
(1599,852,o),
(1629,793,c),
(1784,935,l),
(1714,1073,o),
(1602,1142,o),
(1446,1142,cs),
(1290,1142,o),
(1178,1073,o),
(1108,935,c),
(1263,793,l)
);
}
);
width = 2892;
},
{
anchors = (
{
name = bottom;
pos = (1377,0);
},
{
name = bottomright;
pos = (2064,0);
},
{
name = top;
pos = (2064,1118);
}
);
hints = (
{
horizontal = 1;
origin = (0,73);
target = (0,36);
type = Stem;
},
{
horizontal = 1;
origin = (1,9);
target = (0,30);
type = Stem;
},
{
horizontal = 1;
origin = (0,21);
target = (0,58);
type = Stem;
},
{
horizontal = 1;
origin = (1,9);
target = (1,2);
type = Stem;
},
{
origin = (0,70);
target = (0,9);
type = Stem;
},
{
origin = (0,15);
target = (0,64);
type = Stem;
},
{
origin = (0,52);
target = (0,27);
type = Stem;
},
{
origin = (0,33);
target = (0,46);
type = Stem;
}
);
layerId = "F0604DE4-03AC-4980-9DDA-35F40FDF1E6E";
shapes = (
{
closed = 1;
nodes = (
(650,-24,o),
(712,-13,o),
(764,8,c),
(726,142,l),
(690,129,o),
(652,122,o),
(619,122,cs),
(414,122,o),
(300,297,o),
(300,544,cs),
(300,828,o),
(450,982,o),
(707,982,cs),
(940,982,o),
(1085,825,o),
(1085,576,cs),
(1085,481,o),
(1040,337,o),
(1040,250,cs),
(1040,82,o),
(1169,-23,o),
(1377,-23,cs),
(1584,-23,o),
(1715,82,o),
(1715,250,cs),
(1715,337,o),
(1669,481,o),
(1669,576,cs),
(1669,825,o),
(1814,982,o),
(2047,982,cs),
(2305,982,o),
(2454,828,o),
(2454,544,cs),
(2454,297,o),
(2340,122,o),
(2136,122,cs),
(2102,122,o),
(2065,129,o),
(2029,142,c),
(1991,8,l),
(2042,-13,o),
(2104,-24,o),
(2167,-24,cs),
(2450,-24,o),
(2628,193,o),
(2628,546,cs),
(2628,922,o),
(2418,1142,o),
(2063,1142,cs),
(1758,1142,o),
(1500,964,o),
(1500,608,cs),
(1500,517,o),
(1544,341,o),
(1544,267,cs),
(1544,165,o),
(1483,111,o),
(1377,111,cs),
(1271,111,o),
(1210,165,o),
(1210,267,cs),
(1210,341,o),
(1254,517,o),
(1254,608,cs),
(1254,964,o),
(996,1142,o),
(691,1142,cs),
(336,1142,o),
(126,922,o),
(126,546,cs),
(126,193,o),
(304,-24,o),
(588,-24,cs)
);
},
{
closed = 1;
nodes = (
(1170,923,o),
(1261,978,o),
(1377,978,cs),
(1493,978,o),
(1583,923,o),
(1644,840,c),
(1719,978,l),
(1640,1082,o),
(1521,1142,o),
(1377,1142,cs),
(1232,1142,o),
(1113,1082,o),
(1034,978,c),
(1109,840,l)
);
}
);
userData = {
assembly = "MPPEM[ ]	/* MeasurePixelPerEm */
PUSHB[ ]	/* 1 value pushed */
29 
LT[ ]	/* LessThan */
IF[ ]	/* If */
NPUSHB[ ]	/* 24 values pushed */
83 79 2 3 9 109 103 102 96 94 91 90 41 33 9 1 3 62 11 2 0 1 3 76 
ELSE[ ]	/* Else */
NPUSHB[ ]	/* 24 values pushed */
83 79 2 3 9 109 103 102 96 94 91 90 41 33 9 1 3 62 11 2 0 2 3 76 
EIF[ ]	/* EndIf */
MPPEM[ ]	/* MeasurePixelPerEm */
PUSHB[ ]	/* 1 value pushed */
29 
LT[ ]	/* LessThan */
IF[ ]	/* If */
NPUSHB[ ]	/* 31 values pushed */
12 5 2 3 3 9 97 11 10 2 9 9 37 77 13 7 6 2 4 1 1 0 97 8 4 2 0 0 38 0 78 
ELSE[ ]	/* Else */
NPUSHB[ ]	/* 38 values pushed */
7 1 1 3 2 3 1 2 128 12 5 2 3 3 9 97 11 10 2 9 9 37 77 13 6 2 2 2 0 97 8 4 2 0 0 38 0 78 
EIF[ ]	/* EndIf */
NPUSHB[ ]	/* 22 values pushed */
112 110 101 99 87 85 82 80 76 74 21 17 38 43 44 38 33 21 37 14 8 31 
CALL[ ]	/* CallFunction */";
};
width = 2754;
}
);
note = uni100F;
unicode = 4111;
}
{
glyphname = "ta-myanmar";
layers = (
{
anchors = (
{
name = bottom;
pos = (1138,0);
},
{
name = bottomright;
pos = (1616,0);
},
{
name = top;
pos = (1616,1118);
}
);
layerId = "78B30572-30A3-488A-B9E2-AAE684162724";
shapes = (
{
closed = 1;
nodes = (
(972,-24,o),
(1170,211,o),
(1170,559,cs),
(1170,907,o),
(972,1142,o),
(660,1142,cs),
(348,1142,o),
(150,907,o),
(150,559,cs),
(150,211,o),
(348,-24,o),
(660,-24,cs)
);
},
{
closed = 1;
nodes = (
(375,21,o),
(196,237,o),
(196,559,cs),
(196,881,o),
(375,1097,o),
(660,1097,cs),
(945,1097,o),
(1124,880,o),
(1124,559,cs),
(1124,238,o),
(945,21,o),
(660,21,cs)
);
},
{
closed = 1;
nodes = (
(1949,-24,o),
(2126,201,o),
(2126,559,cs),
(2126,918,o),
(1909,1142,o),
(1588,1142,cs),
(1365,1142,o),
(1169,1009,o),
(1093,799,c),
(1124,755,l),
(1190,964,o),
(1378,1097,o),
(1588,1097,cs),
(1882,1097,o),
(2080,889,o),
(2080,559,cs),
(2080,230,o),
(1920,21,o),
(1618,21,cs),
(1562,21,o),
(1509,30,o),
(1458,48,c),
(1443,5,l),
(1498,-14,o),
(1557,-24,o),
(1617,-24,cs)
);
}
);
userData = {
assembly = "NPUSHB[ ]	/* 43 values pushed */
31 20 2 1 2 1 76 6 1 2 2 4 97 5 1 4 4 37 77 7 1 1 1 0 97 3 1 0 0 38 0 78 36 36 36 36 39 38 18 34 8 8 30 
CALL[ ]	/* CallFunction */";
};
width = 2276;
},
{
anchors = (
{
name = bottom;
pos = (1129,0);
},
{
name = bottomright;
pos = (1542,0);
},
{
name = top;
pos = (1542,1118);
}
);
layerId = m003;
shapes = (
{
closed = 1;
nodes = (
(1061,-24,o),
(1294,201,o),
(1294,559,cs),
(1294,917,o),
(1061,1142,o),
(690,1142,cs),
(319,1142,o),
(86,917,o),
(86,559,cs),
(86,201,o),
(319,-24,o),
(690,-24,cs)
);
},
{
closed = 1;
nodes = (
(544,296,o),
(452,397,o),
(452,559,cs),
(452,721,o),
(544,822,o),
(690,822,cs),
(836,822,o),
(928,721,o),
(928,559,cs),
(928,397,o),
(836,296,o),
(690,296,cs)
);
},
{
closed = 1;
nodes = (
(1964,-24,o),
(2172,197,o),
(2172,548,cs),
(2172,905,o),
(1954,1142,o),
(1605,1142,cs),
(1335,1142,o),
(1121,1013,o),
(1048,801,c),
(1268,623,l),
(1311,745,o),
(1424,822,o),
(1556,822,cs),
(1710,822,o),
(1806,715,o),
(1806,542,cs),
(1806,355,o),
(1696,265,o),
(1564,265,cs),
(1529,265,o),
(1492,271,o),
(1455,284,c),
(1385,18,l),
(1447,-8,o),
(1538,-24,o),
(1634,-24,cs)
);
}
);
userData = {
assembly = "NPUSHB[ ]	/* 43 values pushed */
31 20 2 1 2 1 76 6 1 2 2 4 97 5 1 4 4 37 77 7 1 1 1 0 97 3 1 0 0 38 0 78 36 36 36 36 39 38 18 34 8 8 30 
CALL[ ]	/* CallFunction */";
};
width = 2258;
},
{
anchors = (
{
name = bottom;
pos = (1138,0);
},
{
name = bottomright;
pos = (1582,0);
},
{
name = top;
pos = (1582,1118);
}
);
hints = (
{
horizontal = 1;
origin = (2,25);
target = (1,11);
type = Stem;
},
{
horizontal = 1;
origin = (2,5);
target = (2,12);
type = Stem;
},
{
horizontal = 1;
origin = (2,25);
target = (2,18);
type = Stem;
},
{
origin = (0,8);
target = (1,2);
type = Stem;
},
{
origin = (1,8);
target = (0,2);
type = Stem;
},
{
origin = (2,15);
target = (2,2);
type = Stem;
}
);
layerId = "F0604DE4-03AC-4980-9DDA-35F40FDF1E6E";
shapes = (
{
closed = 1;
nodes = (
(1007,-24,o),
(1222,204,o),
(1222,559,cs),
(1222,914,o),
(1007,1142,o),
(674,1142,cs),
(341,1142,o),
(126,914,o),
(126,559,cs),
(126,204,o),
(341,-24,o),
(674,-24,cs)
);
},
{
closed = 1;
nodes = (
(446,136,o),
(300,299,o),
(300,559,cs),
(300,819,o),
(446,982,o),
(674,982,cs),
(901,982,o),
(1048,819,o),
(1048,559,cs),
(1048,299,o),
(901,136,o),
(674,136,cs)
);
},
{
closed = 1;
nodes = (
(1951,-24,o),
(2146,193,o),
(2146,555,cs),
(2146,912,o),
(1930,1142,o),
(1596,1142,cs),
(1352,1142,o),
(1150,1009,o),
(1077,800,c),
(1183,702,l),
(1239,873,o),
(1395,982,o),
(1577,982,cs),
(1818,982,o),
(1972,816,o),
(1972,552,cs),
(1972,281,o),
(1832,122,o),
(1598,122,cs),
(1548,122,o),
(1502,130,o),
(1458,145,c),
(1421,10,l),
(1479,-12,o),
(1551,-24,o),
(1625,-24,cs)
);
}
);
userData = {
assembly = "NPUSHB[ ]	/* 43 values pushed */
31 20 2 1 2 1 76 6 1 2 2 4 97 5 1 4 4 37 77 7 1 1 1 0 97 3 1 0 0 38 0 78 36 36 36 36 39 38 18 34 8 8 30 
CALL[ ]	/* CallFunction */";
};
width = 2272;
}
);
note = uni1010;
unicode = 4112;
}
{
glyphname = "da-myanmar";
layers = (
{
anchors = (
{
name = bottom;
pos = (649,0);
},
{
name = bottomright;
pos = (653,0);
},
{
name = top;
pos = (649,1118);
}
);
layerId = "78B30572-30A3-488A-B9E2-AAE684162724";
shapes = (
{
closed = 1;
nodes = (
(955,-24,o),
(1150,97,o),
(1150,290,cs),
(1150,397,o),
(1088,528,o),
(762,567,c),
(762,551,l),
(1088,589,o),
(1150,721,o),
(1150,828,cs),
(1150,1021,o),
(949,1142,o),
(644,1142,cs),
(398,1142,o),
(195,1036,o),
(128,868,c),
(168,852,l),
(231,1003,o),
(419,1097,o),
(644,1097,cs),
(925,1097,o),
(1104,994,o),
(1104,825,cs),
(1104,650,o),
(862,578,o),
(587,578,c),
(587,540,l),
(862,540,o),
(1104,467,o),
(1104,293,cs),
(1104,126,o),
(927,21,o),
(644,21,cs),
(419,21,o),
(231,115,o),
(168,266,c),
(128,250,l),
(195,82,o),
(398,-24,o),
(644,-24,cs)
);
}
);
userData = {
assembly = "NPUSHB[ ]	/* 17 values pushed */
30 0 2 6 5 2 1 3 4 19 9 4 3 2 1 3 76 
MPPEM[ ]	/* MeasurePixelPerEm */
PUSHB[ ]	/* 1 value pushed */
13 
LT[ ]	/* LessThan */
IF[ ]	/* If */
NPUSHB[ ]	/* 44 values pushed */
0 6 5 4 5 6 4 128 0 1 3 2 2 1 114 0 4 0 3 1 4 3 105 0 5 5 7 97 0 7 7 37 77 0 2 2 0 98 0 0 0 38 0 78 
ELSE[ ]	/* Else */
NPUSHB[ ]	/* 45 values pushed */
0 6 5 4 5 6 4 128 0 1 3 2 3 1 2 128 0 4 0 3 1 4 3 105 0 5 5 7 97 0 7 7 37 77 0 2 2 0 98 0 0 0 38 0 78 
EIF[ ]	/* EndIf */
NPUSHB[ ]	/* 11 values pushed */
36 36 36 34 36 36 35 37 8 8 30 
CALL[ ]	/* CallFunction */";
};
width = 1300;
},
{
anchors = (
{
name = bottom;
pos = (692,0);
},
{
name = bottomright;
pos = (692,0);
},
{
name = top;
pos = (697,1118);
}
);
layerId = m003;
shapes = (
{
closed = 1;
nodes = (
(1068,-24,o),
(1302,99,o),
(1302,296,cs),
(1302,407,o),
(1264,514,o),
(1049,575,c),
(1049,543,l),
(1264,604,o),
(1302,711,o),
(1302,822,cs),
(1302,1019,o),
(1068,1142,o),
(697,1142,cs),
(344,1142,o),
(108,1005,o),
(80,788,c),
(399,706,l),
(428,819,o),
(563,863,o),
(690,863,cs),
(808,863,o),
(921,826,o),
(921,763,cs),
(921,697,o),
(841,655,o),
(712,648,c),
(712,470,l),
(841,463,o),
(921,421,o),
(921,355,cs),
(921,292,o),
(808,255,o),
(690,255,cs),
(563,255,o),
(428,299,o),
(399,412,c),
(80,330,l),
(108,113,o),
(344,-24,o),
(697,-24,cs)
);
}
);
userData = {
assembly = "NPUSHB[ ]	/* 17 values pushed */
30 0 2 6 5 2 1 3 4 19 9 4 3 2 1 3 76 
MPPEM[ ]	/* MeasurePixelPerEm */
PUSHB[ ]	/* 1 value pushed */
13 
LT[ ]	/* LessThan */
IF[ ]	/* If */
NPUSHB[ ]	/* 44 values pushed */
0 6 5 4 5 6 4 128 0 1 3 2 2 1 114 0 4 0 3 1 4 3 105 0 5 5 7 97 0 7 7 37 77 0 2 2 0 98 0 0 0 38 0 78 
ELSE[ ]	/* Else */
NPUSHB[ ]	/* 45 values pushed */
0 6 5 4 5 6 4 128 0 1 3 2 3 1 2 128 0 4 0 3 1 4 3 105 0 5 5 7 97 0 7 7 37 77 0 2 2 0 98 0 0 0 38 0 78 
EIF[ ]	/* EndIf */
NPUSHB[ ]	/* 11 values pushed */
36 36 36 34 36 36 35 37 8 8 30 
CALL[ ]	/* CallFunction */";
};
width = 1388;
},
{
anchors = (
{
name = bottom;
pos = (667,0);
},
{
name = bottomright;
pos = (669,0);
},
{
name = top;
pos = (660,1118);
}
);
hints = (
{
horizontal = 1;
origin = (0,39);
target = (0,32);
type = Stem;
},
{
horizontal = 1;
origin = (0,26);
target = (0,25);
type = Stem;
},
{
horizontal = 1;
origin = (0,12);
target = (0,19);
type = Stem;
},
{
origin = (0,29);
target = (0,9);
type = Stem;
}
);
layerId = "F0604DE4-03AC-4980-9DDA-35F40FDF1E6E";
shapes = (
{
closed = 1;
nodes = (
(1002,-24,o),
(1214,104,o),
(1214,298,cs),
(1214,439,o),
(1129,525,o),
(954,573,c),
(954,545,l),
(1129,593,o),
(1214,681,o),
(1214,822,cs),
(1214,1016,o),
(1002,1142,o),
(670,1142,cs),
(383,1142,o),
(169,1024,o),
(115,836,c),
(278,792,l),
(326,921,o),
(469,986,o),
(662,986,cs),
(893,986,o),
(1040,926,o),
(1040,800,cs),
(1040,669,o),
(860,632,o),
(641,627,c),
(641,491,l),
(860,486,o),
(1040,449,o),
(1040,318,cs),
(1040,192,o),
(893,132,o),
(662,132,cs),
(469,132,o),
(326,197,o),
(278,326,c),
(115,282,l),
(169,94,o),
(383,-24,o),
(670,-24,cs)
);
}
);
userData = {
assembly = "NPUSHB[ ]	/* 17 values pushed */
30 0 2 6 5 2 1 3 4 19 9 4 3 2 1 3 76 
MPPEM[ ]	/* MeasurePixelPerEm */
PUSHB[ ]	/* 1 value pushed */
13 
LT[ ]	/* LessThan */
IF[ ]	/* If */
NPUSHB[ ]	/* 44 values pushed */
0 6 5 4 5 6 4 128 0 1 3 2 2 1 114 0 4 0 3 1 4 3 105 0 5 5 7 97 0 7 7 37 77 0 2 2 0 98 0 0 0 38 0 78 
ELSE[ ]	/* Else */
NPUSHB[ ]	/* 45 values pushed */
0 6 5 4 5 6 4 128 0 1 3 2 3 1 2 128 0 4 0 3 1 4 3 105 0 5 5 7 97 0 7 7 37 77 0 2 2 0 98 0 0 0 38 0 78 
EIF[ ]	/* EndIf */
NPUSHB[ ]	/* 11 values pushed */
36 36 36 34 36 36 35 37 8 8 30 
CALL[ ]	/* CallFunction */";
};
width = 1340;
}
);
note = uni1012;
unicode = 4114;
}
{
glyphname = "dha-myanmar";
layers = (
{
anchors = (
{
name = bottom;
pos = (657,0);
},
{
name = bottomright;
pos = (661,0);
},
{
name = top;
pos = (660,1118);
}
);
layerId = "78B30572-30A3-488A-B9E2-AAE684162724";
shapes = (
{
closed = 1;
nodes = (
(972,-24,o),
(1170,201,o),
(1170,559,cs),
(1170,917,o),
(972,1142,o),
(660,1142,cs),
(348,1142,o),
(150,917,o),
(150,559,cs),
(150,201,o),
(348,-24,o),
(660,-24,cs)
);
},
{
closed = 1;
nodes = (
(329,325,o),
(484,399,o),
(660,399,cs),
(836,399,o),
(991,325,o),
(1065,208,c),
(1090,249,l),
(1013,366,o),
(848,444,o),
(660,444,cs),
(472,444,o),
(307,366,o),
(230,249,c),
(255,208,l)
);
},
{
closed = 1;
nodes = (
(376,21,o),
(196,229,o),
(196,559,cs),
(196,889,o),
(376,1097,o),
(660,1097,cs),
(944,1097,o),
(1124,889,o),
(1124,559,cs),
(1124,229,o),
(944,21,o),
(660,21,cs)
);
}
);
userData = {
assembly = "NPUSHB[ ]	/* 50 values pushed */
18 1 3 2 31 25 21 3 5 4 2 76 0 3 0 4 5 3 4 105 0 2 2 1 97 0 1 1 37 77 0 5 5 0 97 0 0 0 38 0 78 34 36 38 36 36 34 6 8 28 
CALL[ ]	/* CallFunction */";
};
width = 1320;
},
{
anchors = (
{
name = bottom;
pos = (694,0);
},
{
name = bottomright;
pos = (694,0);
},
{
name = top;
pos = (694,1118);
}
);
layerId = m003;
shapes = (
{
closed = 1;
nodes = (
(1067,-24,o),
(1302,201,o),
(1302,559,cs),
(1302,917,o),
(1067,1142,o),
(694,1142,cs),
(321,1142,o),
(86,917,o),
(86,559,cs),
(86,201,o),
(321,-24,o),
(694,-24,cs)
);
},
{
closed = 1;
nodes = (
(453,357,o),
(563,432,o),
(694,432,cs),
(825,432,o),
(937,357,o),
(1006,222,c),
(1124,355,l),
(1032,521,o),
(878,604,o),
(694,604,cs),
(509,604,o),
(356,521,o),
(268,355,c),
(386,222,l)
);
},
{
closed = 1;
nodes = (
(532,282,o),
(430,389,o),
(430,559,cs),
(430,729,o),
(532,836,o),
(694,836,cs),
(856,836,o),
(958,729,o),
(958,559,cs),
(958,389,o),
(856,282,o),
(694,282,cs)
);
}
);
userData = {
assembly = "NPUSHB[ ]	/* 50 values pushed */
18 1 3 2 31 25 21 3 5 4 2 76 0 3 0 4 5 3 4 105 0 2 2 1 97 0 1 1 37 77 0 5 5 0 97 0 0 0 38 0 78 34 36 38 36 36 34 6 8 28 
CALL[ ]	/* CallFunction */";
};
width = 1388;
},
{
anchors = (
{
name = bottom;
pos = (675,0);
},
{
name = bottomright;
pos = (677,0);
},
{
name = top;
pos = (675,1118);
}
);
hints = (
{
horizontal = 1;
origin = (0,11);
target = (2,11);
type = Stem;
},
{
horizontal = 1;
origin = (1,2);
target = (1,9);
type = Stem;
},
{
horizontal = 1;
origin = (0,5);
target = (2,5);
type = Stem;
},
{
origin = (0,8);
target = (2,2);
type = Stem;
},
{
origin = (2,8);
target = (0,2);
type = Stem;
}
);
layerId = "F0604DE4-03AC-4980-9DDA-35F40FDF1E6E";
shapes = (
{
closed = 1;
nodes = (
(1012,-24,o),
(1224,201,o),
(1224,559,cs),
(1224,917,o),
(1012,1142,o),
(675,1142,cs),
(338,1142,o),
(126,916,o),
(126,559,cs),
(126,202,o),
(338,-24,o),
(675,-24,cs)
);
},
{
closed = 1;
nodes = (
(379,336,o),
(520,412,o),
(675,412,cs),
(830,412,o),
(972,336,o),
(1043,214,c),
(1125,341,l),
(1049,466,o),
(873,556,o),
(675,556,cs),
(476,556,o),
(301,466,o),
(227,341,c),
(309,214,l)
);
},
{
closed = 1;
nodes = (
(443,136,o),
(298,297,o),
(298,559,cs),
(298,821,o),
(443,982,o),
(675,982,cs),
(907,982,o),
(1052,821,o),
(1052,559,cs),
(1052,297,o),
(907,136,o),
(675,136,cs)
);
}
);
userData = {
assembly = "NPUSHB[ ]	/* 50 values pushed */
18 1 3 2 31 25 21 3 5 4 2 76 0 3 0 4 5 3 4 105 0 2 2 1 97 0 1 1 37 77 0 5 5 0 97 0 0 0 38 0 78 34 36 38 36 36 34 6 8 28 
CALL[ ]	/* CallFunction */";
};
width = 1350;
}
);
note = uni1013;
unicode = 4115;
}
{
glyphname = "na-myanmar";
layers = (
{
anchors = (
{
name = dotbelow;
pos = (962,0);
},
{
name = top;
pos = (639,1118);
}
);
layerId = "78B30572-30A3-488A-B9E2-AAE684162724";
shapes = (
{
closed = 1;
nodes = (
(643,-888,l),
(643,14,l),
(632,0,l),
(913,14,o),
(1095,121,o),
(1095,308,cs),
(1095,497,o),
(882,565,o),
(674,631,cs),
(482,692,o),
(291,758,o),
(291,898,cs),
(291,1020,o),
(438,1097,o),
(637,1097,cs),
(823,1097,o),
(949,1027,o),
(1017,888,c),
(1058,908,l),
(984,1061,o),
(839,1142,o),
(636,1142,cs),
(410,1142,o),
(246,1048,o),
(246,898,cs),
(246,721,o),
(451,654,o),
(660,587,cs),
(850,526,o),
(1049,461,o),
(1049,308,cs),
(1049,157,o),
(899,62,o),
(639,45,c),
(621,295,o),
(493,434,o),
(311,434,cs),
(182,434,o),
(90,364,o),
(90,253,cs),
(90,86,o),
(311,0,o),
(610,0,c),
(597,14,l),
(597,-888,l)
);
},
{
closed = 1;
nodes = (
(366,45,o),
(136,108,o),
(136,253,cs),
(136,337,o),
(210,390,o),
(311,390,cs),
(473,390,o),
(578,266,o),
(597,45,c)
);
}
);
userData = {
assembly = "MPPEM[ ]	/* MeasurePixelPerEm */
PUSHB[ ]	/* 1 value pushed */
45 
LT[ ]	/* LessThan */
IF[ ]	/* If */
NPUSHB[ ]	/* 11 values pushed */
39 0 2 3 7 6 1 1 3 2 76 
ELSE[ ]	/* Else */
NPUSHB[ ]	/* 11 values pushed */
39 0 2 3 7 6 1 1 8 2 76 
EIF[ ]	/* EndIf */
MPPEM[ ]	/* MeasurePixelPerEm */
PUSHB[ ]	/* 1 value pushed */
45 
LT[ ]	/* LessThan */
IF[ ]	/* If */
NPUSHB[ ]	/* 44 values pushed */
0 5 6 2 6 5 2 128 0 2 0 7 3 2 7 105 0 6 6 4 97 0 4 4 37 77 9 8 2 3 3 1 97 0 1 1 38 77 0 0 0 40 0 78 
ELSE[ ]	/* Else */
NPUSHB[ ]	/* 51 values pushed */
0 5 6 2 6 5 2 128 0 3 7 8 7 3 8 128 0 2 0 7 3 2 7 105 0 6 6 4 97 0 4 4 37 77 9 1 8 8 1 97 0 1 1 38 77 0 0 0 40 0 78 
EIF[ ]	/* EndIf */
NPUSHB[ ]	/* 21 values pushed */
79 79 79 98 79 97 88 87 67 65 63 62 55 53 24 41 35 40 10 8 26 
CALL[ ]	/* CallFunction */";
};
width = 1260;
},
{
anchors = (
{
name = dotbelow;
pos = (1061,0);
},
{
name = top;
pos = (652,1118);
}
);
layerId = m003;
shapes = (
{
closed = 1;
nodes = (
(713,-888,l),
(713,45,l),
(665,-11,l),
(933,3,o),
(1091,146,o),
(1091,365,cs),
(1091,579,o),
(943,655,o),
(759,717,cs),
(702,736,o),
(571,782,o),
(571,843,cs),
(571,884,o),
(611,905,o),
(675,905,cs),
(751,905,o),
(839,864,o),
(894,803,c),
(1077,908,l),
(1015,1053,o),
(853,1142,o),
(651,1142,cs),
(400,1142,o),
(227,1027,o),
(227,845,cs),
(227,698,o),
(313,603,o),
(523,523,cs),
(660,471,o),
(756,419,o),
(756,343,cs),
(756,286,o),
(730,247,o),
(677,227,c),
(668,374,o),
(539,494,o),
(345,494,cs),
(166,494,o),
(54,404,o),
(54,261,cs),
(54,104,o),
(206,-11,o),
(444,-11,c),
(393,45,l),
(393,-888,l)
);
},
{
closed = 1;
nodes = (
(315,211,o),
(263,242,o),
(263,286,cs),
(263,319,o),
(283,339,o),
(315,339,cs),
(359,339,o),
(391,288,o),
(397,207,c)
);
}
);
width = 1197;
},
{
anchors = (
{
name = dotbelow;
pos = (1002,0);
},
{
name = top;
pos = (658,1118);
}
);
hints = (
{
horizontal = 1;
origin = (0,42);
target = (1,8);
type = Stem;
},
{
horizontal = 1;
origin = (1,5);
target = (0,36);
type = Stem;
},
{
horizontal = 1;
origin = (0,21);
target = (0,14);
type = Stem;
},
{
origin = (0,39);
target = (1,2);
type = Stem;
},
{
origin = (0,44);
target = (0,1);
type = Stem;
},
{
origin = (0,30);
target = (0,5);
type = Stem;
},
{
origin = (0,24);
target = (0,11);
type = Stem;
}
);
layerId = "F0604DE4-03AC-4980-9DDA-35F40FDF1E6E";
shapes = (
{
closed = 1;
nodes = (
(677,-888,l),
(677,26,l),
(647,0,l),
(923,14,o),
(1095,131,o),
(1095,331,cs),
(1095,537,o),
(907,617,o),
(710,677,cs),
(572,719,o),
(416,776,o),
(416,876,cs),
(416,948,o),
(507,994,o),
(649,994,cs),
(788,994,o),
(881,950,o),
(939,857,c),
(1071,908,l),
(1017,1052,o),
(858,1142,o),
(645,1142,cs),
(410,1142,o),
(240,1036,o),
(240,877,cs),
(240,714,o),
(397,623,o),
(607,552,cs),
(776,495,o),
(919,444,o),
(919,322,cs),
(919,239,o),
(848,154,o),
(671,136,c),
(656,345,o),
(513,468,o),
(326,468,cs),
(173,468,o),
(77,386,o),
(77,256,cs),
(77,99,o),
(258,0,o),
(545,0,c),
(513,26,l),
(513,-888,l)
);
},
{
closed = 1;
nodes = (
(340,134,o),
(217,185,o),
(217,262,cs),
(217,307,o),
(257,338,o),
(314,338,cs),
(419,338,o),
(497,253,o),
(507,128,c)
);
}
);
userData = {
assembly = "MPPEM[ ]	/* MeasurePixelPerEm */
PUSHB[ ]	/* 1 value pushed */
45 
LT[ ]	/* LessThan */
IF[ ]	/* If */
NPUSHB[ ]	/* 11 values pushed */
39 0 2 3 7 6 1 1 3 2 76 
ELSE[ ]	/* Else */
NPUSHB[ ]	/* 11 values pushed */
39 0 2 3 7 6 1 1 8 2 76 
EIF[ ]	/* EndIf */
MPPEM[ ]	/* MeasurePixelPerEm */
PUSHB[ ]	/* 1 value pushed */
45 
LT[ ]	/* LessThan */
IF[ ]	/* If */
NPUSHB[ ]	/* 44 values pushed */
0 5 6 2 6 5 2 128 0 2 0 7 3 2 7 105 0 6 6 4 97 0 4 4 37 77 9 8 2 3 3 1 97 0 1 1 38 77 0 0 0 40 0 78 
ELSE[ ]	/* Else */
NPUSHB[ ]	/* 51 values pushed */
0 5 6 2 6 5 2 128 0 3 7 8 7 3 8 128 0 2 0 7 3 2 7 105 0 6 6 4 97 0 4 4 37 77 9 1 8 8 1 97 0 1 1 38 77 0 0 0 40 0 78 
EIF[ ]	/* EndIf */
NPUSHB[ ]	/* 21 values pushed */
79 79 79 98 79 97 88 87 67 65 63 62 55 53 24 41 35 40 10 8 26 
CALL[ ]	/* CallFunction */";
};
width = 1243;
}
);
note = uni1014;
unicode = 4116;
}
{
glyphname = "pa-myanmar";
layers = (
{
anchors = (
{
name = bottom;
pos = (649,0);
},
{
name = bottomright;
pos = (653,0);
},
{
name = top;
pos = (660,1118);
}
);
layerId = "78B30572-30A3-488A-B9E2-AAE684162724";
shapes = (
{
closed = 1;
nodes = (
(987,-24,o),
(1170,192,o),
(1170,578,cs),
(1170,797,o),
(1068,1014,o),
(906,1142,c),
(872,1111,l),
(1027,993,o),
(1124,787,o),
(1124,578,cs),
(1124,221,o),
(958,21,o),
(660,21,cs),
(362,21,o),
(196,221,o),
(196,578,cs),
(196,787,o),
(293,993,o),
(448,1111,c),
(414,1142,l),
(252,1014,o),
(150,797,o),
(150,578,cs),
(150,192,o),
(333,-24,o),
(660,-24,cs)
);
}
);
userData = {
assembly = "NPUSHB[ ]	/* 29 values pushed */
28 12 2 2 1 1 76 0 1 1 37 77 0 2 2 0 98 0 0 0 38 0 78 40 22 34 3 8 25 
CALL[ ]	/* CallFunction */";
};
width = 1320;
},
{
anchors = (
{
name = bottom;
pos = (694,0);
},
{
name = bottomright;
pos = (694,0);
},
{
name = top;
pos = (694,1118);
}
);
layerId = m003;
shapes = (
{
closed = 1;
nodes = (
(1067,-24,o),
(1302,209,o),
(1302,580,cs),
(1302,827,o),
(1191,1044,o),
(1013,1142,c),
(786,932,l),
(879,874,o),
(936,743,o),
(936,591,cs),
(936,410,o),
(843,296,o),
(694,296,cs),
(545,296,o),
(452,410,o),
(452,591,cs),
(452,743,o),
(509,874,o),
(602,932,c),
(375,1142,l),
(197,1044,o),
(86,827,o),
(86,580,cs),
(86,209,o),
(321,-24,o),
(694,-24,cs)
);
}
);
userData = {
assembly = "NPUSHB[ ]	/* 29 values pushed */
28 12 2 2 1 1 76 0 1 1 37 77 0 2 2 0 98 0 0 0 38 0 78 40 22 34 3 8 25 
CALL[ ]	/* CallFunction */";
};
width = 1388;
},
{
anchors = (
{
name = bottom;
pos = (675,0);
},
{
name = bottomright;
pos = (677,0);
},
{
name = top;
pos = (675,1118);
}
);
hints = (
{
horizontal = 1;
origin = (0,25);
target = (0,12);
type = Stem;
},
{
horizontal = 1;
origin = (0,19);
target = down;
type = TopGhost;
},
{
origin = (0,22);
target = (0,15);
type = Stem;
},
{
origin = (0,9);
target = (0,2);
type = Stem;
}
);
layerId = "F0604DE4-03AC-4980-9DDA-35F40FDF1E6E";
shapes = (
{
closed = 1;
nodes = (
(1012,-24,o),
(1224,208,o),
(1224,578,cs),
(1224,809,o),
(1126,1011,o),
(950,1142,c),
(829,1031,l),
(975,914,o),
(1050,760,o),
(1050,579,cs),
(1050,304,o),
(905,136,o),
(675,136,cs),
(445,136,o),
(300,304,o),
(300,579,cs),
(300,760,o),
(375,914,o),
(521,1031,c),
(400,1142,l),
(224,1011,o),
(126,809,o),
(126,578,cs),
(126,208,o),
(338,-24,o),
(675,-24,cs)
);
}
);
userData = {
assembly = "NPUSHB[ ]	/* 29 values pushed */
28 12 2 2 1 1 76 0 1 1 37 77 0 2 2 0 98 0 0 0 38 0 78 40 22 34 3 8 25 
CALL[ ]	/* CallFunction */";
};
width = 1350;
}
);
note = uni1015;
unicode = 4117;
}
{
glyphname = "pha-myanmar";
layers = (
{
anchors = (
{
name = bottom;
pos = (649,0);
},
{
name = bottomright;
pos = (653,0);
},
{
name = top;
pos = (660,1118);
}
);
layerId = "78B30572-30A3-488A-B9E2-AAE684162724";
shapes = (
{
closed = 1;
nodes = (
(987,-24,o),
(1170,192,o),
(1170,578,cs),
(1170,798,o),
(1068,1015,o),
(906,1142,c),
(844,1097,o),
(764,945,o),
(764,762,cs),
(764,570,o),
(872,364,o),
(1073,248,c),
(1089,289,l),
(911,391,o),
(809,592,o),
(809,773,cs),
(809,897,o),
(847,1013,o),
(914,1094,c),
(896,1092,l),
(1036,971,o),
(1124,777,o),
(1124,578,cs),
(1124,221,o),
(958,21,o),
(660,21,cs),
(362,21,o),
(196,221,o),
(196,578,cs),
(196,788,o),
(293,992,o),
(448,1111,c),
(414,1142,l),
(252,1015,o),
(150,798,o),
(150,578,cs),
(150,192,o),
(333,-24,o),
(660,-24,cs)
);
}
);
userData = {
assembly = "NPUSHB[ ]	/* 24 values pushed */
43 39 37 22 5 5 0 74 0 0 0 1 97 0 1 1 38 1 78 46 34 2 8 24 
CALL[ ]	/* CallFunction */";
};
width = 1320;
},
{
anchors = (
{
name = bottom;
pos = (693,0);
},
{
name = bottomright;
pos = (694,0);
},
{
name = top;
pos = (694,1118);
}
);
layerId = m003;
shapes = (
{
closed = 1;
nodes = (
(1067,-24,o),
(1302,208,o),
(1302,578,cs),
(1302,891,o),
(1140,1109,o),
(881,1142,c),
(788,1074,o),
(699,885,o),
(699,674,cs),
(699,516,o),
(749,346,o),
(887,207,c),
(1019,330,l),
(927,414,o),
(881,555,o),
(881,684,cs),
(881,780,o),
(906,868,o),
(958,921,c),
(881,898,l),
(968,874,o),
(1040,736,o),
(1040,613,cs),
(1040,410,o),
(931,283,o),
(715,283,cs),
(566,283,o),
(452,406,o),
(452,581,cs),
(452,738,o),
(509,873,o),
(602,932,c),
(375,1142,l),
(197,1044,o),
(86,827,o),
(86,580,cs),
(86,209,o),
(321,-24,o),
(694,-24,cs)
);
}
);
userData = {
assembly = "NPUSHB[ ]	/* 24 values pushed */
43 39 37 22 5 5 0 74 0 0 0 1 97 0 1 1 38 1 78 46 34 2 8 24 
CALL[ ]	/* CallFunction */";
};
width = 1388;
},
{
anchors = (
{
name = bottom;
pos = (675,0);
},
{
name = bottomright;
pos = (677,0);
},
{
name = top;
pos = (675,1118);
}
);
hints = (
{
horizontal = 1;
origin = (0,38);
target = (0,25);
type = Stem;
},
{
horizontal = 1;
origin = (0,32);
target = down;
type = TopGhost;
},
{
origin = (0,35);
target = (0,28);
type = Stem;
},
{
origin = (0,8);
target = (0,15);
type = Stem;
},
{
origin = (0,22);
target = (0,2);
type = Stem;
}
);
layerId = "F0604DE4-03AC-4980-9DDA-35F40FDF1E6E";
shapes = (
{
closed = 1;
nodes = (
(1012,-24,o),
(1224,208,o),
(1224,578,cs),
(1224,835,o),
(1093,1063,o),
(893,1142,c),
(760,1064,o),
(666,879,o),
(666,694,cs),
(666,490,o),
(794,301,o),
(976,237,c),
(1074,330,l),
(915,376,o),
(803,530,o),
(803,704,cs),
(803,830,o),
(857,959,o),
(933,1016,c),
(877,1013,l),
(995,931,o),
(1076,761,o),
(1076,592,cs),
(1076,312,o),
(921,136,o),
(675,136,cs),
(445,136,o),
(300,307,o),
(300,579,cs),
(300,760,o),
(375,914,o),
(521,1031,c),
(400,1142,l),
(224,1011,o),
(126,810,o),
(126,579,cs),
(126,208,o),
(339,-24,o),
(675,-24,cs)
);
}
);
userData = {
assembly = "NPUSHB[ ]	/* 24 values pushed */
43 39 37 22 5 5 0 74 0 0 0 1 97 0 1 1 38 1 78 46 34 2 8 24 
CALL[ ]	/* CallFunction */";
};
width = 1350;
}
);
note = uni1016;
unicode = 4118;
}
{
glyphname = "ba-myanmar";
layers = (
{
anchors = (
{
name = bottom;
pos = (649,0);
},
{
name = bottomright;
pos = (653,0);
},
{
name = top;
pos = (660,1118);
}
);
layerId = "78B30572-30A3-488A-B9E2-AAE684162724";
shapes = (
{
closed = 1;
nodes = (
(987,-24,o),
(1170,192,o),
(1170,578,cs),
(1170,798,o),
(1068,1015,o),
(906,1142,c),
(872,1111,l),
(838,1023,o),
(756,968,o),
(660,968,cs),
(564,968,o),
(482,1023,o),
(448,1111,c),
(414,1142,l),
(252,1015,o),
(150,798,o),
(150,578,cs),
(150,192,o),
(333,-24,o),
(660,-24,cs)
);
},
{
closed = 1;
nodes = (
(362,21,o),
(196,221,o),
(196,578,cs),
(196,772,o),
(279,961,o),
(413,1082,c),
(452,984,o),
(547,923,o),
(660,923,cs),
(773,923,o),
(868,984,o),
(907,1082,c),
(1041,961,o),
(1124,772,o),
(1124,578,cs),
(1124,221,o),
(958,21,o),
(660,21,cs)
);
}
);
userData = {
assembly = "NPUSHB[ ]	/* 44 values pushed */
32 27 19 18 11 5 2 1 1 76 0 2 0 4 5 2 4 106 3 1 1 1 37 77 0 5 5 0 97 0 0 0 38 0 78 37 40 20 36 21 34 6 8 28 
CALL[ ]	/* CallFunction */";
};
width = 1320;
},
{
anchors = (
{
name = bottom;
pos = (694,0);
},
{
name = bottomright;
pos = (694,0);
},
{
name = top;
pos = (694,1118);
}
);
layerId = m003;
shapes = (
{
closed = 1;
nodes = (
(1067,-24,o),
(1302,209,o),
(1302,580,cs),
(1302,827,o),
(1191,1044,o),
(1013,1142,c),
(913,1097,l),
(885,974,o),
(832,900,o),
(694,900,cs),
(556,900,o),
(503,974,o),
(475,1097,c),
(375,1142,l),
(197,1044,o),
(86,827,o),
(86,580,cs),
(86,209,o),
(321,-24,o),
(694,-24,cs)
);
},
{
closed = 1;
nodes = (
(525,282,o),
(442,406,o),
(442,581,cs),
(442,628,o),
(448,674,o),
(459,715,c),
(518,657,o),
(606,627,o),
(694,627,cs),
(782,627,o),
(870,657,o),
(929,715,c),
(940,674,o),
(946,628,o),
(946,581,cs),
(946,406,o),
(863,282,o),
(694,282,cs)
);
}
);
userData = {
assembly = "NPUSHB[ ]	/* 44 values pushed */
32 27 19 18 11 5 2 1 1 76 0 2 0 4 5 2 4 106 3 1 1 1 37 77 0 5 5 0 97 0 0 0 38 0 78 37 40 20 36 21 34 6 8 28 
CALL[ ]	/* CallFunction */";
};
width = 1388;
},
{
anchors = (
{
name = bottom;
pos = (675,0);
},
{
name = bottomright;
pos = (677,0);
},
{
name = top;
pos = (675,1118);
}
);
hints = (
{
horizontal = 1;
origin = (0,19);
target = (1,17);
type = Stem;
},
{
horizontal = 1;
origin = (1,8);
target = (0,9);
type = Stem;
},
{
horizontal = 1;
origin = (0,13);
target = down;
type = TopGhost;
},
{
origin = (0,16);
target = (1,2);
type = Stem;
},
{
origin = (1,14);
target = (0,2);
type = Stem;
}
);
layerId = "F0604DE4-03AC-4980-9DDA-35F40FDF1E6E";
shapes = (
{
closed = 1;
nodes = (
(1012,-24,o),
(1224,208,o),
(1224,579,cs),
(1224,810,o),
(1119,1027,o),
(950,1142,c),
(865,1095,l),
(847,985,o),
(784,931,o),
(675,931,cs),
(566,931,o),
(503,985,o),
(485,1095,c),
(400,1142,l),
(232,1027,o),
(126,810,o),
(126,579,cs),
(126,208,o),
(339,-24,o),
(675,-24,cs)
);
},
{
closed = 1;
nodes = (
(445,136,o),
(300,304,o),
(300,579,cs),
(300,708,o),
(338,832,o),
(404,927,c),
(448,856,o),
(549,800,o),
(675,800,cs),
(802,800,o),
(903,856,o),
(947,927,c),
(1012,832,o),
(1050,708,o),
(1050,579,cs),
(1050,304,o),
(905,136,o),
(675,136,cs)
);
}
);
userData = {
assembly = "NPUSHB[ ]	/* 44 values pushed */
32 27 19 18 11 5 2 1 1 76 0 2 0 4 5 2 4 106 3 1 1 1 37 77 0 5 5 0 97 0 0 0 38 0 78 37 40 20 36 21 34 6 8 28 
CALL[ ]	/* CallFunction */";
};
width = 1350;
}
);
note = uni1017;
unicode = 4119;
}
{
glyphname = "bha-myanmar";
layers = (
{
anchors = (
{
name = bottom;
pos = (1138,0);
},
{
name = bottomright;
pos = (1616,0);
},
{
name = top;
pos = (1616,1118);
}
);
layerId = "78B30572-30A3-488A-B9E2-AAE684162724";
shapes = (
{
closed = 1;
nodes = (
(937,-24,o),
(1170,222,o),
(1170,559,cs),
(1170,896,o),
(937,1142,o),
(621,1142,cs),
(414,1142,o),
(244,1037,o),
(150,869,c),
(192,852,l),
(278,1003,o),
(432,1097,o),
(621,1097,cs),
(915,1097,o),
(1124,873,o),
(1124,559,cs),
(1124,245,o),
(915,21,o),
(621,21,cs),
(432,21,o),
(278,115,o),
(192,266,c),
(150,249,l),
(244,81,o),
(414,-24,o),
(621,-24,cs)
);
},
{
closed = 1;
nodes = (
(1941,-24,o),
(2126,200,o),
(2126,559,cs),
(2126,918,o),
(1914,1142,o),
(1593,1142,cs),
(1372,1142,o),
(1180,1010,o),
(1104,799,c),
(1134,755,l),
(1199,962,o),
(1381,1097,o),
(1593,1097,cs),
(1887,1097,o),
(2080,889,o),
(2080,559,cs),
(2080,229,o),
(1914,21,o),
(1638,21,cs),
(1559,21,o),
(1478,35,o),
(1429,56,c),
(1414,14,l),
(1467,-10,o),
(1554,-24,o),
(1637,-24,cs)
);
}
);
userData = {
assembly = "NPUSHB[ ]	/* 65 values pushed */
61 53 2 7 2 7 1 0 1 2 76 0 7 2 4 2 7 4 128 0 4 1 2 4 1 126 6 1 2 2 8 97 9 1 8 8 37 77 5 1 1 1 0 97 3 1 0 0 38 0 78 66 64 37 35 36 34 36 38 39 25 34 10 8 31 
CALL[ ]	/* CallFunction */";
};
width = 2276;
},
{
anchors = (
{
name = bottom;
pos = (1129,0);
},
{
name = bottomright;
pos = (1542,0);
},
{
name = top;
pos = (1542,1118);
}
);
layerId = m003;
shapes = (
{
closed = 1;
nodes = (
(1056,-24,o),
(1302,201,o),
(1302,559,cs),
(1302,917,o),
(1056,1142,o),
(665,1142,cs),
(340,1142,o),
(117,982,o),
(86,728,c),
(402,646,l),
(422,754,o),
(523,822,o),
(665,822,cs),
(831,822,o),
(936,721,o),
(936,559,cs),
(936,397,o),
(831,296,o),
(665,296,cs),
(523,296,o),
(422,364,o),
(402,472,c),
(86,390,l),
(117,136,o),
(340,-24,o),
(665,-24,cs)
);
},
{
closed = 1;
nodes = (
(1964,-24,o),
(2172,197,o),
(2172,548,cs),
(2172,905,o),
(1954,1142,o),
(1605,1142,cs),
(1335,1142,o),
(1121,1013,o),
(1048,801,c),
(1268,623,l),
(1311,745,o),
(1424,822,o),
(1556,822,cs),
(1710,822,o),
(1806,715,o),
(1806,542,cs),
(1806,355,o),
(1696,265,o),
(1564,265,cs),
(1529,265,o),
(1492,271,o),
(1455,284,c),
(1385,18,l),
(1447,-8,o),
(1538,-24,o),
(1634,-24,cs)
);
}
);
userData = {
assembly = "NPUSHB[ ]	/* 65 values pushed */
61 53 2 7 2 7 1 0 1 2 76 0 7 2 4 2 7 4 128 0 4 1 2 4 1 126 6 1 2 2 8 97 9 1 8 8 37 77 5 1 1 1 0 97 3 1 0 0 38 0 78 66 64 37 35 36 34 36 38 39 25 34 10 8 31 
CALL[ ]	/* CallFunction */";
};
width = 2258;
},
{
anchors = (
{
name = bottom;
pos = (1138,0);
},
{
name = bottomright;
pos = (1582,0);
},
{
name = top;
pos = (1582,1118);
}
);
hints = (
{
horizontal = 1;
origin = (1,25);
target = (0,18);
type = Stem;
},
{
horizontal = 1;
origin = (1,5);
target = (1,12);
type = Stem;
},
{
horizontal = 1;
origin = (1,25);
target = (1,18);
type = Stem;
},
{
origin = (0,15);
target = (0,2);
type = Stem;
},
{
origin = (1,15);
target = (1,2);
type = Stem;
}
);
layerId = "F0604DE4-03AC-4980-9DDA-35F40FDF1E6E";
shapes = (
{
closed = 1;
nodes = (
(986,-24,o),
(1224,214,o),
(1224,559,cs),
(1224,904,o),
(986,1142,o),
(640,1142,cs),
(386,1142,o),
(195,1015,o),
(126,813,c),
(278,770,l),
(337,903,o),
(470,982,o),
(640,982,cs),
(883,982,o),
(1050,812,o),
(1050,559,cs),
(1050,306,o),
(883,136,o),
(640,136,cs),
(470,136,o),
(337,215,o),
(278,348,c),
(126,305,l),
(195,103,o),
(386,-24,o),
(640,-24,cs)
);
},
{
closed = 1;
nodes = (
(1952,-24,o),
(2146,199,o),
(2146,555,cs),
(2146,913,o),
(1932,1142,o),
(1599,1142,cs),
(1359,1142,o),
(1158,1011,o),
(1083,800,c),
(1189,702,l),
(1245,875,o),
(1400,982,o),
(1580,982,cs),
(1818,982,o),
(1972,819,o),
(1972,552,cs),
(1972,279,o),
(1828,122,o),
(1610,122,cs),
(1549,122,o),
(1485,132,o),
(1441,150,c),
(1404,16,l),
(1461,-9,o),
(1549,-24,o),
(1637,-24,cs)
);
}
);
userData = {
assembly = "NPUSHB[ ]	/* 65 values pushed */
61 53 2 7 2 7 1 0 1 2 76 0 7 2 4 2 7 4 128 0 4 1 2 4 1 126 6 1 2 2 8 97 9 1 8 8 37 77 5 1 1 1 0 97 3 1 0 0 38 0 78 66 64 37 35 36 34 36 38 39 25 34 10 8 31 
CALL[ ]	/* CallFunction */";
};
width = 2272;
}
);
note = uni1018;
unicode = 4120;
}
{
glyphname = "ma-myanmar";
layers = (
{
anchors = (
{
name = bottom;
pos = (659,0);
},
{
name = bottomright;
pos = (663,0);
},
{
name = top;
pos = (660,1118);
}
);
layerId = "78B30572-30A3-488A-B9E2-AAE684162724";
shapes = (
{
closed = 1;
nodes = (
(987,-24,o),
(1170,192,o),
(1170,578,cs),
(1170,798,o),
(1068,1015,o),
(906,1142,c),
(872,1111,l),
(1027,992,o),
(1124,788,o),
(1124,578,cs),
(1124,221,o),
(958,21,o),
(660,21,cs),
(362,21,o),
(196,221,o),
(196,578,cs),
(196,788,o),
(293,992,o),
(448,1111,c),
(414,1142,l),
(252,1015,o),
(150,798,o),
(150,578,cs),
(150,192,o),
(333,-24,o),
(660,-24,cs)
);
},
{
closed = 1;
nodes = (
(329,325,o),
(484,399,o),
(660,399,cs),
(836,399,o),
(991,325,o),
(1065,208,c),
(1090,249,l),
(1013,366,o),
(848,444,o),
(660,444,cs),
(472,444,o),
(307,366,o),
(230,249,c),
(255,208,l)
);
}
);
userData = {
assembly = "NPUSHB[ ]	/* 49 values pushed */
28 11 2 2 1 16 1 3 2 39 22 18 3 4 3 3 76 0 2 0 3 4 2 3 105 0 1 1 37 77 0 4 4 0 98 0 0 0 38 0 78 35 46 41 21 34 5 8 27 
CALL[ ]	/* CallFunction */";
};
width = 1320;
},
{
anchors = (
{
name = bottom;
pos = (694,0);
},
{
name = bottomright;
pos = (694,0);
},
{
name = top;
pos = (694,1118);
}
);
layerId = m003;
shapes = (
{
closed = 1;
nodes = (
(1067,-24,o),
(1302,209,o),
(1302,580,cs),
(1302,827,o),
(1191,1044,o),
(1013,1142,c),
(786,932,l),
(879,873,o),
(946,738,o),
(946,581,cs),
(946,406,o),
(863,282,o),
(694,282,cs),
(525,282,o),
(442,406,o),
(442,581,cs),
(442,738,o),
(509,873,o),
(602,932,c),
(375,1142,l),
(197,1044,o),
(86,827,o),
(86,580,cs),
(86,209,o),
(321,-24,o),
(694,-24,cs)
);
},
{
closed = 1;
nodes = (
(453,367,o),
(563,442,o),
(694,442,cs),
(825,442,o),
(937,367,o),
(1006,232,c),
(1124,365,l),
(1032,531,o),
(878,614,o),
(694,614,cs),
(509,614,o),
(356,531,o),
(268,365,c),
(386,232,l)
);
}
);
userData = {
assembly = "NPUSHB[ ]	/* 49 values pushed */
28 11 2 2 1 16 1 3 2 39 22 18 3 4 3 3 76 0 2 0 3 4 2 3 105 0 1 1 37 77 0 4 4 0 98 0 0 0 38 0 78 35 46 41 21 34 5 8 27 
CALL[ ]	/* CallFunction */";
};
width = 1388;
},
{
anchors = (
{
name = bottom;
pos = (675,0);
},
{
name = bottomright;
pos = (677,0);
},
{
name = top;
pos = (675,1118);
}
);
hints = (
{
horizontal = 1;
origin = (0,25);
target = (0,12);
type = Stem;
},
{
horizontal = 1;
origin = (1,2);
target = (1,9);
type = Stem;
},
{
horizontal = 1;
origin = (0,19);
target = down;
type = TopGhost;
},
{
origin = (0,22);
target = (0,15);
type = Stem;
},
{
origin = (0,9);
target = (0,2);
type = Stem;
}
);
layerId = "F0604DE4-03AC-4980-9DDA-35F40FDF1E6E";
shapes = (
{
closed = 1;
nodes = (
(1012,-24,o),
(1224,207,o),
(1224,578,cs),
(1224,809,o),
(1126,1011,o),
(950,1142,c),
(829,1031,l),
(975,914,o),
(1050,760,o),
(1050,579,cs),
(1050,307,o),
(905,136,o),
(675,136,cs),
(445,136,o),
(300,307,o),
(300,579,cs),
(300,760,o),
(375,914,o),
(521,1031,c),
(400,1142,l),
(224,1011,o),
(126,809,o),
(126,578,cs),
(126,208,o),
(338,-24,o),
(675,-24,cs)
);
},
{
closed = 1;
nodes = (
(379,336,o),
(520,412,o),
(675,412,cs),
(830,412,o),
(972,336,o),
(1043,214,c),
(1125,341,l),
(1049,466,o),
(873,556,o),
(675,556,cs),
(476,556,o),
(301,466,o),
(227,341,c),
(309,214,l)
);
}
);
userData = {
assembly = "NPUSHB[ ]	/* 49 values pushed */
28 11 2 2 1 16 1 3 2 39 22 18 3 4 3 3 76 0 2 0 3 4 2 3 105 0 1 1 37 77 0 4 4 0 98 0 0 0 38 0 78 35 46 41 21 34 5 8 27 
CALL[ ]	/* CallFunction */";
};
width = 1350;
}
);
note = uni1019;
unicode = 4121;
}
{
glyphname = "ya-myanmar";
layers = (
{
anchors = (
{
name = bottom;
pos = (1138,0);
},
{
name = bottomright;
pos = (1616,0);
},
{
name = top;
pos = (1616,1118);
}
);
layerId = "78B30572-30A3-488A-B9E2-AAE684162724";
shapes = (
{
closed = 1;
nodes = (
(884,-24,o),
(1050,96,o),
(1125,301,c),
(1099,299,l),
(1181,92,o),
(1360,-24,o),
(1588,-24,cs),
(1933,-24,o),
(2126,185,o),
(2126,559,cs),
(2126,917,o),
(1949,1142,o),
(1617,1142,cs),
(1557,1142,o),
(1498,1132,o),
(1443,1113,c),
(1458,1070,l),
(1509,1088,o),
(1562,1097,o),
(1618,1097,cs),
(1920,1097,o),
(2080,888,o),
(2080,559,cs),
(2080,214,o),
(1904,21,o),
(1588,21,cs),
(1362,21,o),
(1196,143,o),
(1124,361,c),
(1126,305,l),
(1155,384,o),
(1170,476,o),
(1170,578,cs),
(1170,798,o),
(1068,1015,o),
(906,1142,c),
(872,1111,l),
(1027,992,o),
(1124,788,o),
(1124,578,cs),
(1124,236,o),
(944,21,o),
(660,21,cs),
(376,21,o),
(196,236,o),
(196,578,cs),
(196,788,o),
(293,992,o),
(448,1111,c),
(414,1142,l),
(252,1015,o),
(150,798,o),
(150,578,cs),
(150,208,o),
(348,-24,o),
(660,-24,cs)
);
}
);
userData = {
assembly = "NPUSHB[ ]	/* 44 values pushed */
8 1 3 6 1 76 7 1 6 6 2 97 8 4 2 2 2 37 77 5 1 3 3 0 98 1 1 0 0 38 0 78 37 17 24 41 27 41 22 38 34 9 8 31 
CALL[ ]	/* CallFunction */";
};
width = 2276;
},
{
anchors = (
{
name = bottom;
pos = (1129,0);
},
{
name = bottomright;
pos = (1542,0);
},
{
name = top;
pos = (1542,1118);
}
);
layerId = m003;
shapes = (
{
closed = 1;
nodes = (
(966,-24,o),
(1165,106,o),
(1252,317,c),
(1048,317,l),
(1121,105,o),
(1335,-24,o),
(1605,-24,cs),
(1954,-24,o),
(2172,213,o),
(2172,570,cs),
(2172,921,o),
(1964,1142,o),
(1634,1142,cs),
(1538,1142,o),
(1447,1126,o),
(1385,1100,c),
(1455,834,l),
(1489,846,o),
(1533,853,o),
(1567,853,cs),
(1748,853,o),
(1806,710,o),
(1806,576,cs),
(1806,404,o),
(1710,296,o),
(1556,296,cs),
(1422,296,o),
(1311,373,o),
(1268,495,c),
(1287,426,l),
(1297,474,o),
(1302,526,o),
(1302,580,cs),
(1302,827,o),
(1190,1044,o),
(1012,1142,c),
(785,932,l),
(878,873,o),
(936,738,o),
(936,581,cs),
(936,406,o),
(843,296,o),
(694,296,cs),
(545,296,o),
(452,406,o),
(452,581,cs),
(452,738,o),
(509,873,o),
(602,932,c),
(375,1142,l),
(197,1044,o),
(86,827,o),
(86,580,cs),
(86,209,o),
(321,-24,o),
(694,-24,cs)
);
}
);
userData = {
assembly = "NPUSHB[ ]	/* 44 values pushed */
8 1 3 6 1 76 7 1 6 6 2 97 8 4 2 2 2 37 77 5 1 3 3 0 98 1 1 0 0 38 0 78 37 17 24 41 27 41 22 38 34 9 8 31 
CALL[ ]	/* CallFunction */";
};
width = 2258;
},
{
anchors = (
{
name = bottom;
pos = (1138,0);
},
{
name = bottomright;
pos = (1582,0);
},
{
name = top;
pos = (1582,1118);
}
);
hints = (
{
horizontal = 1;
origin = (0,55);
target = (0,42);
type = Stem;
},
{
horizontal = 1;
origin = (0,49);
target = (0,19);
type = Stem;
},
{
origin = (0,52);
target = (0,45);
type = Stem;
},
{
origin = (0,39);
target = (0,32);
type = Stem;
},
{
origin = (0,22);
target = (0,9);
type = Stem;
}
);
layerId = "F0604DE4-03AC-4980-9DDA-35F40FDF1E6E";
shapes = (
{
closed = 1;
nodes = (
(918,-24,o),
(1098,100,o),
(1177,307,c),
(1081,307,l),
(1159,104,o),
(1359,-24,o),
(1596,-24,cs),
(1929,-24,o),
(2146,205,o),
(2146,563,cs),
(2146,919,o),
(1957,1142,o),
(1625,1142,cs),
(1551,1142,o),
(1479,1130,o),
(1421,1108,c),
(1458,973,l),
(1503,988,o),
(1552,996,o),
(1599,996,cs),
(1853,996,o),
(1972,817,o),
(1972,566,cs),
(1972,299,o),
(1815,136,o),
(1577,136,cs),
(1398,136,o),
(1241,242,o),
(1183,415,c),
(1192,353,l),
(1213,420,o),
(1224,495,o),
(1224,578,cs),
(1224,809,o),
(1126,1011,o),
(950,1142,c),
(829,1031,l),
(975,914,o),
(1050,760,o),
(1050,579,cs),
(1050,304,o),
(905,136,o),
(675,136,cs),
(445,136,o),
(300,304,o),
(300,579,cs),
(300,760,o),
(375,914,o),
(521,1031,c),
(400,1142,l),
(224,1011,o),
(126,809,o),
(126,578,cs),
(126,207,o),
(339,-24,o),
(675,-24,cs)
);
}
);
userData = {
assembly = "NPUSHB[ ]	/* 44 values pushed */
8 1 3 6 1 76 7 1 6 6 2 97 8 4 2 2 2 37 77 5 1 3 3 0 98 1 1 0 0 38 0 78 37 17 24 41 27 41 22 38 34 9 8 31 
CALL[ ]	/* CallFunction */";
};
width = 2272;
}
);
note = uni101A;
unicode = 4122;
}
{
glyphname = "ra-myanmar";
kernRight = "ra-myanmar";
layers = (
{
anchors = (
{
name = bottom;
pos = (666,0);
},
{
name = bottomright;
pos = (668,0);
},
{
name = hamedial;
pos = (711,0);
},
{
name = top;
pos = (670,1118);
},
{
name = wamedial;
pos = (812,0);
}
);
layerId = "78B30572-30A3-488A-B9E2-AAE684162724";
shapes = (
{
closed = 1;
nodes = (
(1370,-888,l),
(1370,-843,l),
(1150,-843,l),
(1150,554,ls),
(1150,911,o),
(1007,1142,o),
(671,1142,cs),
(361,1142,o),
(150,923,o),
(150,584,cs),
(150,136,o),
(423,-22,o),
(614,-22,cs),
(645,-22,o),
(677,-18,o),
(702,-10,c),
(747,322,o),
(540,635,o),
(200,720,c),
(190,675,l),
(494,606,o),
(695,308,o),
(657,-12,c),
(689,27,l),
(403,-14,o),
(196,229,o),
(196,584,cs),
(196,894,o),
(389,1097,o),
(671,1097,cs),
(977,1097,o),
(1104,882,o),
(1104,554,cs),
(1104,-888,l)
);
}
);
userData = {
assembly = "NPUSHB[ ]	/* 54 values pushed */
34 1 4 6 3 1 1 0 2 76 0 3 0 6 4 3 6 105 0 2 2 5 97 0 5 5 37 77 0 4 4 38 77 0 0 0 1 95 0 1 1 40 1 78 25 36 36 18 36 50 32 7 8 29 
CALL[ ]	/* CallFunction */";
};
width = 1320;
},
{
anchors = (
{
name = bottom;
pos = (452,0);
},
{
name = bottomright;
pos = (455,0);
},
{
name = hamedial;
pos = (560,0);
},
{
name = top;
pos = (698,1118);
},
{
name = wamedial;
pos = (508,0);
}
);
layerId = m003;
shapes = (
{
closed = 1;
nodes = (
(1502,-888,l),
(1502,-648,l),
(1282,-648,l),
(1282,618,ls),
(1282,940,o),
(1055,1142,o),
(694,1142,cs),
(317,1142,o),
(81,922,o),
(81,571,cs),
(81,212,o),
(270,-14,o),
(572,-14,cs),
(650,-14,o),
(720,-7,o),
(801,28,c),
(830,470,o),
(597,683,o),
(371,729,c),
(300,572,l),
(535,521,o),
(645,277,o),
(607,140,c),
(689,197,l),
(441,165,o),
(367,363,o),
(367,527,cs),
(367,721,o),
(473,825,o),
(654,825,cs),
(813,825,o),
(922,720,o),
(922,567,cs),
(922,-888,l)
);
}
);
userData = {
assembly = "NPUSHB[ ]	/* 54 values pushed */
34 1 4 6 3 1 1 0 2 76 0 3 0 6 4 3 6 105 0 2 2 5 97 0 5 5 37 77 0 4 4 38 77 0 0 0 1 95 0 1 1 40 1 78 25 36 36 18 36 50 32 7 8 29 
CALL[ ]	/* CallFunction */";
};
width = 1428;
},
{
anchors = (
{
name = bottom;
pos = (597,0);
},
{
name = bottomright;
pos = (595,0);
},
{
name = hamedial;
pos = (603,0);
},
{
name = top;
pos = (698,1118);
},
{
name = wamedial;
pos = (582,0);
}
);
hints = (
{
horizontal = 1;
origin = (0,33);
target = (0,2);
type = Stem;
},
{
horizontal = 1;
origin = (0,6);
target = (0,29);
type = Stem;
},
{
origin = (0,9);
target = (0,26);
type = Stem;
},
{
place = (626,129);
type = Stem;
},
{
origin = (0,33);
target = (0,3);
type = Stem;
}
);
layerId = "F0604DE4-03AC-4980-9DDA-35F40FDF1E6E";
shapes = (
{
closed = 1;
nodes = (
(1414,-888,l),
(1414,-752,l),
(1204,-752,l),
(1204,570,ls),
(1204,913,o),
(1028,1142,o),
(682,1142,cs),
(345,1142,o),
(124,923,o),
(124,579,cs),
(124,253,o),
(290,-18,o),
(609,-18,cs),
(664,-18,o),
(717,-8,o),
(750,7,c),
(792,389,o),
(572,670,o),
(278,740,c),
(226,618,l),
(502,556,o),
(658,276,o),
(620,29,c),
(691,97,l),
(430,91,o),
(274,286,o),
(274,561,cs),
(274,825,o),
(424,982,o),
(666,982,cs),
(913,982,o),
(1032,817,o),
(1032,559,cs),
(1032,-888,l)
);
}
);
userData = {
assembly = "NPUSHB[ ]	/* 54 values pushed */
34 1 4 6 3 1 1 0 2 76 0 3 0 6 4 3 6 105 0 2 2 5 97 0 5 5 37 77 0 4 4 38 77 0 0 0 1 95 0 1 1 40 1 78 25 36 36 18 36 50 32 7 8 29 
CALL[ ]	/* CallFunction */";
};
width = 1366;
}
);
note = uni101B;
unicode = 4123;
}
{
glyphname = "la-myanmar";
layers = (
{
anchors = (
{
name = bottom;
pos = (1138,0);
},
{
name = bottomright;
pos = (1616,0);
},
{
name = top;
pos = (1616,1118);
}
);
layerId = "78B30572-30A3-488A-B9E2-AAE684162724";
shapes = (
{
closed = 1;
nodes = (
(744,-24,o),
(834,-7,o),
(899,23,c),
(886,68,l),
(825,39,o),
(740,21,o),
(664,21,cs),
(376,21,o),
(196,230,o),
(196,564,cs),
(196,891,o),
(361,1097,o),
(626,1097,cs),
(974,1097,o),
(1047,827,o),
(1120,548,cs),
(1195,261,o),
(1272,-24,o),
(1647,-24,cs),
(1941,-24,o),
(2126,199,o),
(2126,555,cs),
(2126,916,o),
(1928,1142,o),
(1611,1142,cs),
(1532,1142,o),
(1442,1125,o),
(1377,1095,c),
(1390,1050,l),
(1453,1080,o),
(1538,1097,o),
(1611,1097,cs),
(1899,1097,o),
(2080,889,o),
(2080,555,cs),
(2080,228,o),
(1914,22,o),
(1650,22,cs),
(1307,22,o),
(1234,298,o),
(1162,572,cs),
(1086,861,o),
(1002,1142,o),
(629,1142,cs),
(335,1142,o),
(150,920,o),
(150,564,cs),
(150,203,o),
(348,-24,o),
(665,-24,cs)
);
}
);
userData = {
assembly = "MPPEM[ ]	/* MeasurePixelPerEm */
PUSHB[ ]	/* 1 value pushed */
31 
LT[ ]	/* LessThan */
IF[ ]	/* If */
NPUSHB[ ]	/* 10 values pushed */
38 1 2 1 23 1 0 2 2 76 
ELSE[ ]	/* Else */
MPPEM[ ]	/* MeasurePixelPerEm */
PUSHB[ ]	/* 1 value pushed */
35 
LT[ ]	/* LessThan */
IF[ ]	/* If */
NPUSHB[ ]	/* 10 values pushed */
38 1 2 8 23 1 0 2 2 76 
ELSE[ ]	/* Else */
NPUSHB[ ]	/* 10 values pushed */
38 1 3 8 23 1 0 2 2 76 
EIF[ ]	/* EndIf */
EIF[ ]	/* EndIf */
MPPEM[ ]	/* MeasurePixelPerEm */
PUSHB[ ]	/* 1 value pushed */
31 
LT[ ]	/* LessThan */
IF[ ]	/* If */
NPUSHB[ ]	/* 27 values pushed */
8 7 2 1 1 5 97 9 1 5 5 37 77 6 3 2 2 2 0 97 4 1 0 0 38 0 78 
ELSE[ ]	/* Else */
MPPEM[ ]	/* MeasurePixelPerEm */
PUSHB[ ]	/* 1 value pushed */
35 
LT[ ]	/* LessThan */
IF[ ]	/* If */
NPUSHB[ ]	/* 34 values pushed */
0 8 1 2 1 8 2 128 7 1 1 1 5 97 9 1 5 5 37 77 6 3 2 2 2 0 97 4 1 0 0 38 0 78 
ELSE[ ]	/* Else */
NPUSHB[ ]	/* 40 values pushed */
0 8 1 3 1 8 3 128 0 3 2 1 3 2 126 7 1 1 1 5 97 9 1 5 5 37 77 6 1 2 2 0 97 4 1 0 0 38 0 78 
EIF[ ]	/* EndIf */
EIF[ ]	/* EndIf */
NPUSHB[ ]	/* 14 values pushed */
56 55 18 21 37 36 37 17 21 40 34 10 8 31 
CALL[ ]	/* CallFunction */";
};
width = 2276;
},
{
anchors = (
{
name = bottom;
pos = (1129,0);
},
{
name = bottomright;
pos = (1542,0);
},
{
name = top;
pos = (1542,1118);
}
);
layerId = m003;
shapes = (
{
closed = 1;
nodes = (
(720,-24,o),
(811,-8,o),
(873,18,c),
(803,284,l),
(769,272,o),
(725,265,o),
(691,265,cs),
(510,265,o),
(452,408,o),
(452,542,cs),
(452,714,o),
(533,822,o),
(663,822,cs),
(803,822,o),
(872,722,o),
(957,501,cs),
(1050,259,o),
(1163,-24,o),
(1603,-24,cs),
(1953,-24,o),
(2172,205,o),
(2172,570,cs),
(2172,921,o),
(1964,1142,o),
(1634,1142,cs),
(1538,1142,o),
(1447,1126,o),
(1385,1100,c),
(1455,834,l),
(1489,846,o),
(1533,853,o),
(1567,853,cs),
(1748,853,o),
(1806,710,o),
(1806,576,cs),
(1806,404,o),
(1725,296,o),
(1595,296,cs),
(1455,296,o),
(1386,392,o),
(1301,613,cs),
(1208,855,o),
(1095,1142,o),
(655,1142,cs),
(305,1142,o),
(86,913,o),
(86,548,cs),
(86,197,o),
(294,-24,o),
(624,-24,cs)
);
}
);
userData = {
assembly = "MPPEM[ ]	/* MeasurePixelPerEm */
PUSHB[ ]	/* 1 value pushed */
31 
LT[ ]	/* LessThan */
IF[ ]	/* If */
NPUSHB[ ]	/* 10 values pushed */
38 1 2 1 23 1 0 2 2 76 
ELSE[ ]	/* Else */
MPPEM[ ]	/* MeasurePixelPerEm */
PUSHB[ ]	/* 1 value pushed */
35 
LT[ ]	/* LessThan */
IF[ ]	/* If */
NPUSHB[ ]	/* 10 values pushed */
38 1 2 8 23 1 0 2 2 76 
ELSE[ ]	/* Else */
NPUSHB[ ]	/* 10 values pushed */
38 1 3 8 23 1 0 2 2 76 
EIF[ ]	/* EndIf */
EIF[ ]	/* EndIf */
MPPEM[ ]	/* MeasurePixelPerEm */
PUSHB[ ]	/* 1 value pushed */
31 
LT[ ]	/* LessThan */
IF[ ]	/* If */
NPUSHB[ ]	/* 27 values pushed */
8 7 2 1 1 5 97 9 1 5 5 37 77 6 3 2 2 2 0 97 4 1 0 0 38 0 78 
ELSE[ ]	/* Else */
MPPEM[ ]	/* MeasurePixelPerEm */
PUSHB[ ]	/* 1 value pushed */
35 
LT[ ]	/* LessThan */
IF[ ]	/* If */
NPUSHB[ ]	/* 34 values pushed */
0 8 1 2 1 8 2 128 7 1 1 1 5 97 9 1 5 5 37 77 6 3 2 2 2 0 97 4 1 0 0 38 0 78 
ELSE[ ]	/* Else */
NPUSHB[ ]	/* 40 values pushed */
0 8 1 3 1 8 3 128 0 3 2 1 3 2 126 7 1 1 1 5 97 9 1 5 5 37 77 6 1 2 2 0 97 4 1 0 0 38 0 78 
EIF[ ]	/* EndIf */
EIF[ ]	/* EndIf */
NPUSHB[ ]	/* 14 values pushed */
56 55 18 21 37 36 37 17 21 40 34 10 8 31 
CALL[ ]	/* CallFunction */";
};
width = 2258;
},
{
anchors = (
{
name = bottom;
pos = (1138,0);
},
{
name = bottomright;
pos = (1582,0);
},
{
name = top;
pos = (1582,1118);
}
);
hints = (
{
horizontal = 1;
origin = (0,49);
target = (0,37);
type = Stem;
},
{
horizontal = 1;
origin = (0,43);
target = (0,12);
type = Stem;
},
{
horizontal = 1;
origin = (0,49);
target = (0,6);
type = Stem;
},
{
horizontal = 1;
origin = (0,43);
target = (0,31);
type = Stem;
},
{
origin = (0,46);
target = (0,9);
type = Stem;
},
{
origin = (0,34);
target = (0,21);
type = Stem;
}
);
layerId = "F0604DE4-03AC-4980-9DDA-35F40FDF1E6E";
shapes = (
{
closed = 1;
nodes = (
(736,-24,o),
(826,-7,o),
(890,21,c),
(854,157,l),
(804,135,o),
(736,122,o),
(676,122,cs),
(431,122,o),
(300,301,o),
(300,555,cs),
(300,820,o),
(431,982,o),
(642,982,cs),
(907,982,o),
(978,785,o),
(1056,529,cs),
(1138,260,o),
(1230,-24,o),
(1631,-24,cs),
(1947,-24,o),
(2146,201,o),
(2146,561,cs),
(2146,918,o),
(1944,1142,o),
(1622,1142,cs),
(1536,1142,o),
(1446,1125,o),
(1382,1097,c),
(1418,961,l),
(1469,983,o),
(1538,996,o),
(1595,996,cs),
(1840,996,o),
(1972,817,o),
(1972,563,cs),
(1972,298,o),
(1840,136,o),
(1630,136,cs),
(1368,136,o),
(1296,336,o),
(1219,588,cs),
(1136,859,o),
(1041,1142,o),
(641,1142,cs),
(325,1142,o),
(126,917,o),
(126,558,cs),
(126,201,o),
(328,-24,o),
(650,-24,cs)
);
}
);
userData = {
assembly = "MPPEM[ ]	/* MeasurePixelPerEm */
PUSHB[ ]	/* 1 value pushed */
31 
LT[ ]	/* LessThan */
IF[ ]	/* If */
NPUSHB[ ]	/* 10 values pushed */
38 1 2 1 23 1 0 2 2 76 
ELSE[ ]	/* Else */
MPPEM[ ]	/* MeasurePixelPerEm */
PUSHB[ ]	/* 1 value pushed */
35 
LT[ ]	/* LessThan */
IF[ ]	/* If */
NPUSHB[ ]	/* 10 values pushed */
38 1 2 8 23 1 0 2 2 76 
ELSE[ ]	/* Else */
NPUSHB[ ]	/* 10 values pushed */
38 1 3 8 23 1 0 2 2 76 
EIF[ ]	/* EndIf */
EIF[ ]	/* EndIf */
MPPEM[ ]	/* MeasurePixelPerEm */
PUSHB[ ]	/* 1 value pushed */
31 
LT[ ]	/* LessThan */
IF[ ]	/* If */
NPUSHB[ ]	/* 27 values pushed */
8 7 2 1 1 5 97 9 1 5 5 37 77 6 3 2 2 2 0 97 4 1 0 0 38 0 78 
ELSE[ ]	/* Else */
MPPEM[ ]	/* MeasurePixelPerEm */
PUSHB[ ]	/* 1 value pushed */
35 
LT[ ]	/* LessThan */
IF[ ]	/* If */
NPUSHB[ ]	/* 34 values pushed */
0 8 1 2 1 8 2 128 7 1 1 1 5 97 9 1 5 5 37 77 6 3 2 2 2 0 97 4 1 0 0 38 0 78 
ELSE[ ]	/* Else */
NPUSHB[ ]	/* 40 values pushed */
0 8 1 3 1 8 3 128 0 3 2 1 3 2 126 7 1 1 1 5 97 9 1 5 5 37 77 6 1 2 2 0 97 4 1 0 0 38 0 78 
EIF[ ]	/* EndIf */
EIF[ ]	/* EndIf */
NPUSHB[ ]	/* 14 values pushed */
56 55 18 21 37 36 37 17 21 40 34 10 8 31 
CALL[ ]	/* CallFunction */";
};
width = 2272;
}
);
note = uni101C;
unicode = 4124;
}
{
glyphname = "wa-myanmar";
layers = (
{
anchors = (
{
name = bottom;
pos = (649,0);
},
{
name = bottomright;
pos = (653,0);
},
{
name = top;
pos = (660,1118);
}
);
layerId = "78B30572-30A3-488A-B9E2-AAE684162724";
shapes = (
{
closed = 1;
nodes = (
(974,-24,o),
(1170,201,o),
(1170,559,cs),
(1170,917,o),
(974,1142,o),
(660,1142,cs),
(348,1142,o),
(150,917,o),
(150,559,cs),
(150,201,o),
(348,-24,o),
(660,-24,cs)
);
},
{
closed = 1;
nodes = (
(376,21,o),
(196,229,o),
(196,559,cs),
(196,889,o),
(376,1097,o),
(660,1097,cs),
(946,1097,o),
(1124,889,o),
(1124,559,cs),
(1124,229,o),
(946,21,o),
(660,21,cs)
);
}
);
userData = {
assembly = "NPUSHB[ ]	/* 28 values pushed */
0 2 2 1 97 0 1 1 37 77 0 3 3 0 97 0 0 0 38 0 78 36 36 36 34 4 8 26 
CALL[ ]	/* CallFunction */";
};
width = 1320;
},
{
anchors = (
{
name = bottom;
pos = (694,0);
},
{
name = bottomright;
pos = (694,0);
},
{
name = top;
pos = (694,1118);
}
);
layerId = m003;
shapes = (
{
closed = 1;
nodes = (
(1067,-24,o),
(1302,201,o),
(1302,559,cs),
(1302,917,o),
(1067,1142,o),
(694,1142,cs),
(321,1142,o),
(86,917,o),
(86,559,cs),
(86,201,o),
(321,-24,o),
(694,-24,cs)
);
},
{
closed = 1;
nodes = (
(545,296,o),
(452,397,o),
(452,559,cs),
(452,721,o),
(545,822,o),
(694,822,cs),
(843,822,o),
(936,721,o),
(936,559,cs),
(936,397,o),
(843,296,o),
(694,296,cs)
);
}
);
userData = {
assembly = "NPUSHB[ ]	/* 28 values pushed */
0 2 2 1 97 0 1 1 37 77 0 3 3 0 97 0 0 0 38 0 78 36 36 36 34 4 8 26 
CALL[ ]	/* CallFunction */";
};
width = 1388;
},
{
anchors = (
{
name = bottom;
pos = (675,0);
},
{
name = bottomright;
pos = (677,0);
},
{
name = top;
pos = (675,1118);
}
);
hints = (
{
horizontal = 1;
origin = (0,11);
target = (1,11);
type = Stem;
},
{
horizontal = 1;
origin = (0,5);
target = (1,5);
type = Stem;
},
{
origin = (0,8);
target = (1,2);
type = Stem;
},
{
origin = (1,8);
target = (0,2);
type = Stem;
}
);
layerId = "F0604DE4-03AC-4980-9DDA-35F40FDF1E6E";
shapes = (
{
closed = 1;
nodes = (
(1013,-24,o),
(1224,201,o),
(1224,559,cs),
(1224,917,o),
(1013,1142,o),
(675,1142,cs),
(339,1142,o),
(126,917,o),
(126,559,cs),
(126,201,o),
(339,-24,o),
(675,-24,cs)
);
},
{
closed = 1;
nodes = (
(445,136,o),
(300,296,o),
(300,559,cs),
(300,822,o),
(445,982,o),
(675,982,cs),
(906,982,o),
(1050,822,o),
(1050,559,cs),
(1050,296,o),
(906,136,o),
(675,136,cs)
);
}
);
userData = {
assembly = "NPUSHB[ ]	/* 28 values pushed */
0 2 2 1 97 0 1 1 37 77 0 3 3 0 97 0 0 0 38 0 78 36 36 36 34 4 8 26 
CALL[ ]	/* CallFunction */";
};
width = 1350;
}
);
note = uni101D;
unicode = 4125;
}
{
glyphname = "sa-myanmar";
layers = (
{
anchors = (
{
name = bottom;
pos = (1138,0);
},
{
name = bottomright;
pos = (1616,0);
},
{
name = top;
pos = (1616,1118);
}
);
layerId = "78B30572-30A3-488A-B9E2-AAE684162724";
shapes = (
{
closed = 1;
nodes = (
(937,-24,o),
(1170,222,o),
(1170,559,cs),
(1170,896,o),
(937,1142,o),
(621,1142,cs),
(414,1142,o),
(244,1037,o),
(150,869,c),
(192,852,l),
(278,1003,o),
(432,1097,o),
(621,1097,cs),
(915,1097,o),
(1124,873,o),
(1124,559,cs),
(1124,245,o),
(915,21,o),
(621,21,cs),
(432,21,o),
(278,115,o),
(192,266,c),
(150,249,l),
(244,81,o),
(414,-24,o),
(621,-24,cs)
);
},
{
closed = 1;
nodes = (
(1933,-24,o),
(2126,185,o),
(2126,559,cs),
(2126,917,o),
(1949,1142,o),
(1617,1142,cs),
(1557,1142,o),
(1498,1132,o),
(1443,1113,c),
(1458,1070,l),
(1509,1088,o),
(1562,1097,o),
(1618,1097,cs),
(1920,1097,o),
(2080,888,o),
(2080,559,cs),
(2080,214,o),
(1904,21,o),
(1588,21,cs),
(1366,21,o),
(1185,147,o),
(1119,348,c),
(1088,304,l),
(1164,103,o),
(1357,-24,o),
(1588,-24,cs)
);
}
);
userData = {
assembly = "NPUSHB[ ]	/* 76 values pushed */
54 1 4 6 33 1 5 4 40 1 2 5 13 7 2 3 2 4 76 0 5 4 2 4 5 2 128 0 2 3 4 2 3 126 9 8 2 4 4 6 97 10 1 6 6 37 77 7 1 3 3 0 97 1 1 0 0 38 0 78 60 58 53 52 20 38 36 19 36 34 23 36 34 11 8 31 
CALL[ ]	/* CallFunction */";
};
width = 2276;
},
{
anchors = (
{
name = bottom;
pos = (1129,0);
},
{
name = bottomright;
pos = (1542,0);
},
{
name = top;
pos = (1542,1118);
}
);
layerId = m003;
shapes = (
{
closed = 1;
nodes = (
(1056,-24,o),
(1302,201,o),
(1302,559,cs),
(1302,917,o),
(1056,1142,o),
(665,1142,cs),
(340,1142,o),
(117,982,o),
(86,728,c),
(402,646,l),
(422,754,o),
(523,822,o),
(665,822,cs),
(831,822,o),
(936,721,o),
(936,559,cs),
(936,397,o),
(831,296,o),
(665,296,cs),
(523,296,o),
(422,364,o),
(402,472,c),
(86,390,l),
(117,136,o),
(340,-24,o),
(665,-24,cs)
);
},
{
closed = 1;
nodes = (
(1954,-24,o),
(2172,213,o),
(2172,570,cs),
(2172,921,o),
(1964,1142,o),
(1634,1142,cs),
(1538,1142,o),
(1447,1126,o),
(1385,1100,c),
(1455,834,l),
(1492,847,o),
(1529,853,o),
(1564,853,cs),
(1696,853,o),
(1806,763,o),
(1806,576,cs),
(1806,403,o),
(1710,296,o),
(1556,296,cs),
(1424,296,o),
(1311,373,o),
(1268,495,c),
(1048,317,l),
(1121,105,o),
(1335,-24,o),
(1605,-24,cs)
);
}
);
userData = {
assembly = "NPUSHB[ ]	/* 76 values pushed */
54 1 4 6 33 1 5 4 40 1 2 5 13 7 2 3 2 4 76 0 5 4 2 4 5 2 128 0 2 3 4 2 3 126 9 8 2 4 4 6 97 10 1 6 6 37 77 7 1 3 3 0 97 1 1 0 0 38 0 78 60 58 53 52 20 38 36 19 36 34 23 36 34 11 8 31 
CALL[ ]	/* CallFunction */";
};
width = 2258;
},
{
anchors = (
{
name = bottom;
pos = (1138,0);
},
{
name = bottomright;
pos = (1582,0);
},
{
name = top;
pos = (1582,1118);
}
);
hints = (
{
horizontal = 1;
origin = (1,25);
target = (1,18);
type = Stem;
},
{
horizontal = 1;
origin = (1,5);
target = (0,12);
type = Stem;
},
{
origin = (0,15);
target = (0,2);
type = Stem;
},
{
origin = (1,15);
target = (1,2);
type = Stem;
}
);
layerId = "F0604DE4-03AC-4980-9DDA-35F40FDF1E6E";
shapes = (
{
closed = 1;
nodes = (
(986,-24,o),
(1224,214,o),
(1224,559,cs),
(1224,904,o),
(986,1142,o),
(640,1142,cs),
(386,1142,o),
(195,1015,o),
(126,813,c),
(278,770,l),
(337,903,o),
(470,982,o),
(640,982,cs),
(883,982,o),
(1050,812,o),
(1050,559,cs),
(1050,306,o),
(883,136,o),
(640,136,cs),
(470,136,o),
(337,215,o),
(278,348,c),
(126,305,l),
(195,103,o),
(386,-24,o),
(640,-24,cs)
);
},
{
closed = 1;
nodes = (
(1929,-24,o),
(2146,205,o),
(2146,563,cs),
(2146,919,o),
(1957,1142,o),
(1625,1142,cs),
(1551,1142,o),
(1479,1130,o),
(1421,1108,c),
(1458,973,l),
(1504,989,o),
(1550,996,o),
(1598,996,cs),
(1832,996,o),
(1972,838,o),
(1972,566,cs),
(1972,299,o),
(1815,136,o),
(1577,136,cs),
(1398,136,o),
(1240,242,o),
(1183,416,c),
(1077,318,l),
(1151,107,o),
(1355,-24,o),
(1596,-24,cs)
);
}
);
userData = {
assembly = "NPUSHB[ ]	/* 76 values pushed */
54 1 4 6 33 1 5 4 40 1 2 5 13 7 2 3 2 4 76 0 5 4 2 4 5 2 128 0 2 3 4 2 3 126 9 8 2 4 4 6 97 10 1 6 6 37 77 7 1 3 3 0 97 1 1 0 0 38 0 78 60 58 53 52 20 38 36 19 36 34 23 36 34 11 8 31 
CALL[ ]	/* CallFunction */";
};
width = 2272;
}
);
note = uni101E;
unicode = 4126;
}
{
glyphname = "ha-myanmar";
layers = (
{
anchors = (
{
name = bottom;
pos = (1138,0);
},
{
name = bottomright;
pos = (1616,0);
},
{
name = top;
pos = (1616,1118);
}
);
layerId = "78B30572-30A3-488A-B9E2-AAE684162724";
shapes = (
{
closed = 1;
nodes = (
(987,-24,o),
(1170,192,o),
(1170,577,cs),
(1170,797,o),
(1068,1015,o),
(906,1142,c),
(872,1111,l),
(1027,992,o),
(1124,787,o),
(1124,577,cs),
(1124,220,o),
(958,21,o),
(660,21,cs),
(362,21,o),
(196,220,o),
(196,577,cs),
(196,787,o),
(293,992,o),
(448,1111,c),
(414,1142,l),
(252,1015,o),
(150,797,o),
(150,577,cs),
(150,192,o),
(333,-24,o),
(660,-24,cs)
);
},
{
closed = 1;
nodes = (
(1941,-24,o),
(2126,200,o),
(2126,559,cs),
(2126,918,o),
(1914,1142,o),
(1593,1142,cs),
(1372,1142,o),
(1180,1010,o),
(1104,799,c),
(1134,755,l),
(1199,962,o),
(1381,1097,o),
(1593,1097,cs),
(1887,1097,o),
(2080,889,o),
(2080,559,cs),
(2080,229,o),
(1914,21,o),
(1638,21,cs),
(1559,21,o),
(1478,35,o),
(1429,56,c),
(1414,14,l),
(1467,-10,o),
(1554,-24,o),
(1637,-24,cs)
);
}
);
userData = {
assembly = "NPUSHB[ ]	/* 49 values pushed */
60 1 2 4 66 25 23 9 4 1 2 2 76 0 2 2 4 97 7 6 2 4 4 37 77 5 1 1 1 0 98 3 1 0 0 38 0 78 39 26 40 39 42 39 23 18 8 8 30 
CALL[ ]	/* CallFunction */";
};
width = 2276;
},
{
anchors = (
{
name = bottom;
pos = (1129,0);
},
{
name = bottomright;
pos = (1542,0);
},
{
name = top;
pos = (1542,1118);
}
);
layerId = m003;
shapes = (
{
closed = 1;
nodes = (
(1067,-24,o),
(1302,209,o),
(1302,580,cs),
(1302,827,o),
(1191,1044,o),
(1013,1142,c),
(786,932,l),
(879,873,o),
(936,738,o),
(936,581,cs),
(936,406,o),
(843,296,o),
(694,296,cs),
(545,296,o),
(452,406,o),
(452,581,cs),
(452,738,o),
(509,873,o),
(602,932,c),
(375,1142,l),
(197,1044,o),
(86,827,o),
(86,580,cs),
(86,209,o),
(321,-24,o),
(694,-24,cs)
);
},
{
closed = 1;
nodes = (
(1964,-24,o),
(2172,197,o),
(2172,548,cs),
(2172,905,o),
(1954,1142,o),
(1605,1142,cs),
(1335,1142,o),
(1121,1013,o),
(1048,801,c),
(1268,623,l),
(1311,745,o),
(1424,822,o),
(1556,822,cs),
(1710,822,o),
(1806,715,o),
(1806,542,cs),
(1806,355,o),
(1696,265,o),
(1564,265,cs),
(1529,265,o),
(1492,271,o),
(1455,284,c),
(1385,18,l),
(1447,-8,o),
(1538,-24,o),
(1634,-24,cs)
);
}
);
userData = {
assembly = "NPUSHB[ ]	/* 49 values pushed */
60 1 2 4 66 25 23 9 4 1 2 2 76 0 2 2 4 97 7 6 2 4 4 37 77 5 1 1 1 0 98 3 1 0 0 38 0 78 39 26 40 39 42 39 23 18 8 8 30 
CALL[ ]	/* CallFunction */";
};
width = 2258;
},
{
anchors = (
{
name = bottom;
pos = (1138,0);
},
{
name = bottomright;
pos = (1582,0);
},
{
name = top;
pos = (1582,1118);
}
);
hints = (
{
horizontal = 1;
origin = (1,25);
target = (0,12);
type = Stem;
},
{
horizontal = 1;
origin = (1,5);
target = (1,12);
type = Stem;
},
{
horizontal = 1;
origin = (1,25);
target = (1,18);
type = Stem;
},
{
origin = (0,22);
target = (0,15);
type = Stem;
},
{
origin = (0,9);
target = (0,2);
type = Stem;
},
{
origin = (1,15);
target = (1,2);
type = Stem;
}
);
layerId = "F0604DE4-03AC-4980-9DDA-35F40FDF1E6E";
shapes = (
{
closed = 1;
nodes = (
(1012,-24,o),
(1224,208,o),
(1224,578,cs),
(1224,809,o),
(1126,1011,o),
(950,1142,c),
(829,1031,l),
(975,914,o),
(1050,760,o),
(1050,579,cs),
(1050,304,o),
(905,136,o),
(675,136,cs),
(445,136,o),
(300,304,o),
(300,579,cs),
(300,760,o),
(375,914,o),
(521,1031,c),
(400,1142,l),
(224,1011,o),
(126,809,o),
(126,578,cs),
(126,208,o),
(338,-24,o),
(675,-24,cs)
);
},
{
closed = 1;
nodes = (
(1952,-24,o),
(2146,199,o),
(2146,555,cs),
(2146,913,o),
(1932,1142,o),
(1599,1142,cs),
(1359,1142,o),
(1158,1011,o),
(1083,800,c),
(1189,702,l),
(1245,875,o),
(1400,982,o),
(1580,982,cs),
(1818,982,o),
(1972,819,o),
(1972,552,cs),
(1972,279,o),
(1828,122,o),
(1610,122,cs),
(1549,122,o),
(1485,132,o),
(1441,150,c),
(1404,16,l),
(1461,-9,o),
(1549,-24,o),
(1637,-24,cs)
);
}
);
userData = {
assembly = "NPUSHB[ ]	/* 49 values pushed */
60 1 2 4 66 25 23 9 4 1 2 2 76 0 2 2 4 97 7 6 2 4 4 37 77 5 1 1 1 0 98 3 1 0 0 38 0 78 39 26 40 39 42 39 23 18 8 8 30 
CALL[ ]	/* CallFunction */";
};
width = 2272;
}
);
note = uni101F;
unicode = 4127;
}
{
glyphname = "a-myanmar";
layers = (
{
anchors = (
{
name = bottom;
pos = (1118,0);
},
{
name = bottomright;
pos = (1596,0);
},
{
name = top;
pos = (1596,1118);
}
);
layerId = "78B30572-30A3-488A-B9E2-AAE684162724";
shapes = (
{
closed = 1;
nodes = (
(1909,-24,o),
(2106,201,o),
(2106,559,cs),
(2106,902,o),
(1881,1142,o),
(1561,1142,cs),
(1360,1142,o),
(1197,1047,o),
(1106,891,c),
(1130,844,l),
(1213,1001,o),
(1369,1097,o),
(1561,1097,cs),
(1854,1097,o),
(2060,875,o),
(2060,559,cs),
(2060,229,o),
(1879,21,o),
(1590,21,cs),
(1541,21,o),
(1494,28,o),
(1452,44,c),
(1485,17,l),
(1483,38,o),
(1483,58,o),
(1483,78,cs),
(1483,415,o),
(1753,601,o),
(2066,675,c),
(2055,719,l),
(1708,640,o),
(1437,424,o),
(1437,84,cs),
(1437,58,o),
(1438,32,o),
(1441,5,c),
(1477,-13,o),
(1532,-24,o),
(1594,-24,cs)
);
},
{
closed = 1;
nodes = (
(949,-24,o),
(1150,97,o),
(1150,290,cs),
(1150,397,o),
(1088,528,o),
(762,567,c),
(762,551,l),
(1088,589,o),
(1150,721,o),
(1150,828,cs),
(1150,1021,o),
(949,1142,o),
(644,1142,cs),
(398,1142,o),
(195,1036,o),
(128,868,c),
(168,852,l),
(231,1003,o),
(419,1097,o),
(644,1097,cs),
(925,1097,o),
(1104,994,o),
(1104,825,cs),
(1104,650,o),
(862,578,o),
(587,578,c),
(587,540,l),
(862,540,o),
(1104,467,o),
(1104,293,cs),
(1104,124,o),
(925,21,o),
(644,21,cs),
(419,21,o),
(231,115,o),
(168,266,c),
(128,250,l),
(195,82,o),
(398,-24,o),
(644,-24,cs)
);
}
);
userData = {
assembly = "NPUSHB[ ]	/* 25 values pushed */
69 55 25 3 8 1 50 27 15 3 5 6 84 44 34 29 4 4 3 10 1 0 4 4 76 
MPPEM[ ]	/* MeasurePixelPerEm */
PUSHB[ ]	/* 1 value pushed */
11 
LT[ ]	/* LessThan */
IF[ ]	/* If */
NPUSHB[ ]	/* 54 values pushed */
0 8 1 6 1 8 114 0 11 5 3 5 11 3 128 0 3 4 4 3 112 0 6 0 5 11 6 5 105 7 1 1 1 9 97 10 1 9 9 37 77 12 1 4 4 0 98 2 1 0 0 38 0 78 
ELSE[ ]	/* Else */
MPPEM[ ]	/* MeasurePixelPerEm */
PUSHB[ ]	/* 1 value pushed */
13 
LT[ ]	/* LessThan */
IF[ ]	/* If */
NPUSHB[ ]	/* 55 values pushed */
0 8 1 6 1 8 6 128 0 11 5 3 5 11 3 128 0 3 4 4 3 112 0 6 0 5 11 6 5 105 7 1 1 1 9 97 10 1 9 9 37 77 12 1 4 4 0 98 2 1 0 0 38 0 78 
ELSE[ ]	/* Else */
NPUSHB[ ]	/* 56 values pushed */
0 8 1 6 1 8 6 128 0 11 5 3 5 11 3 128 0 3 4 5 3 4 126 0 6 0 5 11 6 5 105 7 1 1 1 9 97 10 1 9 9 37 77 12 1 4 4 0 98 2 1 0 0 38 0 78 
EIF[ ]	/* EndIf */
EIF[ ]	/* EndIf */
NPUSHB[ ]	/* 20 values pushed */
87 86 81 80 75 73 68 66 36 35 35 35 36 20 40 46 36 13 8 31 
CALL[ ]	/* CallFunction */";
};
width = 2256;
},
{
anchors = (
{
name = bottom;
pos = (1123,0);
},
{
name = bottomright;
pos = (1536,0);
},
{
name = top;
pos = (1536,1118);
}
);
layerId = m003;
shapes = (
{
closed = 1;
nodes = (
(1937,-24,o),
(2166,221,o),
(2166,567,cs),
(2166,952,o),
(1881,1142,o),
(1567,1142,cs),
(1327,1142,o),
(1115,1013,o),
(1042,801,c),
(1202,674,l),
(1264,770,o),
(1402,831,o),
(1559,831,cs),
(1756,831,o),
(1866,710,o),
(1866,523,cs),
(1866,371,o),
(1761,184,o),
(1554,184,cs),
(1538,184,o),
(1521,185,o),
(1503,187,c),
(1585,130,l),
(1580,148,o),
(1578,167,o),
(1578,188,cs),
(1578,327,o),
(1742,524,o),
(1947,568,c),
(1876,729,l),
(1663,686,o),
(1389,484,o),
(1389,91,cs),
(1389,68,o),
(1389,38,o),
(1391,13,c),
(1449,-10,o),
(1536,-24,o),
(1613,-24,cs)
);
},
{
closed = 1;
nodes = (
(1032,-24,o),
(1256,99,o),
(1256,296,cs),
(1256,407,o),
(1220,514,o),
(1013,575,c),
(1013,543,l),
(1220,604,o),
(1256,711,o),
(1256,822,cs),
(1256,1019,o),
(1032,1142,o),
(675,1142,cs),
(336,1142,o),
(107,1005,o),
(80,788,c),
(396,706,l),
(413,802,o),
(513,863,o),
(655,863,cs),
(801,863,o),
(890,824,o),
(890,763,cs),
(890,697,o),
(813,655,o),
(689,648,c),
(689,470,l),
(813,463,o),
(890,421,o),
(890,355,cs),
(890,294,o),
(801,255,o),
(655,255,cs),
(513,255,o),
(413,316,o),
(396,412,c),
(80,330,l),
(107,113,o),
(336,-24,o),
(675,-24,cs)
);
}
);
userData = {
assembly = "NPUSHB[ ]	/* 25 values pushed */
69 55 25 3 8 1 50 27 15 3 5 6 84 44 34 29 4 4 3 10 1 0 4 4 76 
MPPEM[ ]	/* MeasurePixelPerEm */
PUSHB[ ]	/* 1 value pushed */
11 
LT[ ]	/* LessThan */
IF[ ]	/* If */
NPUSHB[ ]	/* 54 values pushed */
0 8 1 6 1 8 114 0 11 5 3 5 11 3 128 0 3 4 4 3 112 0 6 0 5 11 6 5 105 7 1 1 1 9 97 10 1 9 9 37 77 12 1 4 4 0 98 2 1 0 0 38 0 78 
ELSE[ ]	/* Else */
MPPEM[ ]	/* MeasurePixelPerEm */
PUSHB[ ]	/* 1 value pushed */
13 
LT[ ]	/* LessThan */
IF[ ]	/* If */
NPUSHB[ ]	/* 55 values pushed */
0 8 1 6 1 8 6 128 0 11 5 3 5 11 3 128 0 3 4 4 3 112 0 6 0 5 11 6 5 105 7 1 1 1 9 97 10 1 9 9 37 77 12 1 4 4 0 98 2 1 0 0 38 0 78 
ELSE[ ]	/* Else */
NPUSHB[ ]	/* 56 values pushed */
0 8 1 6 1 8 6 128 0 11 5 3 5 11 3 128 0 3 4 5 3 4 126 0 6 0 5 11 6 5 105 7 1 1 1 9 97 10 1 9 9 37 77 12 1 4 4 0 98 2 1 0 0 38 0 78 
EIF[ ]	/* EndIf */
EIF[ ]	/* EndIf */
NPUSHB[ ]	/* 20 values pushed */
87 86 81 80 75 73 68 66 36 35 35 35 36 20 40 46 36 13 8 31 
CALL[ ]	/* CallFunction */";
};
width = 2252;
},
{
anchors = (
{
name = bottom;
pos = (1128,0);
},
{
name = bottomright;
pos = (1572,0);
},
{
name = top;
pos = (1572,1118);
}
);
hints = (
{
horizontal = 1;
origin = (1,39);
target = (1,32);
type = Stem;
},
{
horizontal = 1;
origin = (1,26);
target = (1,25);
type = Stem;
},
{
horizontal = 1;
origin = (1,12);
target = (1,19);
type = Stem;
},
{
horizontal = 1;
origin = (1,12);
target = (0,12);
type = Stem;
},
{
horizontal = 1;
origin = (1,39);
target = (0,18);
type = Stem;
},
{
origin = (1,29);
target = (1,9);
type = Stem;
},
{
origin = (0,15);
target = (0,2);
type = Stem;
}
);
layerId = "F0604DE4-03AC-4980-9DDA-35F40FDF1E6E";
shapes = (
{
closed = 1;
nodes = (
(1917,-24,o),
(2136,219,o),
(2136,562,cs),
(2136,922,o),
(1887,1142,o),
(1569,1142,cs),
(1355,1142,o),
(1151,1028,o),
(1074,865,c),
(1175,776,l),
(1249,909,o),
(1388,982,o),
(1566,982,cs),
(1821,982,o),
(1968,809,o),
(1968,545,cs),
(1968,294,o),
(1830,106,o),
(1582,106,cs),
(1546,106,o),
(1511,111,o),
(1478,125,c),
(1556,82,l),
(1553,102,o),
(1552,122,o),
(1552,142,cs),
(1552,354,o),
(1750,548,o),
(2032,613,c),
(1989,730,l),
(1639,671,o),
(1404,415,o),
(1404,99,cs),
(1404,74,o),
(1404,41,o),
(1407,15,c),
(1451,-8,o),
(1534,-24,o),
(1608,-24,cs)
);
},
{
closed = 1;
nodes = (
(988,-24,o),
(1198,98,o),
(1198,292,cs),
(1198,433,o),
(1112,525,o),
(940,573,c),
(940,545,l),
(1112,593,o),
(1198,685,o),
(1198,826,cs),
(1198,1020,o),
(988,1142,o),
(662,1142,cs),
(379,1142,o),
(166,1024,o),
(115,836,c),
(275,792,l),
(320,921,o),
(463,986,o),
(654,986,cs),
(881,986,o),
(1024,926,o),
(1024,800,cs),
(1024,669,o),
(848,632,o),
(634,629,c),
(634,489,l),
(848,486,o),
(1024,449,o),
(1024,318,cs),
(1024,192,o),
(881,132,o),
(654,132,cs),
(463,132,o),
(320,197,o),
(275,326,c),
(115,282,l),
(166,94,o),
(379,-24,o),
(662,-24,cs)
);
}
);
userData = {
assembly = "NPUSHB[ ]	/* 25 values pushed */
69 55 25 3 8 1 50 27 15 3 5 6 84 44 34 29 4 4 3 10 1 0 4 4 76 
MPPEM[ ]	/* MeasurePixelPerEm */
PUSHB[ ]	/* 1 value pushed */
11 
LT[ ]	/* LessThan */
IF[ ]	/* If */
NPUSHB[ ]	/* 54 values pushed */
0 8 1 6 1 8 114 0 11 5 3 5 11 3 128 0 3 4 4 3 112 0 6 0 5 11 6 5 105 7 1 1 1 9 97 10 1 9 9 37 77 12 1 4 4 0 98 2 1 0 0 38 0 78 
ELSE[ ]	/* Else */
MPPEM[ ]	/* MeasurePixelPerEm */
PUSHB[ ]	/* 1 value pushed */
13 
LT[ ]	/* LessThan */
IF[ ]	/* If */
NPUSHB[ ]	/* 55 values pushed */
0 8 1 6 1 8 6 128 0 11 5 3 5 11 3 128 0 3 4 4 3 112 0 6 0 5 11 6 5 105 7 1 1 1 9 97 10 1 9 9 37 77 12 1 4 4 0 98 2 1 0 0 38 0 78 
ELSE[ ]	/* Else */
NPUSHB[ ]	/* 56 values pushed */
0 8 1 6 1 8 6 128 0 11 5 3 5 11 3 128 0 3 4 5 3 4 126 0 6 0 5 11 6 5 105 7 1 1 1 9 97 10 1 9 9 37 77 12 1 4 4 0 98 2 1 0 0 38 0 78 
EIF[ ]	/* EndIf */
EIF[ ]	/* EndIf */
NPUSHB[ ]	/* 20 values pushed */
87 86 81 80 75 73 68 66 36 35 35 35 36 20 40 46 36 13 8 31 
CALL[ ]	/* CallFunction */";
};
width = 2262;
}
);
note = uni1021;
unicode = 4129;
}
{
glyphname = "a-shan";
layers = (
{
anchors = (
{
name = bottom;
pos = (1138,0);
},
{
name = bottomright;
pos = (1616,0);
},
{
name = top;
pos = (1616,1118);
}
);
layerId = "78B30572-30A3-488A-B9E2-AAE684162724";
shapes = (
{
closed = 1;
nodes = (
(454,-24,o),
(534,27,o),
(534,145,cs),
(534,355,o),
(222,524,o),
(222,771,cs),
(222,971,o),
(405,1097,o),
(642,1097,cs),
(994,1097,o),
(1159,897,o),
(1159,539,cs),
(1159,334,o),
(1060,133,o),
(897,7,c),
(930,-24,l),
(1099,104,o),
(1205,322,o),
(1205,539,cs),
(1205,637,o),
(1191,726,o),
(1163,806,c),
(1161,745,l),
(1225,958,o),
(1394,1097,o),
(1608,1097,cs),
(1900,1097,o),
(2080,895,o),
(2080,559,cs),
(2080,214,o),
(1903,21,o),
(1587,21,cs),
(1532,21,o),
(1478,30,o),
(1427,48,c),
(1413,5,l),
(1468,-14,o),
(1527,-24,o),
(1587,-24,cs),
(1933,-24,o),
(2126,185,o),
(2126,558,cs),
(2126,917,o),
(1929,1142,o),
(1608,1142,cs),
(1390,1142,o),
(1215,1013,o),
(1137,809,c),
(1164,809,l),
(1089,1022,o),
(927,1142,o),
(642,1142,cs),
(377,1142,o),
(176,1000,o),
(176,773,cs),
(176,495,o),
(488,342,o),
(488,148,cs),
(488,66,o),
(441,21,o),
(334,21,cs),
(283,21,o),
(222,35,o),
(162,61,c),
(150,16,l),
(215,-12,o),
(285,-24,o),
(342,-24,cs)
);
}
);
userData = {
assembly = "NPUSHB[ ]	/* 13 values pushed */
80 42 26 3 4 1 60 55 2 0 4 2 76 
MPPEM[ ]	/* MeasurePixelPerEm */
PUSHB[ ]	/* 1 value pushed */
25 
LT[ ]	/* LessThan */
IF[ ]	/* If */
NPUSHB[ ]	/* 31 values pushed */
0 4 1 0 0 4 114 2 1 1 1 6 97 7 1 6 6 37 77 5 1 0 0 3 98 0 3 3 38 3 78 
ELSE[ ]	/* Else */
NPUSHB[ ]	/* 32 values pushed */
0 4 1 0 1 4 0 128 2 1 1 1 6 97 7 1 6 6 37 77 5 1 0 0 3 98 0 3 3 38 3 78 
EIF[ ]	/* EndIf */
NPUSHB[ ]	/* 17 values pushed */
85 83 78 76 62 61 58 56 54 52 40 38 42 25 8 8 24 
CALL[ ]	/* CallFunction */";
};
width = 2276;
},
{
anchors = (
{
name = bottom;
pos = (1129,0);
},
{
name = bottomright;
pos = (1542,0);
},
{
name = top;
pos = (1542,1118);
}
);
layerId = m003;
shapes = (
{
closed = 1;
nodes = (
(475,-24,o),
(616,25,o),
(616,192,cs),
(616,375,o),
(454,464,o),
(454,637,cs),
(454,752,o),
(522,822,o),
(680,822,cs),
(846,822,o),
(946,712,o),
(946,537,cs),
(946,380,o),
(888,245,o),
(795,186,c),
(1022,-24,l),
(1200,74,o),
(1312,291,o),
(1312,538,cs),
(1312,592,o),
(1307,644,o),
(1297,692,c),
(1278,623,l),
(1321,745,o),
(1422,822,o),
(1556,822,cs),
(1710,822,o),
(1806,714,o),
(1806,542,cs),
(1806,408,o),
(1748,265,o),
(1567,265,cs),
(1533,265,o),
(1489,272,o),
(1455,284,c),
(1385,18,l),
(1447,-8,o),
(1538,-24,o),
(1634,-24,cs),
(1964,-24,o),
(2172,197,o),
(2172,548,cs),
(2172,905,o),
(1954,1142,o),
(1605,1142,cs),
(1335,1142,o),
(1131,1013,o),
(1058,801,c),
(1262,801,l),
(1175,1012,o),
(962,1142,o),
(660,1142,cs),
(329,1142,o),
(105,983,o),
(105,694,cs),
(105,454,o),
(264,378,o),
(264,295,cs),
(264,265,o),
(243,242,o),
(204,242,cs),
(183,242,o),
(153,248,o),
(132,258,c),
(80,16,l),
(144,-9,o),
(232,-24,o),
(319,-24,cs)
);
}
);
userData = {
assembly = "NPUSHB[ ]	/* 13 values pushed */
80 42 26 3 4 1 60 55 2 0 4 2 76 
MPPEM[ ]	/* MeasurePixelPerEm */
PUSHB[ ]	/* 1 value pushed */
25 
LT[ ]	/* LessThan */
IF[ ]	/* If */
NPUSHB[ ]	/* 31 values pushed */
0 4 1 0 0 4 114 2 1 1 1 6 97 7 1 6 6 37 77 5 1 0 0 3 98 0 3 3 38 3 78 
ELSE[ ]	/* Else */
NPUSHB[ ]	/* 32 values pushed */
0 4 1 0 1 4 0 128 2 1 1 1 6 97 7 1 6 6 37 77 5 1 0 0 3 98 0 3 3 38 3 78 
EIF[ ]	/* EndIf */
NPUSHB[ ]	/* 17 values pushed */
85 83 78 76 62 61 58 56 54 52 40 38 42 25 8 8 24 
CALL[ ]	/* CallFunction */";
};
width = 2258;
},
{
anchors = (
{
name = bottom;
pos = (1138,0);
},
{
name = bottomright;
pos = (1582,0);
},
{
name = top;
pos = (1582,1118);
}
);
hints = (
{
horizontal = 1;
origin = (0,67);
target = (0,31);
type = Stem;
},
{
horizontal = 1;
origin = (0,51);
target = (0,25);
type = Stem;
},
{
origin = (0,54);
target = (0,5);
type = Stem;
},
{
origin = (0,57);
target = (0,2);
type = Stem;
},
{
origin = (0,11);
target = (0,18);
type = Stem;
},
{
origin = (0,28);
target = (0,41);
type = Stem;
}
);
layerId = "F0604DE4-03AC-4980-9DDA-35F40FDF1E6E";
shapes = (
{
closed = 1;
nodes = (
(450,-24,o),
(556,36,o),
(556,174,cs),
(556,386,o),
(315,525,o),
(315,727,cs),
(315,886,o),
(459,982,o),
(673,982,cs),
(942,982,o),
(1071,823,o),
(1071,538,cs),
(1071,352,o),
(989,178,o),
(854,79,c),
(964,-24,l),
(1137,92,o),
(1245,310,o),
(1245,539,cs),
(1245,619,o),
(1235,693,o),
(1214,760,c),
(1205,696,l),
(1261,873,o),
(1407,982,o),
(1589,982,cs),
(1826,982,o),
(1972,823,o),
(1972,552,cs),
(1972,301,o),
(1834,122,o),
(1581,122,cs),
(1534,122,o),
(1484,130,o),
(1440,145,c),
(1403,10,l),
(1461,-12,o),
(1533,-24,o),
(1607,-24,cs),
(1938,-24,o),
(2146,199,o),
(2146,554,cs),
(2146,912,o),
(1941,1142,o),
(1608,1142,cs),
(1370,1142,o),
(1179,1013,o),
(1103,806,c),
(1201,806,l),
(1121,1018,o),
(941,1142,o),
(657,1142,cs),
(345,1142,o),
(141,992,o),
(141,741,cs),
(141,478,o),
(382,356,o),
(382,207,cs),
(382,149,o),
(340,112,o),
(272,112,cs),
(235,112,o),
(186,124,o),
(145,143,c),
(117,16,l),
(179,-11,o),
(255,-24,o),
(323,-24,cs)
);
}
);
userData = {
assembly = "NPUSHB[ ]	/* 13 values pushed */
80 42 26 3 4 1 60 55 2 0 4 2 76 
MPPEM[ ]	/* MeasurePixelPerEm */
PUSHB[ ]	/* 1 value pushed */
25 
LT[ ]	/* LessThan */
IF[ ]	/* If */
NPUSHB[ ]	/* 31 values pushed */
0 4 1 0 0 4 114 2 1 1 1 6 97 7 1 6 6 37 77 5 1 0 0 3 98 0 3 3 38 3 78 
ELSE[ ]	/* Else */
NPUSHB[ ]	/* 32 values pushed */
0 4 1 0 1 4 0 128 2 1 1 1 6 97 7 1 6 6 37 77 5 1 0 0 3 98 0 3 3 38 3 78 
EIF[ ]	/* EndIf */
NPUSHB[ ]	/* 17 values pushed */
85 83 78 76 62 61 58 56 54 52 40 38 42 25 8 8 24 
CALL[ ]	/* CallFunction */";
};
width = 2272;
}
);
note = uni1022;
unicode = 4130;
}
{
glyphname = "i-myanmar";
layers = (
{
anchors = (
{
name = bottom;
pos = (1138,-818);
},
{
name = bottomright;
pos = (1630,-820);
},
{
name = hamedial;
pos = (1644,-820);
},
{
name = top;
pos = (1616,1118);
},
{
name = wamedial;
pos = (1616,-820);
}
);
layerId = "78B30572-30A3-488A-B9E2-AAE684162724";
shapes = (
{
closed = 1;
nodes = (
(456,8,l),
(296,113,o),
(196,306,o),
(196,537,cs),
(196,878,o),
(381,1097,o),
(675,1097,cs),
(941,1097,o),
(1115,906,o),
(1115,623,cs),
(1115,221,l),
(1161,221,l),
(1161,623,ls),
(1161,909,o),
(1333,1097,o),
(1602,1097,cs),
(1892,1097,o),
(2080,875,o),
(2080,537,cs),
(2080,304,o),
(1981,114,o),
(1821,8,c),
(1852,-24,l),
(2020,74,o),
(2126,285,o),
(2126,538,cs),
(2126,901,o),
(1916,1142,o),
(1602,1142,cs),
(1356,1142,o),
(1170,991,o),
(1133,745,c),
(1144,745,l),
(1106,992,o),
(922,1142,o),
(675,1142,cs),
(362,1142,o),
(150,899,o),
(150,538,cs),
(150,283,o),
(256,74,o),
(424,-24,c)
);
},
{
closed = 1;
nodes = (
(625,-860,l),
(509,-794,o),
(437,-671,o),
(437,-512,cs),
(437,-280,o),
(567,-142,o),
(784,-142,cs),
(969,-142,o),
(1106,-258,o),
(1106,-388,cs),
(1106,-698,l),
(1153,-698,l),
(1153,-388,ls),
(1153,-256,o),
(1288,-142,o),
(1476,-142,cs),
(1689,-142,o),
(1823,-286,o),
(1823,-512,cs),
(1823,-676,o),
(1751,-793,o),
(1634,-860,c),
(1670,-888,l),
(1791,-826,o),
(1869,-685,o),
(1869,-509,cs),
(1869,-254,o),
(1720,-97,o),
(1475,-97,cs),
(1286,-97,o),
(1139,-208,o),
(1111,-350,c),
(1148,-350,l),
(1119,-209,o),
(975,-97,o),
(784,-97,cs),
(543,-97,o),
(390,-256,o),
(390,-509,cs),
(390,-688,o),
(467,-824,o),
(590,-888,c)
);
},
{
closed = 1;
nodes = (
(2120,-888,l),
(2120,-844,l),
(1806,-844,l),
(1634,-860,l),
(1634,-888,l)
);
}
);
userData = {
assembly = "NPUSHB[ ]	/* 20 values pushed */
54 1 2 1 8 1 0 2 98 1 6 8 75 71 70 3 10 6 4 76 
MPPEM[ ]	/* MeasurePixelPerEm */
PUSHB[ ]	/* 1 value pushed */
9 
LT[ ]	/* LessThan */
IF[ ]	/* If */
NPUSHB[ ]	/* 46 values pushed */
0 2 1 0 1 2 0 128 9 1 8 7 1 6 10 8 6 105 3 1 1 1 4 97 5 1 4 4 37 77 0 0 0 38 77 0 10 10 11 97 0 11 11 40 11 78 
ELSE[ ]	/* Else */
MPPEM[ ]	/* MeasurePixelPerEm */
PUSHB[ ]	/* 1 value pushed */
10 
LT[ ]	/* LessThan */
IF[ ]	/* If */
NPUSHB[ ]	/* 48 values pushed */
0 2 1 0 1 2 0 128 0 0 8 1 0 8 126 9 1 8 7 1 6 10 8 6 105 3 1 1 1 4 97 5 1 4 4 37 77 0 10 10 11 97 0 11 11 40 11 78 
ELSE[ ]	/* Else */
MPPEM[ ]	/* MeasurePixelPerEm */
PUSHB[ ]	/* 1 value pushed */
11 
LT[ ]	/* LessThan */
IF[ ]	/* If */
NPUSHB[ ]	/* 46 values pushed */
0 2 1 0 1 2 0 128 9 1 8 7 1 6 10 8 6 105 3 1 1 1 4 97 5 1 4 4 37 77 0 0 0 38 77 0 10 10 11 97 0 11 11 40 11 78 
ELSE[ ]	/* Else */
MPPEM[ ]	/* MeasurePixelPerEm */
PUSHB[ ]	/* 1 value pushed */
19 
LT[ ]	/* LessThan */
IF[ ]	/* If */
NPUSHB[ ]	/* 48 values pushed */
0 2 1 0 1 2 0 128 0 0 8 1 0 8 126 9 1 8 7 1 6 10 8 6 105 3 1 1 1 4 97 5 1 4 4 37 77 0 10 10 11 97 0 11 11 40 11 78 
ELSE[ ]	/* Else */
MPPEM[ ]	/* MeasurePixelPerEm */
PUSHB[ ]	/* 1 value pushed */
21 
LT[ ]	/* LessThan */
IF[ ]	/* If */
NPUSHB[ ]	/* 46 values pushed */
0 2 1 0 1 2 0 128 9 1 8 7 1 6 10 8 6 105 3 1 1 1 4 97 5 1 4 4 37 77 0 0 0 38 77 0 10 10 11 97 0 11 11 40 11 78 
ELSE[ ]	/* Else */
NPUSHB[ ]	/* 48 values pushed */
0 2 1 0 1 2 0 128 0 0 8 1 0 8 126 9 1 8 7 1 6 10 8 6 105 3 1 1 1 4 97 5 1 4 4 37 77 0 10 10 11 97 0 11 11 40 11 78 
EIF[ ]	/* EndIf */
EIF[ ]	/* EndIf */
EIF[ ]	/* EndIf */
EIF[ ]	/* EndIf */
EIF[ ]	/* EndIf */
NPUSHB[ ]	/* 18 values pushed */
123 122 115 114 103 101 47 45 37 36 46 39 24 41 37 12 8 31 
CALL[ ]	/* CallFunction */";
};
width = 2276;
},
{
anchors = (
{
name = bottom;
pos = (1129,-820);
},
{
name = bottomright;
pos = (1559,-820);
},
{
name = hamedial;
pos = (1553,-820);
},
{
name = top;
pos = (1542,1118);
},
{
name = wamedial;
pos = (1564,-820);
}
);
layerId = m003;
shapes = (
{
closed = 1;
nodes = (
(608,191,l),
(518,248,o),
(452,381,o),
(452,537,cs),
(452,706,o),
(560,822,o),
(703,822,cs),
(858,822,o),
(951,723,o),
(951,547,cs),
(951,221,l),
(1307,221,l),
(1307,547,ls),
(1307,723,o),
(1400,822,o),
(1555,822,cs),
(1698,822,o),
(1806,706,o),
(1806,537,cs),
(1806,381,o),
(1740,248,o),
(1650,191,c),
(1882,-24,l),
(2060,74,o),
(2172,291,o),
(2172,538,cs),
(2172,909,o),
(1928,1142,o),
(1555,1142,cs),
(1273,1142,o),
(1104,1012,o),
(1017,801,c),
(1241,801,l),
(1154,1012,o),
(985,1142,o),
(703,1142,cs),
(330,1142,o),
(86,909,o),
(86,538,cs),
(86,291,o),
(198,74,o),
(376,-24,c)
);
},
{
closed = 1;
nodes = (
(798,-708,l),
(730,-671,o),
(687,-596,o),
(687,-512,cs),
(687,-409,o),
(745,-344,o),
(837,-344,cs),
(925,-344,o),
(981,-411,o),
(981,-519,cs),
(981,-698,l),
(1266,-698,l),
(1266,-519,ls),
(1266,-411,o),
(1322,-344,o),
(1410,-344,cs),
(1496,-344,o),
(1550,-407,o),
(1550,-508,cs),
(1550,-617,o),
(1512,-706,o),
(1451,-740,c),
(1623,-885,l),
(1791,-801,o),
(1897,-646,o),
(1897,-481,cs),
(1897,-245,o),
(1724,-97,o),
(1448,-97,cs),
(1259,-97,o),
(1101,-186,o),
(1039,-328,c),
(1209,-328,l),
(1148,-186,o),
(990,-97,o),
(800,-97,cs),
(519,-97,o),
(342,-256,o),
(342,-509,cs),
(342,-679,o),
(423,-825,o),
(552,-888,c)
);
},
{
closed = 1;
nodes = (
(2172,-888,l),
(2172,-650,l),
(1705,-650,l),
(1451,-740,l),
(1451,-888,l)
);
}
);
userData = {
assembly = "NPUSHB[ ]	/* 20 values pushed */
54 1 2 1 8 1 0 2 98 1 6 8 75 71 70 3 10 6 4 76 
MPPEM[ ]	/* MeasurePixelPerEm */
PUSHB[ ]	/* 1 value pushed */
9 
LT[ ]	/* LessThan */
IF[ ]	/* If */
NPUSHB[ ]	/* 46 values pushed */
0 2 1 0 1 2 0 128 9 1 8 7 1 6 10 8 6 105 3 1 1 1 4 97 5 1 4 4 37 77 0 0 0 38 77 0 10 10 11 97 0 11 11 40 11 78 
ELSE[ ]	/* Else */
MPPEM[ ]	/* MeasurePixelPerEm */
PUSHB[ ]	/* 1 value pushed */
10 
LT[ ]	/* LessThan */
IF[ ]	/* If */
NPUSHB[ ]	/* 48 values pushed */
0 2 1 0 1 2 0 128 0 0 8 1 0 8 126 9 1 8 7 1 6 10 8 6 105 3 1 1 1 4 97 5 1 4 4 37 77 0 10 10 11 97 0 11 11 40 11 78 
ELSE[ ]	/* Else */
MPPEM[ ]	/* MeasurePixelPerEm */
PUSHB[ ]	/* 1 value pushed */
11 
LT[ ]	/* LessThan */
IF[ ]	/* If */
NPUSHB[ ]	/* 46 values pushed */
0 2 1 0 1 2 0 128 9 1 8 7 1 6 10 8 6 105 3 1 1 1 4 97 5 1 4 4 37 77 0 0 0 38 77 0 10 10 11 97 0 11 11 40 11 78 
ELSE[ ]	/* Else */
MPPEM[ ]	/* MeasurePixelPerEm */
PUSHB[ ]	/* 1 value pushed */
19 
LT[ ]	/* LessThan */
IF[ ]	/* If */
NPUSHB[ ]	/* 48 values pushed */
0 2 1 0 1 2 0 128 0 0 8 1 0 8 126 9 1 8 7 1 6 10 8 6 105 3 1 1 1 4 97 5 1 4 4 37 77 0 10 10 11 97 0 11 11 40 11 78 
ELSE[ ]	/* Else */
MPPEM[ ]	/* MeasurePixelPerEm */
PUSHB[ ]	/* 1 value pushed */
21 
LT[ ]	/* LessThan */
IF[ ]	/* If */
NPUSHB[ ]	/* 46 values pushed */
0 2 1 0 1 2 0 128 9 1 8 7 1 6 10 8 6 105 3 1 1 1 4 97 5 1 4 4 37 77 0 0 0 38 77 0 10 10 11 97 0 11 11 40 11 78 
ELSE[ ]	/* Else */
NPUSHB[ ]	/* 48 values pushed */
0 2 1 0 1 2 0 128 0 0 8 1 0 8 126 9 1 8 7 1 6 10 8 6 105 3 1 1 1 4 97 5 1 4 4 37 77 0 10 10 11 97 0 11 11 40 11 78 
EIF[ ]	/* EndIf */
EIF[ ]	/* EndIf */
EIF[ ]	/* EndIf */
EIF[ ]	/* EndIf */
EIF[ ]	/* EndIf */
NPUSHB[ ]	/* 18 values pushed */
123 122 115 114 103 101 47 45 37 36 46 39 24 41 37 12 8 31 
CALL[ ]	/* CallFunction */";
};
width = 2258;
},
{
anchors = (
{
name = bottom;
pos = (1129,-820);
},
{
name = bottomright;
pos = (1602,-820);
},
{
name = hamedial;
pos = (1607,-820);
},
{
name = top;
pos = (1582,1118);
},
{
name = wamedial;
pos = (1597,-820);
}
);
hints = (
{
horizontal = 1;
origin = (2,4);
target = (2,2);
type = Stem;
},
{
horizontal = 1;
origin = (1,15);
target = (1,35);
type = Stem;
},
{
horizontal = 1;
origin = (0,41);
target = up;
type = BottomGhost;
},
{
horizontal = 1;
origin = (0,35);
target = (0,15);
type = Stem;
},
{
origin = (0,38);
target = (0,3);
type = Stem;
},
{
origin = (1,38);
target = (1,3);
type = Stem;
},
{
origin = (0,10);
target = (0,12);
type = Stem;
},
{
origin = (1,18);
target = (1,25);
type = Stem;
},
{
origin = (0,18);
target = (0,25);
type = Stem;
}
);
layerId = "F0604DE4-03AC-4980-9DDA-35F40FDF1E6E";
shapes = (
{
closed = 1;
nodes = (
(518,81,l),
(386,167,o),
(300,336,o),
(300,537,cs),
(300,809,o),
(454,982,o),
(688,982,cs),
(909,982,o),
(1051,833,o),
(1051,593,cs),
(1051,221,l),
(1221,221,l),
(1221,593,ls),
(1221,835,o),
(1361,982,o),
(1585,982,cs),
(1816,982,o),
(1972,807,o),
(1972,537,cs),
(1972,335,o),
(1886,168,o),
(1754,81,c),
(1866,-24,l),
(2038,74,o),
(2146,287,o),
(2146,538,cs),
(2146,904,o),
(1922,1142,o),
(1585,1142,cs),
(1324,1142,o),
(1145,999,o),
(1088,767,c),
(1184,767,l),
(1127,1000,o),
(949,1142,o),
(688,1142,cs),
(351,1142,o),
(126,903,o),
(126,538,cs),
(126,286,o),
(234,74,o),
(406,-24,c)
);
},
{
closed = 1;
nodes = (
(696,-799,l),
(599,-745,o),
(538,-641,o),
(538,-512,cs),
(538,-332,o),
(640,-227,o),
(807,-227,cs),
(953,-227,o),
(1058,-319,o),
(1058,-450,cs),
(1058,-698,l),
(1200,-698,l),
(1200,-450,ls),
(1200,-318,o),
(1303,-227,o),
(1451,-227,cs),
(1613,-227,o),
(1716,-334,o),
(1716,-510,cs),
(1716,-652,o),
(1657,-748,o),
(1562,-802,c),
(1653,-887,l),
(1793,-816,o),
(1882,-669,o),
(1882,-498,cs),
(1882,-250,o),
(1723,-97,o),
(1466,-97,cs),
(1277,-97,o),
(1125,-199,o),
(1084,-341,c),
(1174,-341,l),
(1132,-200,o),
(983,-97,o),
(792,-97,cs),
(535,-97,o),
(372,-256,o),
(372,-509,cs),
(372,-684,o),
(451,-824,o),
(576,-888,c)
);
},
{
closed = 1;
nodes = (
(2142,-888,l),
(2142,-766,l),
(1767,-766,l),
(1562,-802,l),
(1562,-888,l)
);
}
);
userData = {
assembly = "NPUSHB[ ]	/* 20 values pushed */
54 1 2 1 8 1 0 2 98 1 6 8 75 71 70 3 10 6 4 76 
MPPEM[ ]	/* MeasurePixelPerEm */
PUSHB[ ]	/* 1 value pushed */
9 
LT[ ]	/* LessThan */
IF[ ]	/* If */
NPUSHB[ ]	/* 46 values pushed */
0 2 1 0 1 2 0 128 9 1 8 7 1 6 10 8 6 105 3 1 1 1 4 97 5 1 4 4 37 77 0 0 0 38 77 0 10 10 11 97 0 11 11 40 11 78 
ELSE[ ]	/* Else */
MPPEM[ ]	/* MeasurePixelPerEm */
PUSHB[ ]	/* 1 value pushed */
10 
LT[ ]	/* LessThan */
IF[ ]	/* If */
NPUSHB[ ]	/* 48 values pushed */
0 2 1 0 1 2 0 128 0 0 8 1 0 8 126 9 1 8 7 1 6 10 8 6 105 3 1 1 1 4 97 5 1 4 4 37 77 0 10 10 11 97 0 11 11 40 11 78 
ELSE[ ]	/* Else */
MPPEM[ ]	/* MeasurePixelPerEm */
PUSHB[ ]	/* 1 value pushed */
11 
LT[ ]	/* LessThan */
IF[ ]	/* If */
NPUSHB[ ]	/* 46 values pushed */
0 2 1 0 1 2 0 128 9 1 8 7 1 6 10 8 6 105 3 1 1 1 4 97 5 1 4 4 37 77 0 0 0 38 77 0 10 10 11 97 0 11 11 40 11 78 
ELSE[ ]	/* Else */
MPPEM[ ]	/* MeasurePixelPerEm */
PUSHB[ ]	/* 1 value pushed */
19 
LT[ ]	/* LessThan */
IF[ ]	/* If */
NPUSHB[ ]	/* 48 values pushed */
0 2 1 0 1 2 0 128 0 0 8 1 0 8 126 9 1 8 7 1 6 10 8 6 105 3 1 1 1 4 97 5 1 4 4 37 77 0 10 10 11 97 0 11 11 40 11 78 
ELSE[ ]	/* Else */
MPPEM[ ]	/* MeasurePixelPerEm */
PUSHB[ ]	/* 1 value pushed */
21 
LT[ ]	/* LessThan */
IF[ ]	/* If */
NPUSHB[ ]	/* 46 values pushed */
0 2 1 0 1 2 0 128 9 1 8 7 1 6 10 8 6 105 3 1 1 1 4 97 5 1 4 4 37 77 0 0 0 38 77 0 10 10 11 97 0 11 11 40 11 78 
ELSE[ ]	/* Else */
NPUSHB[ ]	/* 48 values pushed */
0 2 1 0 1 2 0 128 0 0 8 1 0 8 126 9 1 8 7 1 6 10 8 6 105 3 1 1 1 4 97 5 1 4 4 37 77 0 10 10 11 97 0 11 11 40 11 78 
EIF[ ]	/* EndIf */
EIF[ ]	/* EndIf */
EIF[ ]	/* EndIf */
EIF[ ]	/* EndIf */
EIF[ ]	/* EndIf */
NPUSHB[ ]	/* 18 values pushed */
123 122 115 114 103 101 47 45 37 36 46 39 24 41 37 12 8 31 
CALL[ ]	/* CallFunction */";
};
width = 2272;
}
);
note = uni1023;
unicode = 4131;
}
{
glyphname = "ii-myanmar";
layers = (
{
anchors = (
{
name = top;
pos = (1156,1118);
}
);
layerId = "78B30572-30A3-488A-B9E2-AAE684162724";
shapes = (
{
closed = 1;
nodes = (
(1745,-888,ls),
(1911,-888,o),
(2015,-784,o),
(2015,-618,cs),
(2015,560,ls),
(2015,919,o),
(1830,1142,o),
(1526,1142,cs),
(1321,1142,o),
(1155,1016,o),
(1081,811,c),
(1104,811,l),
(1033,1021,o),
(871,1142,o),
(648,1142,cs),
(342,1142,o),
(150,911,o),
(150,541,cs),
(150,321,o),
(250,103,o),
(409,-24,c),
(442,7,l),
(290,126,o),
(196,331,o),
(196,541,cs),
(196,883,o),
(370,1097,o),
(648,1097,cs),
(926,1097,o),
(1100,883,o),
(1100,541,cs),
(1100,331,o),
(1006,126,o),
(854,7,c),
(887,-24,l),
(1046,103,o),
(1146,321,o),
(1146,541,cs),
(1146,639,o),
(1132,728,o),
(1107,805,c),
(1105,747,l),
(1165,961,o),
(1325,1097,o),
(1526,1097,cs),
(1803,1097,o),
(1969,890,o),
(1969,560,cs),
(1969,-618,ls),
(1969,-756,o),
(1883,-843,o),
(1745,-843,cs),
(476,-843,ls),
(304,-843,o),
(196,-760,o),
(196,-646,cs),
(196,-500,o),
(383,-411,o),
(688,-411,cs),
(912,-411,o),
(1235,-460,o),
(1380,-516,c),
(1392,-471,l),
(1190,-409,o),
(910,-367,o),
(699,-367,cs),
(354,-367,o),
(150,-471,o),
(150,-648,cs),
(150,-787,o),
(276,-888,o),
(476,-888,cs)
);
},
{
closed = 1;
nodes = (
(2389,-888,l),
(2389,793,ls),
(2389,986,o),
(2243,1115,o),
(2098,1243,cs),
(1958,1366,o),
(1820,1489,o),
(1820,1666,cs),
(1820,1836,o),
(1941,1944,o),
(2135,1944,cs),
(2241,1944,o),
(2348,1907,o),
(2413,1849,c),
(2438,1881,l),
(2369,1944,o),
(2252,1984,o),
(2136,1984,cs),
(1917,1984,o),
(1780,1861,o),
(1780,1664,cs),
(1780,1472,o),
(1925,1342,o),
(2068,1216,cs),
(2207,1093,o),
(2343,971,o),
(2343,795,cs),
(2343,-888,l)
);
}
);
userData = {
assembly = "NPUSHB[ ]	/* 26 values pushed */
17 1 2 3 28 27 2 12 2 105 1 10 9 59 44 34 3 8 6 4 76 95 1 10 1 75 
MPPEM[ ]	/* MeasurePixelPerEm */
PUSHB[ ]	/* 1 value pushed */
17 
LT[ ]	/* LessThan */
IF[ ]	/* If */
NPUSHB[ ]	/* 62 values pushed */
0 2 3 12 3 2 114 0 6 7 8 7 6 8 128 0 5 0 7 6 5 7 105 0 3 3 1 97 0 1 1 39 77 11 1 9 9 12 97 13 1 12 12 37 77 0 10 10 38 77 0 8 8 0 97 4 1 0 0 40 0 78 
ELSE[ ]	/* Else */
MPPEM[ ]	/* MeasurePixelPerEm */
PUSHB[ ]	/* 1 value pushed */
33 
LT[ ]	/* LessThan */
IF[ ]	/* If */
NPUSHB[ ]	/* 63 values pushed */
0 2 3 12 3 2 12 128 0 6 7 8 7 6 8 128 0 5 0 7 6 5 7 105 0 3 3 1 97 0 1 1 39 77 11 1 9 9 12 97 13 1 12 12 37 77 0 10 10 38 77 0 8 8 0 97 4 1 0 0 40 0 78 
ELSE[ ]	/* Else */
NPUSHB[ ]	/* 61 values pushed */
0 2 3 12 3 2 12 128 0 6 7 8 7 6 8 128 0 1 0 3 2 1 3 105 0 5 0 7 6 5 7 105 11 1 9 9 12 97 13 1 12 12 37 77 0 10 10 38 77 0 8 8 0 97 4 1 0 0 40 0 78 
EIF[ ]	/* EndIf */
EIF[ ]	/* EndIf */
NPUSHB[ ]	/* 22 values pushed */
112 110 103 101 86 84 76 75 70 68 35 35 20 37 47 34 35 42 33 14 8 31 
CALL[ ]	/* CallFunction */";
};
width = 2559;
},
{
anchors = (
{
name = top;
pos = (1142,1118);
}
);
layerId = m003;
shapes = (
{
closed = 1;
nodes = (
(1774,-888,ls),
(2019,-888,o),
(2172,-757,o),
(2172,-548,cs),
(2172,548,ls),
(2172,905,o),
(1954,1142,o),
(1605,1142,cs),
(1335,1142,o),
(1121,1013,o),
(1048,801,c),
(1252,801,l),
(1165,1012,o),
(966,1142,o),
(694,1142,cs),
(321,1142,o),
(86,909,o),
(86,538,cs),
(86,291,o),
(198,74,o),
(376,-24,c),
(608,191,l),
(512,252,o),
(452,385,o),
(452,537,cs),
(452,712,o),
(545,822,o),
(694,822,cs),
(843,822,o),
(936,712,o),
(936,537,cs),
(936,385,o),
(876,252,o),
(780,191,c),
(1012,-24,l),
(1190,74,o),
(1302,291,o),
(1302,538,cs),
(1302,592,o),
(1297,644,o),
(1287,692,c),
(1276,611,l),
(1324,749,o),
(1438,822,o),
(1556,822,cs),
(1736,822,o),
(1832,677,o),
(1832,542,cs),
(1832,-498,ls),
(1832,-581,o),
(1785,-628,o),
(1702,-628,cs),
(516,-628,ls),
(448,-628,o),
(406,-593,o),
(406,-537,cs),
(406,-431,o),
(565,-402,o),
(760,-402,cs),
(1010,-402,o),
(1319,-449,o),
(1434,-473,c),
(1493,-236,l),
(1309,-193,o),
(1033,-149,o),
(753,-149,cs),
(402,-149,o),
(86,-241,o),
(86,-546,cs),
(86,-770,o),
(248,-888,o),
(507,-888,cs)
);
},
{
closed = 1;
nodes = (
(2720,-888,l),
(2720,903,ls),
(2720,1231,o),
(2547,1373,o),
(2413,1483,cs),
(2330,1551,o),
(2262,1607,o),
(2262,1687,cs),
(2262,1779,o),
(2346,1828,o),
(2445,1828,cs),
(2525,1828,o),
(2614,1800,o),
(2678,1735,c),
(2814,1911,l),
(2728,2011,o),
(2556,2074,o),
(2367,2074,cs),
(2094,2074,o),
(1923,1925,o),
(1923,1701,cs),
(1923,1497,o),
(2043,1382,o),
(2161,1272,cs),
(2273,1167,o),
(2380,1064,o),
(2380,890,cs),
(2380,-888,l)
);
}
);
userData = {
assembly = "NPUSHB[ ]	/* 26 values pushed */
17 1 2 3 28 27 2 12 2 105 1 10 9 59 44 34 3 8 6 4 76 95 1 10 1 75 
MPPEM[ ]	/* MeasurePixelPerEm */
PUSHB[ ]	/* 1 value pushed */
17 
LT[ ]	/* LessThan */
IF[ ]	/* If */
NPUSHB[ ]	/* 62 values pushed */
0 2 3 12 3 2 114 0 6 7 8 7 6 8 128 0 5 0 7 6 5 7 105 0 3 3 1 97 0 1 1 39 77 11 1 9 9 12 97 13 1 12 12 37 77 0 10 10 38 77 0 8 8 0 97 4 1 0 0 40 0 78 
ELSE[ ]	/* Else */
MPPEM[ ]	/* MeasurePixelPerEm */
PUSHB[ ]	/* 1 value pushed */
33 
LT[ ]	/* LessThan */
IF[ ]	/* If */
NPUSHB[ ]	/* 63 values pushed */
0 2 3 12 3 2 12 128 0 6 7 8 7 6 8 128 0 5 0 7 6 5 7 105 0 3 3 1 97 0 1 1 39 77 11 1 9 9 12 97 13 1 12 12 37 77 0 10 10 38 77 0 8 8 0 97 4 1 0 0 40 0 78 
ELSE[ ]	/* Else */
NPUSHB[ ]	/* 61 values pushed */
0 2 3 12 3 2 12 128 0 6 7 8 7 6 8 128 0 1 0 3 2 1 3 105 0 5 0 7 6 5 7 105 11 1 9 9 12 97 13 1 12 12 37 77 0 10 10 38 77 0 8 8 0 97 4 1 0 0 40 0 78 
EIF[ ]	/* EndIf */
EIF[ ]	/* EndIf */
NPUSHB[ ]	/* 22 values pushed */
112 110 103 101 86 84 76 75 70 68 35 35 20 37 47 34 35 42 33 14 8 31 
CALL[ ]	/* CallFunction */";
};
width = 2846;
},
{
anchors = (
{
name = top;
pos = (1152,1118);
}
);
hints = (
{
horizontal = 1;
origin = (1,27);
target = (0,52);
type = Stem;
},
{
horizontal = 1;
origin = (0,58);
target = (0,65);
type = Stem;
},
{
horizontal = 1;
origin = (0,34);
target = up;
type = BottomGhost;
},
{
horizontal = 1;
origin = (0,14);
target = (0,44);
type = Stem;
},
{
horizontal = 1;
origin = (1,10);
target = (1,17);
type = Stem;
},
{
origin = (0,68);
target = (0,55);
type = Stem;
},
{
origin = (0,30);
target = (0,37);
type = Stem;
},
{
origin = (0,48);
target = (0,4);
type = Stem;
},
{
origin = (1,27);
target = (1,1);
type = Stem;
},
{
origin = (0,68);
target = (0,24);
type = Stem;
},
{
origin = (1,20);
target = (1,7);
type = Stem;
}
);
layerId = "F0604DE4-03AC-4980-9DDA-35F40FDF1E6E";
shapes = (
{
closed = 1;
nodes = (
(1758,-888,ls),
(1956,-888,o),
(2079,-773,o),
(2079,-590,cs),
(2079,555,ls),
(2079,916,o),
(1879,1142,o),
(1559,1142,cs),
(1328,1142,o),
(1143,1015,o),
(1069,807,c),
(1165,807,l),
(1085,1021,o),
(906,1142,o),
(668,1142,cs),
(335,1142,o),
(126,910,o),
(126,540,cs),
(126,309,o),
(224,107,o),
(400,-24,c),
(521,87,l),
(375,204,o),
(300,358,o),
(300,539,cs),
(300,814,o),
(441,982,o),
(668,982,cs),
(895,982,o),
(1036,814,o),
(1036,539,cs),
(1036,358,o),
(961,204,o),
(815,87,c),
(936,-24,l),
(1112,107,o),
(1210,309,o),
(1210,540,cs),
(1210,619,o),
(1200,693,o),
(1181,760,c),
(1175,693,l),
(1229,873,o),
(1370,982,o),
(1540,982,cs),
(1768,982,o),
(1907,816,o),
(1907,553,cs),
(1907,-570,ls),
(1907,-684,o),
(1844,-734,o),
(1725,-734,cs),
(494,-734,ls),
(366,-734,o),
(296,-695,o),
(296,-602,cs),
(296,-480,o),
(438,-423,o),
(718,-423,cs),
(929,-423,o),
(1253,-464,o),
(1403,-512,c),
(1434,-368,l),
(1221,-309,o),
(942,-271,o),
(722,-271,cs),
(346,-271,o),
(126,-395,o),
(126,-607,cs),
(126,-780,o),
(266,-888,o),
(490,-888,cs)
);
},
{
closed = 1;
nodes = (
(2523,-888,l),
(2523,846,ls),
(2523,1089,o),
(2365,1230,o),
(2222,1357,cs),
(2106,1460,o),
(2000,1556,o),
(2000,1689,cs),
(2000,1812,o),
(2102,1889,o),
(2265,1889,cs),
(2353,1889,o),
(2440,1861,o),
(2492,1816,c),
(2573,1922,l),
(2495,1988,o),
(2369,2029,o),
(2246,2029,cs),
(1995,2029,o),
(1838,1900,o),
(1838,1694,cs),
(1838,1493,o),
(1972,1368,o),
(2104,1246,cs),
(2229,1130,o),
(2351,1016,o),
(2351,842,cs),
(2351,-888,l)
);
}
);
userData = {
assembly = "NPUSHB[ ]	/* 26 values pushed */
17 1 2 3 28 27 2 12 2 105 1 10 9 59 44 34 3 8 6 4 76 95 1 10 1 75 
MPPEM[ ]	/* MeasurePixelPerEm */
PUSHB[ ]	/* 1 value pushed */
17 
LT[ ]	/* LessThan */
IF[ ]	/* If */
NPUSHB[ ]	/* 62 values pushed */
0 2 3 12 3 2 114 0 6 7 8 7 6 8 128 0 5 0 7 6 5 7 105 0 3 3 1 97 0 1 1 39 77 11 1 9 9 12 97 13 1 12 12 37 77 0 10 10 38 77 0 8 8 0 97 4 1 0 0 40 0 78 
ELSE[ ]	/* Else */
MPPEM[ ]	/* MeasurePixelPerEm */
PUSHB[ ]	/* 1 value pushed */
33 
LT[ ]	/* LessThan */
IF[ ]	/* If */
NPUSHB[ ]	/* 63 values pushed */
0 2 3 12 3 2 12 128 0 6 7 8 7 6 8 128 0 5 0 7 6 5 7 105 0 3 3 1 97 0 1 1 39 77 11 1 9 9 12 97 13 1 12 12 37 77 0 10 10 38 77 0 8 8 0 97 4 1 0 0 40 0 78 
ELSE[ ]	/* Else */
NPUSHB[ ]	/* 61 values pushed */
0 2 3 12 3 2 12 128 0 6 7 8 7 6 8 128 0 1 0 3 2 1 3 105 0 5 0 7 6 5 7 105 11 1 9 9 12 97 13 1 12 12 37 77 0 10 10 38 77 0 8 8 0 97 4 1 0 0 40 0 78 
EIF[ ]	/* EndIf */
EIF[ ]	/* EndIf */
NPUSHB[ ]	/* 22 values pushed */
112 110 103 101 86 84 76 75 70 68 35 35 20 37 47 34 35 42 33 14 8 31 
CALL[ ]	/* CallFunction */";
};
width = 2677;
}
);
note = uni1024;
unicode = 4132;
}
{
glyphname = "u-myanmar";
kernLeft = "nya-myanmar";
layers = (
{
anchors = (
{
name = top;
pos = (641,1118);
}
);
layerId = "78B30572-30A3-488A-B9E2-AAE684162724";
shapes = (
{
closed = 1;
nodes = (
(911,-888,ls),
(1081,-888,o),
(1187,-784,o),
(1187,-618,cs),
(1187,-452,o),
(1081,-348,o),
(911,-348,cs),
(779,-348,o),
(651,-400,o),
(585,-484,c),
(617,-514,l),
(676,-440,o),
(791,-393,o),
(911,-393,cs),
(1052,-393,o),
(1141,-480,o),
(1141,-618,cs),
(1141,-756,o),
(1052,-843,o),
(911,-843,cs),
(445,-843,ls),
(305,-843,o),
(216,-756,o),
(216,-618,cs),
(216,224,l),
(198,203,l),
(296,63,o),
(453,-24,o),
(641,-24,cs),
(957,-24,o),
(1190,222,o),
(1190,559,cs),
(1190,896,o),
(957,1142,o),
(641,1142,cs),
(434,1142,o),
(264,1037,o),
(170,869,c),
(212,852,l),
(298,1003,o),
(451,1097,o),
(641,1097,cs),
(935,1097,o),
(1144,873,o),
(1144,559,cs),
(1144,245,o),
(935,21,o),
(641,21,cs),
(451,21,o),
(298,115,o),
(212,266,c),
(170,249,l),
(170,-618,ls),
(170,-784,o),
(276,-888,o),
(445,-888,cs)
);
}
);
userData = {
assembly = "NPUSHB[ ]	/* 92 values pushed */
20 1 3 2 0 1 1 0 32 1 5 1 3 76 0 3 2 0 2 3 0 128 0 0 1 2 0 1 126 0 8 7 6 7 8 6 128 0 9 0 7 8 9 7 105 0 2 2 4 97 0 4 4 37 77 0 1 1 5 97 0 5 5 38 77 0 6 6 10 95 0 10 10 40 10 78 63 60 54 52 34 36 52 36 36 34 36 37 17 11 8 31 
CALL[ ]	/* CallFunction */";
};
width = 1340;
},
{
anchors = (
{
name = top;
pos = (689,1118);
}
);
layerId = m003;
shapes = (
{
closed = 1;
nodes = (
(905,-888,ls),
(1164,-888,o),
(1326,-747,o),
(1326,-523,cs),
(1326,-341,o),
(1215,-175,o),
(929,-175,cs),
(811,-175,o),
(700,-200,o),
(618,-244,c),
(704,-473,l),
(766,-445,o),
(818,-437,o),
(861,-437,cs),
(965,-437,o),
(1008,-484,o),
(1008,-532,cs),
(1008,-580,o),
(964,-628,o),
(896,-628,cs),
(600,-628,ls),
(520,-628,o),
(470,-578,o),
(470,-498,cs),
(470,145,l),
(375,123,l),
(470,31,o),
(588,-24,o),
(729,-24,cs),
(1089,-24,o),
(1326,207,o),
(1326,559,cs),
(1326,919,o),
(1080,1142,o),
(689,1142,cs),
(364,1142,o),
(141,982,o),
(110,728,c),
(426,646,l),
(446,754,o),
(547,822,o),
(689,822,cs),
(855,822,o),
(960,721,o),
(960,559,cs),
(960,397,o),
(855,296,o),
(689,296,cs),
(577,296,o),
(476,354,o),
(456,442,c),
(140,360,l),
(140,-568,ls),
(140,-756,o),
(272,-888,o),
(460,-888,cs)
);
}
);
userData = {
assembly = "NPUSHB[ ]	/* 92 values pushed */
20 1 3 2 0 1 1 0 32 1 5 1 3 76 0 3 2 0 2 3 0 128 0 0 1 2 0 1 126 0 8 7 6 7 8 6 128 0 9 0 7 8 9 7 105 0 2 2 4 97 0 4 4 37 77 0 1 1 5 97 0 5 5 38 77 0 6 6 10 95 0 10 10 40 10 78 63 60 54 52 34 36 52 36 36 34 36 37 17 11 8 31 
CALL[ ]	/* CallFunction */";
};
width = 1412;
},
{
anchors = (
{
name = top;
pos = (664,1118);
}
);
hints = (
{
horizontal = 1;
origin = (0,55);
target = (0,20);
type = Stem;
},
{
horizontal = 1;
origin = (0,13);
target = (0,6);
type = Stem;
},
{
horizontal = 1;
origin = (0,28);
target = (0,47);
type = Stem;
},
{
horizontal = 1;
origin = (0,34);
target = (0,41);
type = Stem;
},
{
origin = (0,52);
target = (0,24);
type = Stem;
},
{
origin = (0,44);
target = (0,31);
type = Stem;
},
{
origin = (0,16);
target = (0,3);
type = Stem;
}
);
layerId = "F0604DE4-03AC-4980-9DDA-35F40FDF1E6E";
shapes = (
{
closed = 1;
nodes = (
(913,-888,ls),
(1118,-888,o),
(1246,-769,o),
(1246,-580,cs),
(1246,-395,o),
(1117,-279,o),
(912,-279,cs),
(793,-279,o),
(669,-321,o),
(598,-388,c),
(659,-513,l),
(716,-460,o),
(806,-427,o),
(895,-427,cs),
(1010,-427,o),
(1082,-488,o),
(1082,-584,cs),
(1082,-676,o),
(1015,-734,o),
(909,-734,cs),
(511,-734,ls),
(395,-734,o),
(326,-684,o),
(326,-570,cs),
(326,192,l),
(273,171,l),
(370,50,o),
(511,-24,o),
(680,-24,cs),
(1014,-24,o),
(1248,216,o),
(1248,559,cs),
(1248,905,o),
(1010,1142,o),
(664,1142,cs),
(410,1142,o),
(219,1015,o),
(150,813,c),
(302,770,l),
(361,903,o),
(493,982,o),
(664,982,cs),
(907,982,o),
(1074,812,o),
(1074,559,cs),
(1074,306,o),
(907,136,o),
(664,136,cs),
(505,136,o),
(373,211,o),
(314,336,c),
(162,293,l),
(162,-598,ls),
(162,-776,o),
(275,-888,o),
(455,-888,cs)
);
}
);
userData = {
assembly = "NPUSHB[ ]	/* 92 values pushed */
20 1 3 2 0 1 1 0 32 1 5 1 3 76 0 3 2 0 2 3 0 128 0 0 1 2 0 1 126 0 8 7 6 7 8 6 128 0 9 0 7 8 9 7 105 0 2 2 4 97 0 4 4 37 77 0 1 1 5 97 0 5 5 38 77 0 6 6 10 95 0 10 10 40 10 78 63 60 54 52 34 36 52 36 36 34 36 37 17 11 8 31 
CALL[ ]	/* CallFunction */";
};
width = 1374;
}
);
note = uni1025;
unicode = 4133;
}
{
glyphname = "uu-myanmar";
kernLeft = "nya-myanmar";
layers = (
{
layerId = "78B30572-30A3-488A-B9E2-AAE684162724";
shapes = (
{
closed = 1;
nodes = (
(911,-888,ls),
(1081,-888,o),
(1187,-784,o),
(1187,-618,cs),
(1187,-452,o),
(1081,-348,o),
(911,-348,cs),
(779,-348,o),
(651,-400,o),
(585,-484,c),
(617,-514,l),
(676,-440,o),
(791,-393,o),
(911,-393,cs),
(1052,-393,o),
(1141,-480,o),
(1141,-618,cs),
(1141,-756,o),
(1052,-843,o),
(911,-843,cs),
(445,-843,ls),
(305,-843,o),
(216,-756,o),
(216,-618,cs),
(216,224,l),
(198,203,l),
(296,63,o),
(453,-24,o),
(641,-24,cs),
(957,-24,o),
(1190,222,o),
(1190,559,cs),
(1190,896,o),
(957,1142,o),
(641,1142,cs),
(434,1142,o),
(264,1037,o),
(170,869,c),
(212,852,l),
(298,1003,o),
(451,1097,o),
(641,1097,cs),
(935,1097,o),
(1144,873,o),
(1144,559,cs),
(1144,245,o),
(935,21,o),
(641,21,cs),
(451,21,o),
(298,115,o),
(212,266,c),
(170,249,l),
(170,-618,ls),
(170,-784,o),
(276,-888,o),
(445,-888,cs)
);
},
{
closed = 1;
nodes = (
(847,1238,o),
(992,1383,o),
(992,1589,cs),
(992,1795,o),
(847,1940,o),
(641,1940,cs),
(435,1940,o),
(290,1795,o),
(290,1589,cs),
(290,1383,o),
(435,1238,o),
(641,1238,cs)
);
},
{
closed = 1;
nodes = (
(458,1278,o),
(330,1406,o),
(330,1589,cs),
(330,1772,o),
(458,1900,o),
(641,1900,cs),
(824,1900,o),
(952,1772,o),
(952,1589,cs),
(952,1406,o),
(824,1278,o),
(641,1278,cs)
);
},
{
closed = 1;
nodes = (
(384,1499,o),
(493,1558,o),
(641,1558,cs),
(789,1558,o),
(898,1499,o),
(930,1447,c),
(949,1486,l),
(886,1550,o),
(772,1598,o),
(641,1598,cs),
(510,1598,o),
(396,1550,o),
(333,1486,c),
(352,1447,l)
);
}
);
userData = {
assembly = "NPUSHB[ ]	/* 139 values pushed */
91 86 2 15 14 97 1 16 15 20 1 3 2 0 1 1 0 32 1 5 1 5 76 0 3 2 0 2 3 0 128 0 0 1 2 0 1 126 0 8 7 6 7 8 6 128 0 14 0 15 16 14 15 105 0 16 0 11 4 16 11 105 0 9 0 7 8 9 7 105 0 13 13 12 97 0 12 12 39 77 0 2 2 4 97 0 4 4 37 77 0 1 1 5 97 0 5 5 38 77 0 6 6 10 95 0 10 10 40 10 78 100 98 96 94 89 87 82 80 76 74 70 68 63 60 54 52 34 36 52 36 36 34 36 37 17 17 8 31 
CALL[ ]	/* CallFunction */";
};
width = 1340;
},
{
layerId = m003;
shapes = (
{
closed = 1;
nodes = (
(905,-888,ls),
(1164,-888,o),
(1326,-747,o),
(1326,-523,cs),
(1326,-341,o),
(1215,-175,o),
(929,-175,cs),
(811,-175,o),
(700,-200,o),
(618,-244,c),
(704,-473,l),
(766,-445,o),
(818,-437,o),
(861,-437,cs),
(965,-437,o),
(1008,-484,o),
(1008,-532,cs),
(1008,-580,o),
(964,-628,o),
(896,-628,cs),
(600,-628,ls),
(520,-628,o),
(470,-578,o),
(470,-498,cs),
(470,145,l),
(375,123,l),
(470,31,o),
(588,-24,o),
(729,-24,cs),
(1089,-24,o),
(1326,207,o),
(1326,559,cs),
(1326,919,o),
(1080,1142,o),
(689,1142,cs),
(364,1142,o),
(141,982,o),
(110,728,c),
(426,646,l),
(446,754,o),
(547,822,o),
(689,822,cs),
(855,822,o),
(960,721,o),
(960,559,cs),
(960,397,o),
(855,296,o),
(689,296,cs),
(577,296,o),
(476,354,o),
(456,442,c),
(140,360,l),
(140,-568,ls),
(140,-756,o),
(272,-888,o),
(460,-888,cs)
);
},
{
closed = 1;
nodes = (
(937,1240,o),
(1118,1412,o),
(1118,1655,cs),
(1118,1898,o),
(937,2070,o),
(686,2070,cs),
(433,2070,o),
(254,1898,o),
(254,1655,cs),
(254,1412,o),
(433,1240,o),
(686,1240,cs)
);
},
{
closed = 1;
nodes = (
(567,1440,o),
(484,1531,o),
(484,1655,cs),
(484,1780,o),
(567,1870,o),
(686,1870,cs),
(803,1870,o),
(888,1780,o),
(888,1655,cs),
(888,1531,o),
(803,1440,o),
(686,1440,cs)
);
},
{
closed = 1;
nodes = (
(524,1530,o),
(600,1574,o),
(683,1574,cs),
(765,1574,o),
(842,1530,o),
(888,1440,c),
(964,1553,l),
(902,1660,o),
(799,1716,o),
(683,1716,cs),
(564,1716,o),
(462,1660,o),
(402,1553,c),
(479,1440,l)
);
}
);
userData = {
assembly = "NPUSHB[ ]	/* 139 values pushed */
91 86 2 15 14 97 1 16 15 20 1 3 2 0 1 1 0 32 1 5 1 5 76 0 3 2 0 2 3 0 128 0 0 1 2 0 1 126 0 8 7 6 7 8 6 128 0 14 0 15 16 14 15 105 0 16 0 11 4 16 11 105 0 9 0 7 8 9 7 105 0 13 13 12 97 0 12 12 39 77 0 2 2 4 97 0 4 4 37 77 0 1 1 5 97 0 5 5 38 77 0 6 6 10 95 0 10 10 40 10 78 100 98 96 94 89 87 82 80 76 74 70 68 63 60 54 52 34 36 52 36 36 34 36 37 17 17 8 31 
CALL[ ]	/* CallFunction */";
};
width = 1412;
},
{
hints = (
{
horizontal = 1;
origin = (0,55);
target = (0,20);
type = Stem;
},
{
horizontal = 1;
origin = (0,13);
target = (0,6);
type = Stem;
},
{
horizontal = 1;
origin = (0,28);
target = (0,47);
type = Stem;
},
{
horizontal = 1;
origin = (0,34);
target = (0,41);
type = Stem;
},
{
horizontal = 1;
origin = (1,11);
target = (2,11);
type = Stem;
},
{
horizontal = 1;
origin = (3,2);
target = (3,9);
type = Stem;
},
{
horizontal = 1;
origin = (2,5);
target = (1,5);
type = Stem;
},
{
origin = (0,52);
target = (0,24);
type = Stem;
},
{
origin = (0,44);
target = (0,31);
type = Stem;
},
{
origin = (0,16);
target = (0,3);
type = Stem;
}
);
layerId = "F0604DE4-03AC-4980-9DDA-35F40FDF1E6E";
shapes = (
{
closed = 1;
nodes = (
(913,-888,ls),
(1118,-888,o),
(1246,-769,o),
(1246,-580,cs),
(1246,-395,o),
(1117,-279,o),
(912,-279,cs),
(793,-279,o),
(669,-321,o),
(598,-388,c),
(659,-513,l),
(716,-460,o),
(806,-427,o),
(895,-427,cs),
(1010,-427,o),
(1082,-488,o),
(1082,-584,cs),
(1082,-676,o),
(1015,-734,o),
(909,-734,cs),
(511,-734,ls),
(395,-734,o),
(326,-684,o),
(326,-570,cs),
(326,192,l),
(273,171,l),
(370,50,o),
(511,-24,o),
(680,-24,cs),
(1014,-24,o),
(1248,216,o),
(1248,559,cs),
(1248,905,o),
(1010,1142,o),
(664,1142,cs),
(410,1142,o),
(219,1015,o),
(150,813,c),
(302,770,l),
(361,903,o),
(493,982,o),
(664,982,cs),
(907,982,o),
(1074,812,o),
(1074,559,cs),
(1074,306,o),
(907,136,o),
(664,136,cs),
(505,136,o),
(373,211,o),
(314,336,c),
(162,293,l),
(162,-598,ls),
(162,-776,o),
(275,-888,o),
(455,-888,cs)
);
},
{
closed = 1;
nodes = (
(886,1240,o),
(1042,1398,o),
(1042,1623,cs),
(1042,1848,o),
(886,2006,o),
(665,2006,cs),
(444,2006,o),
(288,1848,o),
(288,1623,cs),
(288,1398,o),
(444,1240,o),
(665,1240,cs)
);
},
{
closed = 1;
nodes = (
(527,1373,o),
(430,1476,o),
(430,1623,cs),
(430,1770,o),
(527,1873,o),
(665,1873,cs),
(803,1873,o),
(900,1770,o),
(900,1623,cs),
(900,1476,o),
(803,1373,o),
(665,1373,cs)
);
},
{
closed = 1;
nodes = (
(475,1486,o),
(568,1525,o),
(665,1525,cs),
(762,1525,o),
(856,1486,o),
(899,1413,c),
(968,1516,l),
(902,1599,o),
(795,1649,o),
(665,1649,cs),
(534,1649,o),
(427,1599,o),
(362,1516,c),
(432,1413,l)
);
}
);
userData = {
assembly = "NPUSHB[ ]	/* 139 values pushed */
91 86 2 15 14 97 1 16 15 20 1 3 2 0 1 1 0 32 1 5 1 5 76 0 3 2 0 2 3 0 128 0 0 1 2 0 1 126 0 8 7 6 7 8 6 128 0 14 0 15 16 14 15 105 0 16 0 11 4 16 11 105 0 9 0 7 8 9 7 105 0 13 13 12 97 0 12 12 39 77 0 2 2 4 97 0 4 4 37 77 0 1 1 5 97 0 5 5 38 77 0 6 6 10 95 0 10 10 40 10 78 100 98 96 94 89 87 82 80 76 74 70 68 63 60 54 52 34 36 52 36 36 34 36 37 17 17 8 31 
CALL[ ]	/* CallFunction */";
};
width = 1374;
}
);
note = uni1026;
unicode = 4134;
}
{
glyphname = "e-myanmar";
layers = (
{
anchors = (
{
name = bottom;
pos = (709,0);
},
{
name = bottomright;
pos = (702,0);
},
{
name = top;
pos = (708,1118);
}
);
layerId = "78B30572-30A3-488A-B9E2-AAE684162724";
shapes = (
{
closed = 1;
nodes = (
(936,-24,o),
(1120,107,o),
(1170,322,c),
(1112,400,o),
(954,453,o),
(791,453,cs),
(578,453,o),
(388,362,o),
(291,214,c),
(316,172,l),
(406,322,o),
(588,411,o),
(802,411,cs),
(945,411,o),
(1059,374,o),
(1142,296,c),
(1126,333,l),
(1085,148,o),
(917,21,o),
(710,21,cs),
(414,21,o),
(196,255,o),
(196,559,cs),
(196,863,o),
(414,1097,o),
(710,1097,cs),
(917,1097,o),
(1085,970,o),
(1126,785,c),
(1142,822,l),
(1059,744,o),
(945,707,o),
(802,707,cs),
(588,707,o),
(406,796,o),
(316,946,c),
(291,904,l),
(388,756,o),
(578,665,o),
(791,665,cs),
(954,665,o),
(1112,718,o),
(1170,796,c),
(1120,1011,o),
(936,1142,o),
(710,1142,cs),
(382,1142,o),
(150,894,o),
(150,559,cs),
(150,224,o),
(382,-24,o),
(710,-24,cs)
);
}
);
userData = {
assembly = "NPUSHB[ ]	/* 79 values pushed */
48 18 12 3 3 2 8 2 2 0 1 2 76 0 3 0 7 4 3 7 105 0 4 0 1 0 4 1 105 9 1 2 2 6 97 0 6 6 37 77 8 1 0 0 5 97 0 5 5 38 5 78 11 10 1 0 45 43 38 36 32 30 25 23 17 16 10 19 11 19 4 3 0 9 1 9 10 8 22 
CALL[ ]	/* CallFunction */";
};
width = 1320;
},
{
anchors = (
{
name = bottom;
pos = (711,0);
},
{
name = bottomright;
pos = (711,0);
},
{
name = top;
pos = (712,1118);
}
);
layerId = m003;
shapes = (
{
closed = 1;
nodes = (
(1039,-24,o),
(1266,135,o),
(1302,377,c),
(1217,467,o),
(1040,517,o),
(843,517,cs),
(628,517,o),
(429,459,o),
(326,335,c),
(454,197,l),
(527,283,o),
(650,341,o),
(789,341,cs),
(869,341,o),
(947,322,o),
(1010,278,c),
(977,374,l),
(952,278,o),
(876,219,o),
(749,219,cs),
(604,219,o),
(452,319,o),
(452,559,cs),
(452,799,o),
(604,899,o),
(749,899,cs),
(876,899,o),
(952,840,o),
(977,744,c),
(1010,840,l),
(947,796,o),
(869,777,o),
(789,777,cs),
(650,777,o),
(527,834,o),
(454,921,c),
(326,783,l),
(429,659,o),
(628,601,o),
(843,601,cs),
(1040,601,o),
(1217,651,o),
(1302,741,c),
(1266,983,o),
(1039,1142,o),
(712,1142,cs),
(327,1142,o),
(86,942,o),
(86,559,cs),
(86,176,o),
(327,-24,o),
(712,-24,cs)
);
}
);
userData = {
assembly = "NPUSHB[ ]	/* 79 values pushed */
48 18 12 3 3 2 8 2 2 0 1 2 76 0 3 0 7 4 3 7 105 0 4 0 1 0 4 1 105 9 1 2 2 6 97 0 6 6 37 77 8 1 0 0 5 97 0 5 5 38 5 78 11 10 1 0 45 43 38 36 32 30 25 23 17 16 10 19 11 19 4 3 0 9 1 9 10 8 22 
CALL[ ]	/* CallFunction */";
};
width = 1388;
},
{
anchors = (
{
name = bottom;
pos = (675,0);
},
{
name = bottomright;
pos = (677,0);
},
{
name = top;
pos = (660,1118);
}
);
hints = (
{
horizontal = 1;
origin = (0,51);
target = (0,19);
type = Stem;
},
{
horizontal = 1;
origin = (0,12);
target = (0,5);
type = Stem;
},
{
horizontal = 1;
origin = (0,39);
target = (0,32);
type = Stem;
},
{
horizontal = 1;
origin = (0,45);
target = (0,25);
type = Stem;
},
{
origin = (0,48);
target = (0,22);
type = Stem;
}
);
layerId = "F0604DE4-03AC-4980-9DDA-35F40FDF1E6E";
shapes = (
{
closed = 1;
nodes = (
(967,-24,o),
(1179,142,o),
(1225,388,c),
(1134,469,o),
(962,519,o),
(804,519,cs),
(576,519,o),
(380,435,o),
(281,295,c),
(372,189,l),
(455,310,o),
(613,381,o),
(801,381,cs),
(916,381,o),
(1029,351,o),
(1098,293,c),
(1066,380,l),
(1027,225,o),
(884,122,o),
(712,122,cs),
(468,122,o),
(300,299,o),
(300,565,cs),
(300,825,o),
(468,996,o),
(712,996,cs),
(884,996,o),
(1027,893,o),
(1066,738,c),
(1098,825,l),
(1029,767,o),
(916,737,o),
(801,737,cs),
(613,737,o),
(455,808,o),
(372,929,c),
(281,823,l),
(380,683,o),
(576,599,o),
(804,599,cs),
(962,599,o),
(1134,649,o),
(1225,730,c),
(1179,976,o),
(967,1142,o),
(697,1142,cs),
(361,1142,o),
(126,902,o),
(126,559,cs),
(126,216,o),
(361,-24,o),
(697,-24,cs)
);
}
);
userData = {
assembly = "NPUSHB[ ]	/* 79 values pushed */
48 18 12 3 3 2 8 2 2 0 1 2 76 0 3 0 7 4 3 7 105 0 4 0 1 0 4 1 105 9 1 2 2 6 97 0 6 6 37 77 8 1 0 0 5 97 0 5 5 38 5 78 11 10 1 0 45 43 38 36 32 30 25 23 17 16 10 19 11 19 4 3 0 9 1 9 10 8 22 
CALL[ ]	/* CallFunction */";
};
width = 1350;
}
);
note = uni1027;
unicode = 4135;
}
{
glyphname = "e-mon";
layers = (
{
anchors = (
{
name = dotbelow;
pos = (716,0);
},
{
name = hamedial_sh;
pos = (760,0);
},
{
name = top;
pos = (702,1118);
},
{
name = wamedial;
pos = (702,0);
}
);
layerId = "78B30572-30A3-488A-B9E2-AAE684162724";
shapes = (
{
closed = 1;
nodes = (
(1078,-888,o),
(1234,-717,o),
(1234,-445,cs),
(1234,-366,l),
(1190,-366,l),
(1190,-412,ls),
(1190,-677,o),
(1051,-843,o),
(702,-843,cs),
(354,-843,o),
(216,-671,o),
(216,-396,cs),
(216,609,ls),
(216,878,o),
(387,1097,o),
(697,1097,cs),
(1014,1097,o),
(1187,866,o),
(1187,499,cs),
(1187,192,o),
(1043,20,o),
(850,20,cs),
(698,20,o),
(603,91,o),
(603,204,cs),
(603,356,o),
(783,453,o),
(783,582,cs),
(783,655,o),
(720,686,o),
(654,686,cs),
(621,686,o),
(581,679,o),
(543,662,c),
(550,620,l),
(584,635,o),
(619,645,o),
(649,645,cs),
(704,645,o),
(739,620,o),
(739,580,cs),
(739,461,o),
(558,374,o),
(558,203,cs),
(558,64,o),
(671,-24,o),
(850,-24,cs),
(1072,-24,o),
(1233,162,o),
(1233,496,cs),
(1233,893,o),
(1045,1142,o),
(703,1142,cs),
(361,1142,o),
(170,920,o),
(170,609,cs),
(170,-396,ls),
(170,-698,o),
(326,-888,o),
(702,-888,cs)
);
}
);
userData = {
assembly = "NPUSHB[ ]	/* 10 values pushed */
78 57 54 32 0 5 5 0 1 76 
MPPEM[ ]	/* MeasurePixelPerEm */
PUSHB[ ]	/* 1 value pushed */
43 
LT[ ]	/* LessThan */
IF[ ]	/* If */
NPUSHB[ ]	/* 34 values pushed */
0 2 5 1 5 2 1 128 0 0 0 4 97 0 4 4 37 77 0 5 5 38 77 0 1 1 3 97 0 3 3 40 3 78 
ELSE[ ]	/* Else */
MPPEM[ ]	/* MeasurePixelPerEm */
PUSHB[ ]	/* 1 value pushed */
49 
LT[ ]	/* LessThan */
IF[ ]	/* If */
NPUSHB[ ]	/* 32 values pushed */
0 2 5 1 5 2 1 128 0 4 0 0 5 4 0 105 0 5 5 38 77 0 1 1 3 97 0 3 3 40 3 78 
ELSE[ ]	/* Else */
NPUSHB[ ]	/* 29 values pushed */
0 2 5 1 5 2 1 128 0 4 0 0 5 4 0 105 0 1 0 3 1 3 101 0 5 5 38 5 78 
EIF[ ]	/* EndIf */
EIF[ ]	/* EndIf */
NPUSHB[ ]	/* 9 values pushed */
26 37 36 19 37 35 6 8 28 
CALL[ ]	/* CallFunction */";
};
width = 1384;
},
{
anchors = (
{
name = dotbelow;
pos = (730,0);
},
{
name = hamedial_sh;
pos = (838,0);
},
{
name = top;
pos = (723,1118);
},
{
name = wamedial;
pos = (722,0);
}
);
layerId = m003;
shapes = (
{
closed = 1;
nodes = (
(1098,-888,o),
(1334,-711,o),
(1334,-445,cs),
(1334,-366,l),
(1004,-366,l),
(1004,-412,ls),
(1004,-528,o),
(887,-612,o),
(722,-612,cs),
(549,-612,o),
(440,-512,o),
(440,-353,cs),
(440,558,ls),
(440,726,o),
(553,832,o),
(733,832,cs),
(920,832,o),
(1037,703,o),
(1037,498,cs),
(1037,330,o),
(974,175,o),
(874,175,cs),
(809,175,o),
(772,214,o),
(772,284,cs),
(772,390,o),
(881,446,o),
(881,548,cs),
(881,648,o),
(784,677,o),
(690,677,cs),
(638,677,o),
(559,665,o),
(521,648,c),
(552,508,l),
(565,514,o),
(583,517,o),
(595,517,cs),
(619,517,o),
(631,504,o),
(631,486,cs),
(631,436,o),
(536,390,o),
(536,246,cs),
(536,70,o),
(687,-24,o),
(911,-24,cs),
(1203,-24,o),
(1403,160,o),
(1403,489,cs),
(1403,901,o),
(1167,1142,o),
(739,1142,cs),
(353,1142,o),
(110,913,o),
(110,548,cs),
(110,-396,ls),
(110,-698,o),
(346,-888,o),
(722,-888,cs)
);
}
);
userData = {
assembly = "NPUSHB[ ]	/* 10 values pushed */
78 57 54 32 0 5 5 0 1 76 
MPPEM[ ]	/* MeasurePixelPerEm */
PUSHB[ ]	/* 1 value pushed */
43 
LT[ ]	/* LessThan */
IF[ ]	/* If */
NPUSHB[ ]	/* 34 values pushed */
0 2 5 1 5 2 1 128 0 0 0 4 97 0 4 4 37 77 0 5 5 38 77 0 1 1 3 97 0 3 3 40 3 78 
ELSE[ ]	/* Else */
MPPEM[ ]	/* MeasurePixelPerEm */
PUSHB[ ]	/* 1 value pushed */
49 
LT[ ]	/* LessThan */
IF[ ]	/* If */
NPUSHB[ ]	/* 32 values pushed */
0 2 5 1 5 2 1 128 0 4 0 0 5 4 0 105 0 5 5 38 77 0 1 1 3 97 0 3 3 40 3 78 
ELSE[ ]	/* Else */
NPUSHB[ ]	/* 29 values pushed */
0 2 5 1 5 2 1 128 0 4 0 0 5 4 0 105 0 1 0 3 1 3 101 0 5 5 38 5 78 
EIF[ ]	/* EndIf */
EIF[ ]	/* EndIf */
NPUSHB[ ]	/* 9 values pushed */
26 37 36 19 37 35 6 8 28 
CALL[ ]	/* CallFunction */";
};
width = 1489;
},
{
anchors = (
{
name = dotbelow;
pos = (732,0);
},
{
name = hamedial_sh;
pos = (803,0);
},
{
name = top;
pos = (700,1118);
},
{
name = wamedial;
pos = (725,0);
}
);
hints = (
{
horizontal = 1;
origin = (0,59);
target = (0,8);
type = Stem;
},
{
horizontal = 1;
origin = (0,46);
target = (0,21);
type = Stem;
},
{
horizontal = 1;
origin = (0,52);
target = (0,15);
type = Stem;
},
{
horizontal = 1;
origin = (0,37);
target = (0,30);
type = Stem;
},
{
origin = (0,56);
target = (0,12);
type = Stem;
},
{
origin = (0,43);
target = (0,24);
type = Stem;
},
{
origin = (0,18);
target = (0,49);
type = Stem;
},
{
origin = (0,5);
target = (0,3);
type = Stem;
}
);
layerId = "F0604DE4-03AC-4980-9DDA-35F40FDF1E6E";
shapes = (
{
closed = 1;
nodes = (
(1076,-888,o),
(1278,-729,o),
(1278,-445,cs),
(1278,-366,l),
(1118,-366,l),
(1118,-412,ls),
(1118,-619,o),
(973,-734,o),
(714,-734,cs),
(463,-734,o),
(322,-607,o),
(322,-379,cs),
(322,589,ls),
(322,817,o),
(457,982,o),
(715,982,cs),
(980,982,o),
(1131,801,o),
(1131,499,cs),
(1131,247,o),
(1008,104,o),
(858,104,cs),
(758,104,o),
(695,153,o),
(695,233,cs),
(695,342,o),
(843,439,o),
(843,557,cs),
(843,651,o),
(780,704,o),
(667,704,cs),
(619,704,o),
(569,693,o),
(530,673,c),
(553,557,l),
(577,568,o),
(603,575,o),
(627,575,cs),
(659,575,o),
(684,562,o),
(684,530,cs),
(684,444,o),
(543,380,o),
(543,220,cs),
(543,66,o),
(661,-24,o),
(860,-24,cs),
(1130,-24,o),
(1305,161,o),
(1305,493,cs),
(1305,896,o),
(1098,1142,o),
(721,1142,cs),
(362,1142,o),
(150,917,o),
(150,585,cs),
(150,-396,ls),
(150,-712,o),
(352,-888,o),
(714,-888,cs)
);
}
);
userData = {
assembly = "NPUSHB[ ]	/* 10 values pushed */
78 57 54 32 0 5 5 0 1 76 
MPPEM[ ]	/* MeasurePixelPerEm */
PUSHB[ ]	/* 1 value pushed */
43 
LT[ ]	/* LessThan */
IF[ ]	/* If */
NPUSHB[ ]	/* 34 values pushed */
0 2 5 1 5 2 1 128 0 0 0 4 97 0 4 4 37 77 0 5 5 38 77 0 1 1 3 97 0 3 3 40 3 78 
ELSE[ ]	/* Else */
MPPEM[ ]	/* MeasurePixelPerEm */
PUSHB[ ]	/* 1 value pushed */
49 
LT[ ]	/* LessThan */
IF[ ]	/* If */
NPUSHB[ ]	/* 32 values pushed */
0 2 5 1 5 2 1 128 0 4 0 0 5 4 0 105 0 5 5 38 77 0 1 1 3 97 0 3 3 40 3 78 
ELSE[ ]	/* Else */
NPUSHB[ ]	/* 29 values pushed */
0 2 5 1 5 2 1 128 0 4 0 0 5 4 0 105 0 1 0 3 1 3 101 0 5 5 38 5 78 
EIF[ ]	/* EndIf */
EIF[ ]	/* EndIf */
NPUSHB[ ]	/* 9 values pushed */
26 37 36 19 37 35 6 8 28 
CALL[ ]	/* CallFunction */";
};
width = 1432;
}
);
note = uni1028;
unicode = 4136;
}
{
glyphname = "o-myanmar";
kernLeft = "raMedial-myanmar";
layers = (
{
layerId = "78B30572-30A3-488A-B9E2-AAE684162724";
shapes = (
{
closed = 1;
nodes = (
(1943,-888,ls),
(2176,-888,o),
(2307,-757,o),
(2307,-524,cs),
(2307,167,l),
(2263,167,l),
(2263,-513,ls),
(2263,-734,o),
(2153,-843,o),
(1932,-843,cs),
(545,-843,ls),
(325,-843,o),
(216,-734,o),
(216,-513,cs),
(216,1609,ls),
(216,1830,o),
(325,1939,o),
(545,1939,cs),
(1932,1939,ls),
(2153,1939,o),
(2263,1830,o),
(2263,1609,cs),
(2263,1356,l),
(2307,1356,l),
(2307,1620,ls),
(2307,1853,o),
(2176,1984,o),
(1943,1984,cs),
(534,1984,ls),
(301,1984,o),
(170,1853,o),
(170,1620,cs),
(170,-524,ls),
(170,-757,o),
(301,-888,o),
(534,-888,cs)
);
},
{
closed = 1;
nodes = (
(1247,-24,o),
(1480,222,o),
(1480,559,cs),
(1480,896,o),
(1247,1142,o),
(931,1142,cs),
(724,1142,o),
(554,1037,o),
(460,869,c),
(502,852,l),
(588,1003,o),
(742,1097,o),
(931,1097,cs),
(1225,1097,o),
(1434,873,o),
(1434,559,cs),
(1434,245,o),
(1225,21,o),
(931,21,cs),
(742,21,o),
(588,115,o),
(502,266,c),
(460,249,l),
(554,81,o),
(724,-24,o),
(931,-24,cs)
);
},
{
closed = 1;
nodes = (
(2219,-24,o),
(2436,200,o),
(2436,559,cs),
(2436,917,o),
(2259,1142,o),
(1927,1142,cs),
(1867,1142,o),
(1808,1132,o),
(1753,1113,c),
(1768,1070,l),
(1819,1088,o),
(1872,1097,o),
(1928,1097,cs),
(2230,1097,o),
(2390,888,o),
(2390,559,cs),
(2390,229,o),
(2192,21,o),
(1898,21,cs),
(1688,21,o),
(1500,154,o),
(1434,363,c),
(1403,319,l),
(1479,109,o),
(1675,-24,o),
(1898,-24,cs)
);
}
);
userData = {
assembly = "NPUSHB[ ]	/* 23 values pushed */
43 1 0 4 98 1 9 11 77 1 10 9 84 1 7 10 57 51 2 2 7 5 76 
MPPEM[ ]	/* MeasurePixelPerEm */
PUSHB[ ]	/* 1 value pushed */
33 
LT[ ]	/* LessThan */
IF[ ]	/* If */
NPUSHB[ ]	/* 62 values pushed */
0 10 9 7 9 10 7 128 0 7 2 9 7 2 126 0 0 0 4 95 0 4 4 39 77 14 13 2 9 9 11 97 15 1 11 11 37 77 12 8 2 2 2 5 97 6 1 5 5 38 77 0 1 1 3 96 0 3 3 40 3 78 
ELSE[ ]	/* Else */
MPPEM[ ]	/* MeasurePixelPerEm */
PUSHB[ ]	/* 1 value pushed */
39 
LT[ ]	/* LessThan */
IF[ ]	/* If */
NPUSHB[ ]	/* 72 values pushed */
0 10 9 7 9 10 7 128 0 7 2 9 7 2 126 0 0 0 4 95 0 4 4 39 77 14 13 2 9 9 11 97 15 1 11 11 37 77 0 12 12 5 98 6 1 5 5 38 77 8 1 2 2 5 97 6 1 5 5 38 77 0 1 1 3 96 0 3 3 40 3 78 
ELSE[ ]	/* Else */
NPUSHB[ ]	/* 67 values pushed */
0 10 9 7 9 10 7 128 0 7 2 9 7 2 126 0 2 8 8 2 112 0 0 0 4 95 0 4 4 39 77 14 13 2 9 9 11 97 15 1 11 11 37 77 12 1 8 8 5 98 6 1 5 5 38 77 0 1 1 3 96 0 3 3 40 3 78 
EIF[ ]	/* EndIf */
EIF[ ]	/* EndIf */
NPUSHB[ ]	/* 26 values pushed */
104 102 97 96 95 94 90 88 82 80 76 75 72 70 34 23 36 38 54 55 37 55 49 16 8 31 
CALL[ ]	/* CallFunction */";
};
width = 2586;
},
{
layerId = m003;
shapes = (
{
closed = 1;
nodes = (
(2184,-888,ls),
(2505,-888,o),
(2684,-709,o),
(2684,-388,cs),
(2684,300,l),
(2394,300,l),
(2394,-383,ls),
(2394,-534,o),
(2315,-618,o),
(2174,-618,cs),
(740,-618,ls),
(599,-618,o),
(520,-534,o),
(520,-383,cs),
(520,1565,ls),
(520,1716,o),
(599,1800,o),
(740,1800,cs),
(2174,1800,ls),
(2315,1800,o),
(2394,1716,o),
(2394,1565,cs),
(2394,1465,l),
(2684,1465,l),
(2684,1570,ls),
(2684,1891,o),
(2505,2070,o),
(2184,2070,cs),
(680,2070,ls),
(359,2070,o),
(180,1891,o),
(180,1570,cs),
(180,-388,ls),
(180,-709,o),
(359,-888,o),
(680,-888,cs)
);
},
{
closed = 1;
nodes = (
(1658,-24,o),
(1904,201,o),
(1904,559,cs),
(1904,917,o),
(1658,1142,o),
(1267,1142,cs),
(942,1142,o),
(719,982,o),
(688,728,c),
(1004,646,l),
(1024,754,o),
(1125,822,o),
(1267,822,cs),
(1433,822,o),
(1538,721,o),
(1538,559,cs),
(1538,397,o),
(1433,296,o),
(1267,296,cs),
(1125,296,o),
(1024,364,o),
(1004,472,c),
(688,390,l),
(719,136,o),
(942,-24,o),
(1267,-24,cs)
);
},
{
closed = 1;
nodes = (
(2556,-24,o),
(2774,213,o),
(2774,570,cs),
(2774,921,o),
(2566,1142,o),
(2236,1142,cs),
(2140,1142,o),
(2049,1126,o),
(1987,1100,c),
(2057,834,l),
(2094,847,o),
(2131,853,o),
(2166,853,cs),
(2298,853,o),
(2408,763,o),
(2408,576,cs),
(2408,403,o),
(2312,296,o),
(2158,296,cs),
(2026,296,o),
(1913,373,o),
(1870,495,c),
(1650,317,l),
(1723,105,o),
(1937,-24,o),
(2207,-24,cs)
);
}
);
userData = {
assembly = "NPUSHB[ ]	/* 23 values pushed */
43 1 0 4 98 1 9 11 77 1 10 9 84 1 7 10 57 51 2 2 7 5 76 
MPPEM[ ]	/* MeasurePixelPerEm */
PUSHB[ ]	/* 1 value pushed */
33 
LT[ ]	/* LessThan */
IF[ ]	/* If */
NPUSHB[ ]	/* 62 values pushed */
0 10 9 7 9 10 7 128 0 7 2 9 7 2 126 0 0 0 4 95 0 4 4 39 77 14 13 2 9 9 11 97 15 1 11 11 37 77 12 8 2 2 2 5 97 6 1 5 5 38 77 0 1 1 3 96 0 3 3 40 3 78 
ELSE[ ]	/* Else */
MPPEM[ ]	/* MeasurePixelPerEm */
PUSHB[ ]	/* 1 value pushed */
39 
LT[ ]	/* LessThan */
IF[ ]	/* If */
NPUSHB[ ]	/* 72 values pushed */
0 10 9 7 9 10 7 128 0 7 2 9 7 2 126 0 0 0 4 95 0 4 4 39 77 14 13 2 9 9 11 97 15 1 11 11 37 77 0 12 12 5 98 6 1 5 5 38 77 8 1 2 2 5 97 6 1 5 5 38 77 0 1 1 3 96 0 3 3 40 3 78 
ELSE[ ]	/* Else */
NPUSHB[ ]	/* 67 values pushed */
0 10 9 7 9 10 7 128 0 7 2 9 7 2 126 0 2 8 8 2 112 0 0 0 4 95 0 4 4 39 77 14 13 2 9 9 11 97 15 1 11 11 37 77 12 1 8 8 5 98 6 1 5 5 38 77 0 1 1 3 96 0 3 3 40 3 78 
EIF[ ]	/* EndIf */
EIF[ ]	/* EndIf */
NPUSHB[ ]	/* 26 values pushed */
104 102 97 96 95 94 90 88 82 80 76 75 72 70 34 23 36 38 54 55 37 55 49 16 8 31 
CALL[ ]	/* CallFunction */";
};
width = 2860;
},
{
hints = (
{
horizontal = 1;
origin = (0,35);
target = (0,10);
type = Stem;
},
{
horizontal = 1;
origin = (2,25);
target = (2,18);
type = Stem;
},
{
horizontal = 1;
origin = (2,5);
target = (1,12);
type = Stem;
},
{
horizontal = 1;
origin = (0,17);
target = (0,28);
type = Stem;
},
{
horizontal = 1;
origin = (2,5);
target = (2,12);
type = Stem;
},
{
origin = (0,32);
target = (0,14);
type = Stem;
},
{
origin = (1,15);
target = (1,2);
type = Stem;
},
{
origin = (0,6);
target = (0,4);
type = Stem;
},
{
origin = (2,15);
target = (2,2);
type = Stem;
},
{
origin = (0,22);
target = (0,23);
type = Stem;
}
);
layerId = "F0604DE4-03AC-4980-9DDA-35F40FDF1E6E";
shapes = (
{
closed = 1;
nodes = (
(2015,-888,ls),
(2284,-888,o),
(2434,-738,o),
(2434,-470,cs),
(2434,220,l),
(2270,220,l),
(2270,-457,ls),
(2270,-645,o),
(2172,-734,o),
(1989,-734,cs),
(599,-734,ls),
(416,-734,o),
(322,-645,o),
(322,-457,cs),
(322,1599,ls),
(322,1787,o),
(416,1876,o),
(599,1876,cs),
(1993,1876,ls),
(2176,1876,o),
(2274,1787,o),
(2274,1599,cs),
(2274,1410,l),
(2434,1410,l),
(2434,1612,ls),
(2434,1880,o),
(2284,2030,o),
(2015,2030,cs),
(568,2030,ls),
(300,2030,o),
(150,1880,o),
(150,1612,cs),
(150,-470,ls),
(150,-738,o),
(300,-888,o),
(568,-888,cs)
);
},
{
closed = 1;
nodes = (
(1387,-24,o),
(1626,214,o),
(1626,559,cs),
(1626,904,o),
(1387,1142,o),
(1041,1142,cs),
(787,1142,o),
(596,1015,o),
(527,813,c),
(679,770,l),
(738,903,o),
(871,982,o),
(1041,982,cs),
(1284,982,o),
(1452,812,o),
(1452,559,cs),
(1452,306,o),
(1284,136,o),
(1041,136,cs),
(871,136,o),
(738,215,o),
(679,348,c),
(527,305,l),
(596,103,o),
(787,-24,o),
(1041,-24,cs)
);
},
{
closed = 1;
nodes = (
(2330,-24,o),
(2547,205,o),
(2547,563,cs),
(2547,919,o),
(2358,1142,o),
(2027,1142,cs),
(1952,1142,o),
(1880,1130,o),
(1823,1108,c),
(1860,973,l),
(1905,989,o),
(1952,996,o),
(1999,996,cs),
(2233,996,o),
(2373,838,o),
(2373,566,cs),
(2373,299,o),
(2216,136,o),
(1978,136,cs),
(1799,136,o),
(1641,242,o),
(1584,416,c),
(1478,318,l),
(1553,107,o),
(1756,-24,o),
(1998,-24,cs)
);
}
);
userData = {
assembly = "NPUSHB[ ]	/* 23 values pushed */
43 1 0 4 98 1 9 11 77 1 10 9 84 1 7 10 57 51 2 2 7 5 76 
MPPEM[ ]	/* MeasurePixelPerEm */
PUSHB[ ]	/* 1 value pushed */
33 
LT[ ]	/* LessThan */
IF[ ]	/* If */
NPUSHB[ ]	/* 62 values pushed */
0 10 9 7 9 10 7 128 0 7 2 9 7 2 126 0 0 0 4 95 0 4 4 39 77 14 13 2 9 9 11 97 15 1 11 11 37 77 12 8 2 2 2 5 97 6 1 5 5 38 77 0 1 1 3 96 0 3 3 40 3 78 
ELSE[ ]	/* Else */
MPPEM[ ]	/* MeasurePixelPerEm */
PUSHB[ ]	/* 1 value pushed */
39 
LT[ ]	/* LessThan */
IF[ ]	/* If */
NPUSHB[ ]	/* 72 values pushed */
0 10 9 7 9 10 7 128 0 7 2 9 7 2 126 0 0 0 4 95 0 4 4 39 77 14 13 2 9 9 11 97 15 1 11 11 37 77 0 12 12 5 98 6 1 5 5 38 77 8 1 2 2 5 97 6 1 5 5 38 77 0 1 1 3 96 0 3 3 40 3 78 
ELSE[ ]	/* Else */
NPUSHB[ ]	/* 67 values pushed */
0 10 9 7 9 10 7 128 0 7 2 9 7 2 126 0 2 8 8 2 112 0 0 0 4 95 0 4 4 39 77 14 13 2 9 9 11 97 15 1 11 11 37 77 12 1 8 8 5 98 6 1 5 5 38 77 0 1 1 3 96 0 3 3 40 3 78 
EIF[ ]	/* EndIf */
EIF[ ]	/* EndIf */
NPUSHB[ ]	/* 26 values pushed */
104 102 97 96 95 94 90 88 82 80 76 75 72 70 34 23 36 38 54 55 37 55 49 16 8 31 
CALL[ ]	/* CallFunction */";
};
width = 2673;
}
);
note = uni1029;
unicode = 4137;
}
